<svg width="1512" height="477" viewBox="0 0 1512 477" fill="none" xmlns="http://www.w3.org/2000/svg">
<path d="M975.252 547.471C975.634 545.949 975.565 544.252 974.904 542.711C973.46 539.395 969.911 538.029 966.954 539.648C964.606 540.936 963.371 543.725 963.684 546.476L917.449 557.088L857.107 392.713C860.012 391.074 861.212 387.114 859.786 383.837C858.342 380.52 854.793 379.155 851.836 380.774C849.714 381.925 848.514 384.324 848.514 386.802L738.649 396.653C738.562 396.01 738.405 395.366 738.144 394.761C736.701 391.445 733.152 390.079 730.195 391.698C729.099 392.303 728.247 393.22 727.673 394.312L580.931 313.724C581.522 312.047 581.54 310.096 580.775 308.34C579.331 305.024 575.782 303.658 572.825 305.277C572.199 305.609 571.677 306.077 571.207 306.604L546.855 283.467L554.856 148.861C555.709 148.861 556.596 148.666 557.413 148.198C560.371 146.579 561.588 142.599 560.144 139.283C558.701 135.966 555.152 134.601 552.195 136.22C551.534 136.59 550.96 137.078 550.473 137.663L444.609 41.9759C445.774 40.0641 446.053 37.528 445.078 35.2846C443.635 31.9682 440.086 30.6026 437.129 32.2218C435.424 33.1582 434.328 34.8944 433.946 36.8062L349.46 23.7553L412.55 -123.395C414.046 -122.731 415.768 -122.731 417.316 -123.59C420.274 -125.209 421.491 -129.189 420.047 -132.505C418.604 -135.821 415.055 -137.187 412.098 -135.568C409.28 -134.027 408.062 -130.34 409.211 -127.121L281.516 -57.2426L280.438 -56.6573L254.972 -42.709L254.154 -42.2603L141.123 19.6C139.575 16.6153 136.218 15.4253 133.4 16.9664C130.582 18.5076 129.365 22.1946 130.513 25.4135L101.203 41.4491L136.357 122.271C133.696 124.008 132.635 127.773 134.009 130.933C135.383 134.093 138.671 135.459 141.541 134.171L198.961 266.124L271.149 432.061L271.497 432.861L270.383 433.446L271.601 433.563L271.549 433.953L271.897 433.777L272.349 434.831L326.951 560.307L326.203 560.834L327.229 560.971L327.334 561.224L327.629 561.029L413.803 571.934C413.768 572.988 413.924 574.08 414.377 575.094C415.821 578.411 419.369 579.776 422.326 578.157C424.083 577.201 425.196 575.407 425.544 573.397L491.783 581.786C491.748 582.839 491.905 583.932 492.357 584.966C493.801 588.282 497.349 589.647 500.307 588.028C500.533 587.911 500.724 587.736 500.933 587.599L565.067 681.667C563.136 683.599 562.475 686.798 563.658 689.549C565.102 692.865 568.65 694.231 571.608 692.612C571.886 692.455 572.129 692.28 572.373 692.085L674.932 834.221C673.088 836.172 672.479 839.293 673.645 841.985C675.089 845.302 678.637 846.667 681.594 845.048C684.412 843.507 685.63 839.82 684.482 836.601L748.164 801.76C749.712 804.744 753.069 805.934 755.887 804.393C758.705 802.852 759.923 799.165 758.774 795.946L888.73 724.819C890.279 727.804 893.636 728.994 896.454 727.453C899.272 725.912 900.489 722.225 899.341 719.006L1008.98 658.999C1010.53 661.984 1013.89 663.174 1016.7 661.633C1019.52 660.091 1020.74 656.404 1019.59 653.186L1110.36 603.518L975.252 547.51V547.471ZM1108.1 603.596L1019.21 652.249C1017.76 649.459 1014.76 648.269 1012.06 649.362L972.416 551.47C973.582 550.748 974.434 549.675 974.956 548.407L1108.11 603.596H1108.1ZM549.447 145.115C549.621 145.506 549.812 145.857 550.038 146.188L481.433 213.277C480.094 211.794 478.215 211.131 476.372 211.443L464.874 156.391L548.994 143.555C549.099 144.081 549.238 144.589 549.447 145.096V145.115ZM140.48 27.3253L205.519 81.7335L144.133 124.086C143.054 122.408 141.349 121.433 139.558 121.355L136.636 29.5687C137.297 29.4907 137.958 29.2956 138.584 28.9639C139.332 28.5543 139.958 28.008 140.462 27.3448L140.48 27.3253ZM419.178 565.496L411.037 510.113C413.664 508.357 414.725 504.631 413.35 501.49C413.246 501.256 413.107 501.061 412.985 500.846L476.198 456.329C476.598 456.953 477.102 457.46 477.641 457.87L422.239 566.16C421.282 565.652 420.239 565.418 419.16 565.516L419.178 565.496ZM1008.6 658.063L898.958 718.07C898.419 717.055 897.689 716.216 896.836 715.651L936.74 623.006C938.236 623.67 939.958 623.67 941.523 622.811C942.671 622.187 943.541 621.212 944.115 620.041L1008.55 653.283C1008.04 654.785 1008.04 656.482 1008.61 658.063H1008.6ZM853.941 393.376L852.445 565.77C851.697 565.828 850.949 566.043 850.219 566.433C849.992 566.55 849.784 566.725 849.575 566.881L821.413 525.875L853.332 393.298C853.541 393.337 853.732 393.376 853.941 393.396V393.376ZM409.245 497.92L401.539 445.541L475.067 452.33C475.067 453.325 475.223 454.339 475.641 455.295C475.676 455.353 475.711 455.412 475.745 455.471L412.481 500.047C411.628 498.954 410.498 498.232 409.263 497.94L409.245 497.92ZM439.008 44.8046L433.911 160.137L384.841 167.628C384.736 167.101 384.597 166.594 384.388 166.087C383.884 164.916 383.101 163.999 382.162 163.356L391.711 142.774L407.854 107.972L437.407 44.3168C437.912 44.5704 438.451 44.746 438.99 44.8241L439.008 44.8046ZM303.277 22.7018L328.169 71.1015L295.153 148.081C294.719 147.886 294.266 147.73 293.814 147.671L300.772 23.3456C301.607 23.3456 302.459 23.131 303.277 22.7018ZM730.073 687.305L722.367 651.137C722.628 651.04 722.907 650.942 723.168 650.806C725.272 649.655 726.473 647.294 726.49 644.836L728.49 644.68L787.893 639.881C787.98 640.544 788.137 641.208 788.398 641.832C789.094 643.451 790.311 644.582 791.685 645.148L754.443 791.83C753.747 791.674 753.034 791.654 752.321 791.791L730.056 687.305H730.073ZM889.339 717.075L798.782 642.417C799.826 640.525 800.035 638.106 799.096 635.96C798.869 635.433 798.574 634.965 798.243 634.536L821.743 608.102L848.984 577.455C850.392 578.82 852.323 579.367 854.167 578.879L886.869 697.684L891.688 715.202C891.548 715.26 891.392 715.299 891.253 715.378C890.505 715.787 889.861 716.353 889.357 717.036L889.339 717.075ZM724.542 549.558L637.586 576.967C637.586 576.967 637.551 576.811 637.516 576.733C637.255 576.148 636.925 575.641 636.542 575.172L682.186 491.463C683.786 492.38 685.752 492.497 687.491 491.541C687.648 491.463 687.769 491.346 687.908 491.248L724.524 549.558H724.542ZM752.634 477.983L791.72 632.682C791.529 632.76 791.337 632.819 791.146 632.917C789.041 634.068 787.841 636.428 787.824 638.886L728.647 643.666L726.403 643.841C726.316 643.178 726.159 642.515 725.899 641.89C724.994 639.803 723.237 638.496 721.324 638.203L725.62 551.314L725.672 550.241L725.968 550.143L725.69 549.714L726.299 537.424L732.891 404.34C733.239 404.34 733.604 404.281 733.952 404.203L752.599 478.002L752.634 477.983ZM715.931 640.661L637.986 580.888C638.142 579.913 638.125 578.898 637.899 577.904L724.803 550.514L720.454 638.164C719.619 638.164 718.767 638.379 717.967 638.828C717.149 639.276 716.471 639.92 715.949 640.661H715.931ZM633.428 573.163L622.8 524.783C623.061 524.685 623.322 524.607 623.565 524.471C626.331 522.949 627.549 519.34 626.505 516.16L679.698 488.751C680.133 489.629 680.724 490.351 681.42 490.917L635.864 574.451C635.15 573.807 634.315 573.378 633.428 573.163ZM519.249 414.796L485.173 447.667C484.13 446.497 482.773 445.833 481.329 445.736L477.85 224.65C478.25 224.611 478.65 224.514 479.05 224.377L537.149 389.728H537.131C534.174 391.347 532.956 395.346 534.4 398.663C534.557 399.033 534.748 399.365 534.957 399.677L519.267 414.796H519.249ZM216.234 245.699L289.239 159.434C290.092 160.215 291.1 160.722 292.179 160.878L282.073 341.523C281.22 341.523 280.351 341.738 279.533 342.187C279.359 342.284 279.203 342.421 279.029 342.538L239.838 282.102L216.234 245.699ZM373.691 171.92C374.143 172.954 374.804 173.773 375.587 174.397L284.821 342.265C284.23 341.933 283.603 341.68 282.96 341.582L293.066 160.937C293.918 160.937 294.788 160.722 295.606 160.273C297.276 159.356 298.371 157.659 298.772 155.767L373.134 168.486C373.047 169.637 373.221 170.808 373.691 171.92ZM347.738 227.83L376.352 174.924C377.152 175.373 378.039 175.626 378.961 175.646L386.737 316.651L332.848 332.647L287.743 346.03C287.674 345.776 287.604 345.523 287.5 345.289C287.048 344.255 286.387 343.435 285.604 342.811L347.772 227.869L347.738 227.83ZM422.117 306.136L387.606 316.377L379.848 175.568C380.179 175.509 380.509 175.431 380.84 175.314L381.17 176.231L425.318 298.937C422.883 300.283 421.648 303.268 422.135 306.136H422.117ZM384.475 369.693L288.039 348.937C288.109 348.293 288.074 347.629 287.969 346.966L313.087 339.514L386.771 317.645L388.981 357.813L389.363 364.836C388.754 364.933 388.146 365.109 387.572 365.421C385.971 366.299 384.893 367.879 384.458 369.674L384.475 369.693ZM422.604 307.852C423.039 308.847 423.666 309.628 424.396 310.252L392.999 365.577C392.164 365.07 391.224 364.816 390.285 364.797L387.676 317.411L422.361 307.111C422.431 307.365 422.5 307.618 422.604 307.852ZM384.98 168.584L433.859 161.132L427.788 298.274C427.231 298.274 426.692 298.41 426.136 298.606L382.701 177.87L381.657 174.982C383.866 173.753 385.101 171.198 384.962 168.603L384.98 168.584ZM429.754 311.247L478.372 446.36C477.694 446.731 477.137 447.238 476.65 447.823L442.087 417.02L395.103 375.155C396.251 373.244 396.512 370.727 395.556 368.503C395.121 367.508 394.495 366.728 393.764 366.104L425.161 310.779C426.553 311.617 428.188 311.793 429.754 311.247ZM544.037 443.629L596.743 435.923C596.847 436.45 596.986 436.977 597.195 437.503C598.378 440.215 600.987 441.6 603.527 441.132L619.13 512.161C618.869 512.259 618.608 512.337 618.365 512.473C617.164 513.137 616.26 514.19 615.703 515.439L486.634 454.476C486.878 453.676 486.982 452.837 486.947 451.998L544.037 443.649V443.629ZM497.297 575.329L482.286 458.826C482.738 458.709 483.173 458.553 483.608 458.319C484.808 457.655 485.712 456.602 486.269 455.353L581.122 500.164L615.338 516.336C614.92 517.74 614.938 519.301 615.425 520.764L502.881 578.742C501.733 576.421 499.541 575.153 497.297 575.309V575.329ZM233.594 144.608L287.082 153.758C286.995 154.909 287.169 156.079 287.639 157.191C287.9 157.776 288.23 158.264 288.596 158.732L215.694 244.88L143.176 133.059C144.167 132.123 144.828 130.855 145.107 129.489L233.594 144.628V144.608ZM450.54 266.027L474.475 223.87C475.241 224.319 476.076 224.572 476.928 224.631L480.407 445.716C479.99 445.755 479.572 445.853 479.155 446.009L430.536 310.896C433.476 309.276 434.694 305.297 433.25 302C432.815 301.005 432.189 300.225 431.458 299.6L450.523 266.027H450.54ZM567.189 413.294L597.126 431.807C596.725 432.783 596.517 433.855 596.569 434.928L542.837 442.79L486.774 450.984C486.669 450.457 486.53 449.93 486.321 449.403C486.165 449.033 485.973 448.701 485.765 448.389L519.91 415.459L535.531 400.399C537.27 402.35 539.984 402.974 542.332 401.706C543.324 401.16 544.106 400.321 544.681 399.346L567.207 413.294H567.189ZM607.458 438.206L679.472 482.762C678.828 484.323 678.741 486.137 679.315 487.835L626.123 515.243C624.888 512.727 622.4 511.459 619.965 511.908L604.362 440.878C604.623 440.781 604.884 440.703 605.127 440.566C606.119 440.02 606.901 439.181 607.475 438.206H607.458ZM717.845 425.994L730.073 403.579C730.682 403.93 731.326 404.164 732.004 404.281L729.291 458.982L724.855 548.388L688.622 490.683C690.692 488.771 691.422 485.454 690.187 482.626C689.735 481.592 689.074 480.792 688.309 480.168L717.845 426.013V425.994ZM626.349 578.235L503.577 581.337C503.525 580.771 503.403 580.225 503.229 579.679L585.958 537.054L615.773 521.681C617.008 524.198 619.495 525.466 621.93 525.017L632.472 573.007C631.497 572.949 630.489 573.124 629.532 573.651C627.827 574.587 626.731 576.323 626.349 578.235ZM401.366 444.487L391.572 377.887C391.972 377.77 392.39 377.613 392.773 377.399C393.451 377.028 394.025 376.521 394.512 375.916L459.881 434.187L461.638 435.748L476.041 448.584C475.554 449.403 475.206 450.301 475.084 451.276L401.348 444.468L401.366 444.487ZM400.444 444.409L273.793 432.724L384.997 374.668C386.163 377.009 388.406 378.277 390.685 378.043L400.444 444.409ZM272.627 432.236L281.777 354.809C282.768 354.867 283.777 354.691 284.717 354.165C286.317 353.287 287.395 351.707 287.83 349.912L384.267 370.669C384.162 371.703 384.267 372.756 384.632 373.77L272.627 432.256V432.236ZM338.24 90.7267L375.674 163.512C374.404 164.468 373.569 165.911 373.238 167.511L298.876 154.791C298.963 153.641 298.789 152.47 298.319 151.358C297.78 150.109 296.945 149.154 295.954 148.51L328.69 72.1745L338.24 90.7462V90.7267ZM545.602 396.283L593.734 396.771L600.657 428.276C600.396 428.374 600.135 428.452 599.891 428.588C598.9 429.135 598.117 429.973 597.543 430.949L545.081 398.487C545.359 397.785 545.55 397.044 545.602 396.283ZM594.655 396.771L628.784 397.122L681.09 480.402C680.62 480.831 680.22 481.338 679.907 481.904L607.893 437.347C608.606 435.592 608.658 433.524 607.858 431.671C606.675 428.959 604.066 427.574 601.526 428.042L594.655 396.79V396.771ZM594.429 395.776L577.243 317.567C577.504 317.47 577.765 317.392 578.009 317.255C578.165 317.177 578.287 317.06 578.426 316.963L628.14 396.127L594.429 395.795V395.776ZM795.703 632.624L821.1 527.085L848.862 567.486C846.931 569.418 846.287 572.617 847.47 575.348C847.696 575.875 847.992 576.343 848.323 576.772L797.599 633.853C797.043 633.307 796.399 632.897 795.703 632.624ZM898.228 596.417L933.313 614.52C932.774 616.179 932.791 618.051 933.539 619.768C934.078 620.997 934.913 621.972 935.905 622.616L896.001 715.26C894.905 714.773 893.705 714.656 892.505 714.948L856.411 583.815L854.985 578.625C855.124 578.567 855.28 578.528 855.42 578.45C856.568 577.826 857.437 576.85 858.011 575.68L898.228 596.417ZM888.33 723.883L758.374 795.01C757.661 793.644 756.565 792.63 755.313 792.123L792.555 645.441C793.79 645.733 795.129 645.597 796.347 644.934C797.095 644.524 797.739 643.958 798.243 643.275L888.8 717.933C887.826 719.689 887.617 721.893 888.33 723.903V723.883ZM637.446 727.531L574.391 689.295C574.86 688.105 575.017 686.798 574.825 685.491L608.815 676.127L714.922 646.884C715.009 647.177 715.079 647.47 715.201 647.743C716.384 650.454 718.958 651.82 721.48 651.371L751.451 792.025C751.19 792.123 750.912 792.22 750.651 792.357C749.642 792.903 748.842 793.761 748.268 794.756L637.429 727.531H637.446ZM574.321 683.657C573.921 682.721 573.33 681.98 572.651 681.375L612.711 614.95L714.679 643.685C714.575 644.407 714.575 645.168 714.679 645.909L645.883 664.851L574.582 684.496C574.495 684.203 574.425 683.911 574.304 683.638L574.321 683.657ZM613.25 614.072L630.21 585.98C631.654 586.526 633.272 586.468 634.75 585.668C636.194 584.868 637.22 583.502 637.725 581.922L654.458 594.759L715.392 641.5C715.183 641.89 715.027 642.3 714.905 642.729L613.268 614.072H613.25ZM612.329 613.818L503.507 583.151C503.542 582.898 503.559 582.625 503.577 582.371L626.227 579.289C626.175 580.401 626.331 581.532 626.801 582.605C627.375 583.932 628.314 584.927 629.393 585.57L612.346 613.838L612.329 613.818ZM403.609 499.93L274.576 433.836L400.6 445.463L408.306 497.803C407.332 497.745 406.34 497.92 405.401 498.447C404.705 498.818 404.114 499.344 403.627 499.949L403.609 499.93ZM215.051 245.621L199.169 264.388L142.324 133.723C142.324 133.723 142.411 133.664 142.445 133.645L170.12 176.328L215.068 245.621H215.051ZM206.284 82.3968L287.969 150.714C287.604 151.358 287.361 152.06 287.204 152.782L145.246 128.495C145.333 127.344 145.159 126.173 144.689 125.061C144.672 125.022 144.637 124.983 144.62 124.944L206.301 82.3968H206.284ZM207.101 81.831L265.391 41.6247C266.696 43.6341 268.87 44.629 271.027 44.2973L291.274 147.925C290.961 148.022 290.666 148.139 290.37 148.295C289.622 148.705 288.996 149.251 288.491 149.914L207.119 81.8505L207.101 81.831ZM275.55 34.7969C275.55 34.7969 275.497 34.7189 275.48 34.6798L295.867 20.6145C296.841 22.1166 298.285 23.0725 299.85 23.3261L292.892 147.651C292.649 147.651 292.388 147.691 292.144 147.73L271.897 44.1023C272.21 44.0047 272.506 43.8877 272.801 43.7316C275.758 42.1124 276.976 38.1133 275.532 34.8164L275.55 34.7969ZM306.46 18.0979L348.12 24.5356L328.621 70.0091L318.497 50.3058L304.025 22.1751C305.312 21.1997 306.164 19.7171 306.477 18.0784L306.46 18.0979ZM440.625 44.746L463.76 155.572L434.763 160L439.86 44.8436C440.121 44.8436 440.364 44.785 440.625 44.746ZM463.969 156.547L475.484 211.677C475.206 211.775 474.928 211.872 474.649 212.028C471.692 213.648 470.475 217.627 471.918 220.944C472.353 221.939 472.98 222.719 473.71 223.343L430.71 299.074C430.067 298.684 429.371 298.43 428.64 298.332L434.711 161.015L463.952 156.547H463.969ZM481.486 222.68L545.916 283.877L539.653 389.065C539.079 389.065 538.523 389.162 537.949 389.357L518.414 333.759L479.85 224.006H479.868C480.494 223.655 481.016 223.187 481.486 222.66V222.68ZM545.046 392.81C544.507 391.562 543.654 390.586 542.645 389.943L573.277 317.47C574.252 317.899 575.33 318.016 576.391 317.802L593.525 395.776L545.637 395.288C545.585 394.449 545.394 393.61 545.046 392.81ZM629.88 397.141L726.838 398.117C726.89 398.955 727.081 399.794 727.429 400.594C727.882 401.628 728.543 402.428 729.308 403.052L687.543 479.622C685.943 478.705 683.977 478.588 682.238 479.544C682.081 479.622 681.959 479.739 681.82 479.836L629.88 397.122V397.141ZM736.022 403.228L820.421 526.09L794.834 632.37C794.086 632.214 793.303 632.214 792.538 632.37L769.559 541.404L734.805 403.871C734.996 403.793 735.187 403.735 735.379 403.637C735.605 403.52 735.814 403.345 736.022 403.189V403.228ZM858.69 571.602L916.892 558.259L936.218 610.892C935.105 611.516 934.252 612.472 933.696 613.623L905.377 599.011L858.377 574.763C858.707 573.768 858.812 572.695 858.69 571.602ZM944.22 613.916C943.68 612.687 942.845 611.711 941.854 611.067L967.354 551.86C968.676 552.445 970.155 552.484 971.564 551.899L1011.21 649.791C1010.2 650.415 1009.4 651.313 1008.86 652.386L944.428 619.144C944.967 617.486 944.95 615.613 944.202 613.896L944.22 613.916ZM573.016 691.421C573.364 691.051 573.678 690.641 573.938 690.193L666.374 746.259L747.833 795.654C747.207 797.253 747.12 799.087 747.746 800.823L684.064 835.665C682.516 832.68 679.159 831.49 676.341 833.031C676.063 833.187 675.819 833.363 675.576 833.558L573.016 691.421ZM501.594 586.975C502.377 586.195 502.968 585.219 503.281 584.127L611.789 614.716L571.903 680.809C570.251 679.756 568.181 679.6 566.337 680.594C566.111 680.712 565.919 680.887 565.711 681.024L501.576 586.955L501.594 586.975ZM425.596 572.402C425.631 571.349 425.475 570.256 425.022 569.242C424.553 568.15 423.839 567.311 423.005 566.667L478.407 458.377C479.329 458.865 480.337 459.118 481.364 459.04L496.375 575.543C495.923 575.66 495.488 575.816 495.053 576.05C493.297 577.006 492.183 578.801 491.835 580.81L425.596 572.422V572.402ZM328.812 560.151L402.948 507.928C404.462 510.679 407.488 511.81 410.167 510.62L418.273 565.692C417.873 565.809 417.456 565.965 417.073 566.179C415.316 567.135 414.203 568.93 413.855 570.939L328.812 560.171V560.151ZM345.041 547.529L327.682 559.761L273.027 434.148L403.07 500.768C401.992 502.583 401.748 504.924 402.548 507.031L345.059 547.529H345.041ZM199.587 265.364L215.59 246.46L278.281 343.143C276.263 345.074 275.55 348.332 276.767 351.141C277.602 353.072 279.168 354.301 280.89 354.711L271.827 431.397L199.587 265.364ZM102.368 41.9174L130.86 26.3108C131.904 28.3202 133.765 29.5102 135.731 29.5882L138.653 121.374C138.131 121.433 137.627 121.589 137.123 121.803L102.351 41.8783L102.368 41.9174ZM254.311 -41.2264L268.487 31.3634C268.174 31.461 267.879 31.578 267.583 31.7341C264.626 33.3533 263.408 37.3524 264.852 40.6493C264.869 40.6883 264.904 40.7274 264.921 40.7664L206.336 81.1872L140.984 26.5254C141.976 24.7697 142.202 22.5458 141.471 20.5169L254.311 -41.2264ZM280.403 -55.5063L270.505 31.0903C270.122 31.0708 269.757 31.0903 269.375 31.1488L255.146 -41.6946L280.403 -55.5258V-55.5063ZM281.133 -53.9847L298.528 10.5092C298.371 10.5678 298.215 10.6263 298.058 10.7043C295.101 12.3235 293.884 16.3032 295.327 19.6195C295.345 19.6586 295.38 19.6976 295.397 19.7366L275.01 33.802C274.123 32.4169 272.819 31.5195 271.392 31.1879L281.133 -54.0237V-53.9847ZM409.593 -126.223C409.837 -125.736 410.15 -125.306 410.48 -124.916L311.87 1.57451L304.216 11.3871C302.842 10.2361 301.085 9.78745 299.38 10.2166L281.481 -56.0916L409.593 -126.223ZM348.52 23.5797L306.582 17.103C306.651 15.991 306.477 14.84 306.025 13.7671C305.729 13.1038 305.347 12.5381 304.894 12.0309L352.139 -48.5614L411.159 -124.273C411.35 -124.116 411.524 -123.941 411.733 -123.804L348.52 23.5797ZM433.807 37.7816C433.737 38.8936 433.911 40.0446 434.363 41.1175C434.868 42.288 435.651 43.2049 436.572 43.8487L430.484 56.9581L390.929 142.189L381.309 162.907C379.779 162.185 378.004 162.146 376.404 163.004L329.125 71.082L349.025 24.6917L433.789 37.8011L433.807 37.7816ZM549.899 138.424C549.151 139.634 548.768 141.097 548.838 142.599L464.647 155.435L441.495 44.5314C441.773 44.4339 442.052 44.3364 442.33 44.1803C442.991 43.8096 443.565 43.3219 444.052 42.7367L549.916 138.424H549.899ZM545.968 282.628L482.042 221.899C483.295 219.968 483.59 217.374 482.599 215.072C482.425 214.681 482.234 214.33 482.007 213.999L550.612 146.91C551.517 147.925 552.682 148.588 553.935 148.783L545.968 282.628ZM570.599 307.345C569.346 309.276 569.05 311.871 570.042 314.173C570.581 315.422 571.434 316.397 572.442 317.041L541.81 389.513C541.393 389.338 540.958 389.182 540.523 389.123L546.733 284.696L570.581 307.365L570.599 307.345ZM727.255 395.19C727.047 395.795 726.907 396.439 726.855 397.102L629.236 396.127L579.157 316.377C579.696 315.87 580.166 315.285 580.514 314.622L727.255 395.21V395.19ZM848.549 387.777C848.636 388.421 848.792 389.065 849.053 389.669C849.766 391.308 851.001 392.459 852.428 393.025L842.53 434.168L820.7 524.861L736.718 402.603C737.988 401.316 738.701 399.521 738.684 397.629L848.549 387.777ZM916.527 557.284L858.498 570.588C858.411 570.217 858.29 569.847 858.133 569.476C857.176 567.291 855.298 565.965 853.297 565.789L854.028 481.728L854.793 393.396C855.28 393.357 855.767 393.24 856.237 393.064L916.527 557.284ZM963.806 547.451C963.893 547.822 964.015 548.193 964.171 548.563C964.71 549.792 965.545 550.768 966.537 551.412L941.036 610.619C939.784 610.073 938.375 609.995 937.036 610.482L917.78 558.005L963.823 547.451H963.806Z" fill="#F2B243" fill-opacity="0.95"/>
<path d="M630.663 532.196L693.614 587.482C692.257 589.765 692.657 592.847 694.606 594.564C696.554 596.28 699.32 595.968 700.972 593.939L777.004 660.716C775.647 662.998 776.048 666.081 777.996 667.797C779.944 669.514 782.71 669.202 784.362 667.173L874.484 746.318C873.127 748.6 873.527 751.682 875.476 753.399C877.424 755.116 880.19 754.804 881.842 752.775L926.007 791.557C924.65 793.839 925.051 796.922 926.999 798.638C929.051 800.433 932.009 800.023 933.609 797.741C934.913 795.868 934.896 793.352 933.765 791.498L1034.12 700.473C1034.27 700.668 1034.43 700.864 1034.62 701.02C1036.67 702.814 1039.63 702.405 1041.23 700.122C1042.55 698.21 1042.52 695.616 1041.3 693.763L1104.81 632.839C1104.95 632.995 1105.07 633.151 1105.22 633.287C1107.28 635.082 1110.23 634.672 1111.83 632.39C1112.32 631.688 1112.62 630.868 1112.74 630.049L1165.25 635.843C1165.22 637.443 1165.83 639.062 1167.05 640.115C1169.1 641.91 1172.06 641.5 1173.66 639.218C1174.14 638.516 1174.44 637.696 1174.56 636.877L1242.87 644.407L1243.06 644.622L1243.18 644.446L1244 644.544L1243.5 643.997L1304.26 556.971L1304.76 556.25L1305 556.445V556.133L1305.98 556.269L1305.19 555.606L1305.58 555.06L1385.92 439.981L1449.81 348.468C1451.85 349.99 1454.6 349.541 1456.13 347.356C1457.66 345.172 1457.38 342.07 1455.57 340.216L1494.71 284.17L1474.39 266.32C1475.75 264.037 1475.35 260.955 1473.4 259.238C1471.45 257.521 1468.69 257.834 1467.03 259.862L1388.65 191.018L1388.08 190.511L1370.42 175.002L1369.68 174.339L1281.12 96.5597C1282.48 94.2773 1282.08 91.195 1280.13 89.4783C1278.08 87.6835 1275.12 88.0932 1273.52 90.3756C1271.92 92.6581 1272.28 95.994 1274.32 97.7887C1275.4 98.7446 1276.72 99.0568 1277.99 98.8227L1305.14 224.397L1237.82 218.837C1237.82 217.276 1237.22 215.735 1236.03 214.682C1233.98 212.887 1231.02 213.296 1229.42 215.579C1228.34 217.14 1228.17 219.149 1228.8 220.846L1132.74 275.293C1132.45 274.767 1132.08 274.259 1131.63 273.85C1129.58 272.055 1126.62 272.465 1125.02 274.747C1123.42 277.03 1123.79 280.365 1125.82 282.16C1126.39 282.667 1127.04 282.98 1127.7 283.136L1114.06 388.811L1091.8 402.213C1091.52 401.726 1091.17 401.257 1090.75 400.887C1088.7 399.092 1085.74 399.502 1084.14 401.784C1083.29 403.013 1083.01 404.515 1083.22 405.92L957.753 441.093C957.474 440.137 956.953 439.259 956.187 438.596C954.135 436.801 951.177 437.211 949.577 439.493C949.281 439.923 949.073 440.391 948.916 440.878L865.317 412.884C865.683 410.973 865.108 408.905 863.63 407.598C861.577 405.803 858.62 406.212 857.02 408.495C855.437 410.777 855.785 414.055 857.785 415.869L786.832 531.943L752.6 515.166C753.243 513.098 752.704 510.698 751.069 509.274C749.016 507.479 746.059 507.889 744.459 510.171C743.711 511.244 743.415 512.532 743.485 513.78L630.645 532.099L630.663 532.196ZM743.606 514.678C743.815 515.751 744.32 516.746 745.12 517.526L699.998 585.961C698.085 584.615 695.58 584.985 694.049 586.858L632.402 532.723L743.606 514.678ZM1133 280.229L1196.23 305.746L1179.22 346.225C1177.83 345.62 1176.28 345.815 1175.03 346.693L1131.8 282.024C1132.03 281.809 1132.22 281.575 1132.41 281.302C1132.66 280.951 1132.83 280.58 1132.99 280.19L1133 280.229ZM1467.61 267.568C1468.04 267.958 1468.53 268.212 1469.04 268.407L1453.24 338.929C1451.85 338.656 1450.39 339.104 1449.29 340.197L1408.01 296.031L1466.39 265.968C1466.69 266.573 1467.09 267.119 1467.61 267.568ZM1168.85 630.849L1141.93 536.761C1142.41 536.546 1142.87 536.234 1143.28 535.844L1185.66 582.02C1185.54 582.156 1185.4 582.293 1185.28 582.449C1183.76 584.634 1184.02 587.716 1185.8 589.57L1171.32 630.927C1170.51 630.654 1169.65 630.634 1168.85 630.849ZM702.155 589.648L756.931 575.855C757.209 576.85 757.731 577.787 758.531 578.469C759.61 579.425 760.949 579.737 762.201 579.503L779.44 658.609C778.692 658.882 777.996 659.389 777.439 660.091L701.407 593.315C702.068 592.203 702.329 590.896 702.155 589.628V589.648ZM860.621 417.137L865.787 525.68L837.938 552.211C837.799 552.055 837.66 551.88 837.503 551.743C836.999 551.314 836.459 551.002 835.885 550.826L860.134 417.098C860.29 417.118 860.447 417.137 860.621 417.137ZM1186.18 581.493L1143.77 535.259C1143.77 535.259 1143.84 535.181 1143.88 535.142C1144.35 534.479 1144.62 533.718 1144.76 532.957L1202.67 541.326L1188.98 580.459C1187.99 580.459 1187 580.81 1186.18 581.493ZM1234.03 224.065L1247.53 278.824L1254.91 308.769L1259.27 326.483C1258.47 326.814 1257.72 327.38 1257.15 328.18C1256.91 328.531 1256.73 328.902 1256.58 329.292L1219.7 314.407L1232.75 224.182C1233.18 224.221 1233.62 224.182 1234.05 224.084L1234.03 224.065ZM1342.91 233.175L1329.96 330.716C1329.6 330.677 1329.23 330.716 1328.87 330.794L1314.66 265.091L1341.06 232.239C1341.62 232.727 1342.25 233.039 1342.91 233.195V233.175ZM880.068 744.347C879.529 744.113 878.972 743.996 878.415 743.996L871.214 623.533C872.379 623.338 873.475 622.694 874.258 621.563C874.571 621.134 874.78 620.646 874.936 620.139L920.215 634.867L921.746 635.355C921.398 637.267 921.972 639.315 923.433 640.583C923.607 640.739 923.816 640.857 924.007 640.993L912.718 667.563L880.085 744.328L880.068 744.347ZM783.806 659.487C783.701 659.389 783.597 659.35 783.493 659.272L789.807 646.611L832.633 560.698C833.989 561.4 835.572 561.341 836.859 560.561L853.437 589.336L867.735 614.15C867.422 614.423 867.126 614.716 866.865 615.086C865.822 616.569 865.63 618.481 866.152 620.139L785.058 661.145C784.762 660.521 784.345 659.974 783.823 659.506L783.806 659.487ZM974.243 523.632C974.347 523.73 974.417 523.847 974.521 523.944C975.739 525.017 977.27 525.29 978.644 524.861L1001.64 598.134C1001.27 598.426 1000.94 598.738 1000.67 599.148C1000.63 599.207 1000.61 599.265 1000.58 599.304L937.297 561.966L974.243 523.613V523.632ZM951.404 447.706C951.665 447.843 951.925 447.94 952.204 448.018L937.697 552.27L936.357 561.907L936.079 562.2L936.305 562.336L936.183 563.175L926.703 631.239C925.19 631.102 923.642 631.805 922.615 633.248C922.302 633.678 922.094 634.165 921.937 634.672L920.232 634.107L875.128 619.437C875.476 617.525 874.902 615.476 873.441 614.208C873.319 614.091 873.162 614.013 873.04 613.916L926.094 501.412L951.404 447.745V447.706ZM929.225 632.312C928.669 631.824 928.043 631.512 927.399 631.337L936.949 562.687L1000.18 599.987C999.848 600.709 999.691 601.489 999.674 602.269L930.513 634.107C930.217 633.424 929.782 632.8 929.225 632.312ZM1002.25 597.704L979.287 524.588C979.913 524.276 980.47 523.827 980.94 523.222L1018.08 554.299C1016.79 556.562 1017.21 559.586 1019.12 561.263C1019.3 561.419 1019.49 561.536 1019.66 561.653L1004.3 597.139C1003.59 597.139 1002.87 597.334 1002.23 597.685L1002.25 597.704ZM1106.15 481.104C1106.36 480.89 1106.56 480.675 1106.74 480.421C1108.34 478.12 1107.97 474.803 1105.94 473.008L1175.27 355.764C1175.57 355.94 1175.86 356.096 1176.16 356.194L1140.88 526.695C1139.75 526.5 1138.59 526.773 1137.61 527.475L1116.08 495.716L1106.16 481.104H1106.15ZM1351.92 444.8L1312.67 484.323C1312.57 484.206 1312.47 484.07 1312.34 483.953C1311.77 483.445 1311.14 483.133 1310.48 482.977L1329.29 341.25C1330.14 341.328 1331.01 341.114 1331.77 340.665L1375.57 420.98L1351.93 444.78L1351.92 444.8ZM1265.48 332.14L1324.94 336.081C1324.95 337.622 1325.56 339.124 1326.73 340.158C1327.3 340.665 1327.93 340.977 1328.59 341.133L1309.79 482.86C1309.26 482.821 1308.74 482.899 1308.24 483.036L1262.7 336.256C1263.4 335.925 1264.04 335.417 1264.54 334.696C1265.08 333.935 1265.38 333.037 1265.48 332.14ZM1307.58 483.289C1306.88 483.621 1306.24 484.128 1305.73 484.85C1305.61 485.025 1305.52 485.201 1305.44 485.377L1272.49 466.668L1233.13 444.292L1259.92 336.568C1260.63 336.725 1261.34 336.705 1262.04 336.49L1276.39 382.764L1307.56 483.27L1307.58 483.289ZM1205.87 423.458L1258.12 336.646L1258.51 336.003C1258.75 336.159 1258.98 336.276 1259.24 336.373L1232.48 443.941L1207.28 429.622C1208.06 427.496 1207.56 424.96 1205.87 423.458ZM1225.28 481.924C1224.88 481.573 1224.43 481.319 1223.98 481.143L1225.32 475.779L1232.95 445.092L1286.77 475.681L1305.12 486.118C1304.95 486.606 1304.83 487.113 1304.78 487.62L1227.06 485.806C1226.99 484.343 1226.4 482.919 1225.28 481.943V481.924ZM1206.97 430.325L1232.31 444.722L1223.3 480.929C1222.55 480.773 1221.8 480.792 1221.07 481.026L1204.91 432.373C1205.58 432.041 1206.18 431.534 1206.65 430.851C1206.78 430.676 1206.86 430.5 1206.95 430.325H1206.97ZM1257.93 335.574L1256.7 337.622L1205.28 423.029C1204.88 422.775 1204.48 422.58 1204.06 422.482L1219.58 315.188L1256.32 330.014C1255.83 332.004 1256.4 334.208 1257.93 335.574ZM1204.25 432.666L1220.41 481.319C1219.75 481.651 1219.14 482.158 1218.67 482.841C1217.59 484.382 1217.42 486.371 1218.03 488.069L1175.48 511.771L1144.19 529.211C1143.91 528.665 1143.53 528.177 1143.08 527.768L1200.62 432.178C1201.75 432.9 1203.05 433.056 1204.25 432.666ZM1135.61 530.518C1135.46 531.162 1135.42 531.845 1135.49 532.489L1026.58 555.762C1026.32 554.689 1025.78 553.714 1024.95 552.972C1024.77 552.816 1024.58 552.699 1024.41 552.582L1046.97 500.476C1048.87 501.315 1051.08 500.729 1052.4 498.837C1052.64 498.486 1052.83 498.096 1052.99 497.706L1092.65 513.449L1135.61 530.499V530.518ZM1104.58 625.718L1026.01 559.956C1026.6 558.903 1026.84 557.713 1026.72 556.542L1055.6 550.378L1135.63 533.269C1135.89 534.342 1136.43 535.317 1137.27 536.059C1137.56 536.312 1137.89 536.527 1138.22 536.683L1109.43 624.08C1107.73 623.533 1105.83 624.118 1104.6 625.699L1104.58 625.718ZM1447.74 344.216C1447.74 345.328 1448.09 346.42 1448.72 347.337L1376.1 420.453L1332.35 340.255C1332.7 339.963 1333.03 339.651 1333.32 339.241C1333.86 338.48 1334.16 337.583 1334.26 336.685L1377.02 339.514L1447.74 344.196V344.216ZM1200.98 422.833C1200.32 423.165 1199.71 423.672 1199.24 424.355C1197.64 426.638 1198.01 429.954 1200.03 431.749L1142.48 527.339C1142.19 527.144 1141.88 526.987 1141.56 526.89L1176.84 356.389C1177.52 356.506 1178.2 356.467 1178.86 356.252L1191.17 393.318L1200.98 422.853V422.833ZM1098.67 479.075C1098.96 479.934 1099.45 480.734 1100.15 481.338C1101.76 482.762 1103.96 482.782 1105.59 481.592L1115.45 496.145L1137.04 527.963C1136.83 528.177 1136.62 528.392 1136.45 528.646C1136.2 528.997 1136.01 529.387 1135.86 529.777L1093.66 513.039L1053.23 497.003C1053.44 496.165 1053.42 495.306 1053.27 494.487L1079.17 485.689L1098.67 479.075ZM1045.79 499.774C1045.96 499.93 1046.15 500.047 1046.33 500.164L1023.77 552.27C1021.96 551.47 1019.83 551.997 1018.51 553.694L981.375 522.618C982.053 521.408 982.262 519.984 982.001 518.657L1044.31 497.511C1044.6 498.369 1045.09 499.169 1045.79 499.774ZM975.547 514.99C974.852 515.322 974.225 515.829 973.721 516.551C972.347 518.521 972.434 521.213 973.756 523.086L937.192 561.049L946.933 491.014L952.9 448.175C953.439 448.214 953.978 448.155 954.5 447.999L960.658 467.624L975.53 515.009L975.547 514.99ZM1007.28 598.27C1006.61 597.685 1005.87 597.373 1005.1 597.236L1020.34 562.044C1022.15 562.843 1024.27 562.317 1025.59 560.62L1046.41 578.04L1104.16 626.362C1103.94 626.752 1103.76 627.162 1103.64 627.571L1009.05 602.425C1009.05 600.865 1008.44 599.324 1007.26 598.29L1007.28 598.27ZM1144.85 532.177C1144.88 531.396 1144.76 530.635 1144.5 529.914L1157.55 522.637L1159.13 521.759L1218.33 488.771C1218.62 489.317 1218.99 489.824 1219.46 490.234C1219.73 490.468 1220.01 490.663 1220.33 490.819L1202.93 540.565L1144.85 532.157V532.177ZM1220.99 491.112C1222.71 491.717 1224.64 491.151 1225.89 489.551L1303.42 555.118L1203.64 540.682L1220.99 491.112ZM1226.31 488.908C1226.73 488.186 1226.97 487.386 1227.04 486.567L1304.76 488.381C1304.83 489.844 1305.42 491.268 1306.53 492.243C1307.19 492.829 1307.94 493.141 1308.73 493.277L1304.39 554.923L1226.31 488.888V488.908ZM1314.07 265.793L1328.16 330.97C1327.29 331.282 1326.5 331.886 1325.89 332.745C1325.35 333.506 1325.06 334.403 1324.95 335.3L1265.5 331.36C1265.48 330.072 1265.05 328.804 1264.21 327.809L1303.92 278.415L1314.07 265.812V265.793ZM1098.44 478.295L1053.04 493.707C1052.75 492.848 1052.26 492.048 1051.56 491.444C1051.39 491.288 1051.2 491.171 1051.02 491.053L1061.03 467.936L1098.35 476.481C1098.28 477.086 1098.32 477.69 1098.44 478.276V478.295ZM1050.4 490.702C1048.5 489.863 1046.29 490.449 1044.97 492.341C1044.07 493.629 1043.8 495.248 1044.1 496.73L981.792 517.877C981.618 517.389 981.392 516.921 981.096 516.492L1033.85 461.713L1060.33 467.78L1050.4 490.702ZM1034.48 461.05L1084.63 408.983C1084.73 409.08 1084.8 409.197 1084.91 409.295C1085.08 409.451 1085.27 409.568 1085.45 409.685L1060.61 467.058L1034.46 461.069L1034.48 461.05ZM868.274 613.662L837.416 560.073C837.729 559.8 838.025 559.508 838.286 559.137C839.608 557.245 839.573 554.65 838.373 552.797L865.804 526.656L869.909 613.057C869.335 613.135 868.779 613.35 868.257 613.662H868.274ZM830.076 557.42C830.354 558.415 830.876 559.352 831.676 560.034C831.78 560.132 831.885 560.171 831.989 560.249L830.128 563.994L782.866 658.823C781.997 658.375 781.04 658.238 780.118 658.414L762.88 579.308C763.732 578.996 764.532 578.411 765.124 577.553C765.959 576.363 766.254 574.919 766.063 573.534L795.895 566.023L830.093 557.42H830.076ZM785.284 661.828L866.378 620.822C866.674 621.446 867.092 621.992 867.613 622.46C868.466 623.202 869.475 623.553 870.483 623.553L877.685 744.016C876.641 744.191 875.65 744.757 874.884 745.693L784.762 666.549C785.615 665.105 785.771 663.369 785.284 661.828ZM882.747 747.371C882.451 746.493 881.964 745.693 881.251 745.069C881.077 744.913 880.868 744.796 880.677 744.659L924.616 641.344C926.494 642.164 928.704 641.578 930.008 639.706C930.147 639.51 930.252 639.296 930.356 639.101L1008.2 681.394L1033.12 694.933C1032.78 695.909 1032.71 696.962 1032.9 697.957L978.452 715.865L882.747 747.352V747.371ZM1033.44 694.211L981.131 665.788L930.669 638.359C930.861 637.794 930.982 637.228 931 636.643L1014.18 633.287L1035.4 692.124C1034.79 692.456 1034.22 692.943 1033.78 693.587C1033.65 693.782 1033.54 693.997 1033.44 694.192V694.211ZM930.982 635.843C930.947 635.492 930.878 635.141 930.791 634.789L984.854 609.917L999.691 603.089C999.848 604.396 1000.44 605.644 1001.45 606.542C1002.47 607.439 1003.71 607.79 1004.91 607.634L1013.89 632.526L930.982 635.862V635.843ZM1005.61 607.439C1006.54 607.146 1007.41 606.542 1008.06 605.625C1008.58 604.883 1008.88 604.025 1008.98 603.167L1103.47 628.293C1103.43 628.508 1103.42 628.703 1103.4 628.918L1014.63 632.487L1005.61 607.459V607.439ZM1191.85 581.513C1191.21 580.947 1190.46 580.615 1189.69 580.479L1203.37 541.384L1302.64 555.742L1193 582.995C1192.7 582.43 1192.32 581.922 1191.85 581.513ZM1421.46 375.76L1449.17 347.844C1449.17 347.844 1449.22 347.903 1449.26 347.922L1385.99 438.538L1376.46 421.058L1421.46 375.741V375.76ZM1448.79 340.724C1448.79 340.724 1448.74 340.782 1448.72 340.802C1448.18 341.563 1447.88 342.46 1447.78 343.357L1334.3 335.847C1334.3 335.242 1334.19 334.657 1334.02 334.11L1407.32 296.362L1448.81 340.743L1448.79 340.724ZM1333.72 333.369C1333.43 332.764 1333.03 332.218 1332.5 331.769C1332.3 331.594 1332.09 331.438 1331.86 331.301L1362.81 254.829C1364.42 255.493 1366.25 255.122 1367.55 253.815L1406.76 295.757L1333.74 333.369H1333.72ZM1361.5 254.068C1361.71 254.244 1361.92 254.4 1362.14 254.537L1331.2 331.009C1331.01 330.931 1330.82 330.853 1330.63 330.814L1343.57 233.273C1344.82 233.37 1346.09 232.902 1347.05 231.927L1360.75 246.597C1360.75 246.597 1360.7 246.655 1360.68 246.675C1359.08 248.977 1359.45 252.293 1361.48 254.088L1361.5 254.068ZM1340.52 231.615L1325.16 250.713L1314.41 264.076L1306.01 225.255L1339.22 227.986C1339.22 229.313 1339.65 230.6 1340.51 231.595L1340.52 231.615ZM1232 223.967L1218.97 314.056L1197.17 305.258L1231.42 223.753C1231.61 223.831 1231.81 223.909 1232 223.967ZM1218.85 314.856L1203.31 422.287C1202.74 422.229 1202.17 422.287 1201.61 422.482L1179.48 355.882C1180.14 355.55 1180.75 355.043 1181.22 354.36C1182.82 352.058 1182.46 348.742 1180.42 346.947C1180.23 346.791 1180.04 346.654 1179.83 346.537L1196.86 305.999L1218.85 314.875V314.856ZM1174.61 355.257L1128.59 433.095L1105.28 472.521C1104.88 472.267 1104.44 472.092 1104.01 471.974L1114.67 389.377L1173.57 353.931C1173.85 354.418 1174.2 354.887 1174.61 355.257ZM1098.48 475.662L1061.34 467.156L1086.09 409.978C1086.89 410.329 1087.73 410.426 1088.54 410.29L1101.57 472.072C1100.7 472.384 1099.9 472.969 1099.29 473.847C1098.91 474.413 1098.63 475.018 1098.48 475.662ZM980.575 515.887C980.47 515.79 980.401 515.673 980.296 515.575C979.079 514.502 977.548 514.229 976.174 514.658L955.126 447.648C955.822 447.316 956.448 446.809 956.953 446.087C957.335 445.521 957.613 444.917 957.77 444.273L1032.98 461.499L980.592 515.907L980.575 515.887ZM950.343 446.985C950.464 447.102 950.621 447.18 950.743 447.277L903.568 547.295L872.362 613.448C871.788 613.174 871.197 613.018 870.588 613.018L866.448 525.993L949.89 446.516C950.029 446.672 950.169 446.848 950.325 446.985H950.343ZM829.919 556.62L789.963 566.667L765.889 572.734C765.628 571.759 765.106 570.842 764.341 570.159L787.058 532.996L830.145 554.123C829.884 554.943 829.815 555.781 829.919 556.62ZM756.757 575.036L701.981 588.828C701.737 587.911 701.25 587.053 700.555 586.39L745.676 517.955C746.685 518.658 747.833 518.911 748.929 518.697L759.957 569.262C759.105 569.574 758.305 570.159 757.714 571.017C756.879 572.207 756.583 573.651 756.774 575.036H756.757ZM933.296 790.835C933.139 790.64 932.983 790.445 932.791 790.289C930.843 788.572 928.077 788.884 926.425 790.913L882.26 752.131C882.99 750.902 883.199 749.478 882.955 748.112L953.3 724.976L1033.12 698.718C1033.26 699.108 1033.44 699.498 1033.66 699.849L933.313 790.874L933.296 790.835ZM1040.81 693.119C1040.67 692.963 1040.55 692.807 1040.39 692.67C1039.13 691.558 1037.49 691.285 1036.06 691.792L1014.93 633.229L1103.43 629.659C1103.52 630.556 1103.83 631.434 1104.32 632.175L1040.81 693.099V693.119ZM1112.79 629.21C1112.83 627.61 1112.22 625.991 1111 624.938C1110.7 624.684 1110.37 624.47 1110.04 624.314L1138.83 536.917C1139.61 537.171 1140.43 537.171 1141.21 536.956L1168.14 631.044C1167.41 631.376 1166.73 631.902 1166.19 632.663C1165.71 633.365 1165.41 634.185 1165.29 635.004L1112.77 629.21H1112.79ZM1174.61 636.018C1174.65 634.419 1174.04 632.819 1172.82 631.746C1172.54 631.512 1172.26 631.317 1171.95 631.161L1186.34 590.038C1188.23 591.462 1190.75 591.15 1192.32 589.297L1242.02 643.471L1174.6 636.038L1174.61 636.018ZM1192.79 588.672C1193.73 587.17 1193.87 585.317 1193.31 583.717L1303.8 556.25L1242.97 643.373L1231.34 630.693L1192.79 588.692V588.672ZM1305.12 554.357L1309.4 493.297C1310.81 493.297 1312.19 492.634 1313.13 491.288C1314.48 489.356 1314.41 486.684 1313.13 484.83L1375.9 421.604L1385.51 439.201L1305.11 554.338L1305.12 554.357ZM1455.02 339.69C1454.67 339.417 1454.28 339.222 1453.9 339.065L1469.7 268.544C1471.23 268.836 1472.84 268.27 1473.96 266.905L1493.72 284.267L1455.02 339.69ZM1466.58 260.448C1465.73 261.891 1465.57 263.647 1466.08 265.188L1407.44 295.387L1368.04 253.23C1368.04 253.23 1368.09 253.171 1368.11 253.152C1369.71 250.85 1369.35 247.533 1367.31 245.739C1367.1 245.563 1366.89 245.407 1366.67 245.27L1388.34 191.701L1466.6 260.428L1466.58 260.448ZM1387.77 191.233L1366.02 244.978C1365.75 244.861 1365.45 244.783 1365.15 244.724L1370.25 175.841L1387.77 191.233ZM1364.44 244.666C1363.29 244.666 1362.14 245.114 1361.26 246.012L1347.55 231.341C1347.55 231.341 1347.6 231.283 1347.62 231.263C1349.22 228.962 1348.86 225.645 1346.82 223.85C1346.72 223.753 1346.59 223.694 1346.49 223.616L1369.47 176.914L1364.46 244.685L1364.44 244.666ZM1369.49 175.197L1345.86 223.207C1344.61 222.563 1343.17 222.582 1341.95 223.207L1337.48 214.194L1279.78 98.0033C1280.09 97.7692 1280.39 97.4961 1280.65 97.1645L1369.49 175.178V175.197ZM1278.63 98.6666C1278.81 98.6081 1278.98 98.5105 1279.15 98.413L1313.68 167.96L1341.32 223.636C1340.91 223.948 1340.52 224.299 1340.19 224.767C1339.67 225.509 1339.38 226.367 1339.27 227.245L1305.84 224.494L1278.63 98.6861V98.6666ZM1305.28 225.216L1313.84 264.817L1263.69 327.224C1262.58 326.249 1261.2 325.956 1259.92 326.249L1255.53 308.438L1237.48 235.126L1234.69 223.85C1235.49 223.519 1236.24 222.953 1236.82 222.153C1237.34 221.412 1237.63 220.553 1237.74 219.676L1305.28 225.235V225.216ZM1229.08 221.587C1229.37 222.114 1229.74 222.621 1230.19 223.031C1230.38 223.187 1230.57 223.324 1230.78 223.441L1196.51 305.004L1133.23 279.468C1133.51 278.337 1133.42 277.127 1133.02 276.054L1229.08 221.607V221.587ZM1128.36 283.311C1129.35 283.389 1130.34 283.097 1131.21 282.472L1174.44 347.122C1174.21 347.337 1174 347.571 1173.83 347.844C1172.72 349.424 1172.58 351.512 1173.26 353.228L1114.83 388.402L1128.39 283.311H1128.36ZM1113.9 389.845L1103.33 471.838C1102.98 471.818 1102.62 471.838 1102.27 471.896L1089.24 410.114C1090.11 409.802 1090.91 409.217 1091.52 408.339C1092.63 406.759 1092.77 404.671 1092.09 402.955L1113.9 389.826V389.845ZM1083.34 406.759C1083.52 407.344 1083.78 407.89 1084.13 408.378L1033.61 460.835L957.892 443.493C957.944 442.966 957.944 442.459 957.857 441.951L1083.32 406.778L1083.34 406.759ZM948.655 441.717C948.377 443.18 948.655 444.702 949.455 445.931L866.43 525.017L862.899 450.769L861.299 417.079C862.482 416.903 863.613 416.24 864.395 415.108C864.691 414.679 864.9 414.211 865.074 413.723L948.673 441.717H948.655ZM858.325 416.396C858.672 416.61 859.02 416.805 859.403 416.922L846.966 485.455L835.137 550.651C833.554 550.436 831.902 551.1 830.841 552.621C830.667 552.875 830.528 553.128 830.389 553.401L787.424 532.352L858.307 416.396H858.325ZM786.38 532.703L763.732 569.749C762.758 569.125 761.662 568.91 760.618 569.106L749.59 518.54C750.443 518.228 751.243 517.643 751.834 516.785C752.008 516.531 752.147 516.277 752.286 516.004L786.38 532.723V532.703Z" fill="#F2B243"/>
<path d="M729.534 556.25C729.534 558.493 731.03 560.327 732.961 560.639V593.861H804.14C804.401 595.832 805.914 597.373 807.741 597.373C809.567 597.373 811.08 595.851 811.341 593.861H1069.6L1069.57 595.539L1070.31 594.115L1070.66 594.369V593.861H1179.2L1179.33 595.051L1180 593.861H1180.32L1180.27 593.393L1220.57 522.286C1221.26 522.676 1222.03 522.91 1222.85 522.91C1225.7 522.91 1228 520.316 1228 517.136C1228 515.302 1227.21 513.683 1226.03 512.629L1258 456.231C1258.42 456.426 1258.87 456.543 1259.34 456.543C1261.22 456.543 1262.73 454.846 1262.73 452.739C1262.73 452.681 1262.73 452.642 1262.73 452.603L1354.23 431.924C1354.89 434.265 1356.82 435.982 1359.12 435.982C1361.97 435.982 1364.27 433.387 1364.27 430.207C1364.27 429.973 1364.23 429.739 1364.2 429.525L1503.55 393.532C1504.07 394.995 1505.34 396.029 1506.82 396.029C1508.76 396.029 1510.35 394.254 1510.35 392.069C1510.35 390.099 1509.04 388.46 1507.36 388.167V317.411C1509.95 317.099 1511.97 314.68 1511.97 311.696C1511.97 308.711 1509.95 306.292 1507.36 305.98V165.345C1509.95 165.033 1511.97 162.614 1511.97 159.63C1511.97 156.645 1509.95 154.226 1507.36 153.914V35.2651C1509.95 34.953 1511.97 32.534 1511.97 29.5492C1511.97 26.5645 1509.95 24.1455 1507.36 23.8333V-70.0009C1508.82 -70.2935 1509.91 -71.6981 1509.91 -73.4148C1509.91 -75.3461 1508.52 -76.9067 1506.8 -76.9067C1505.08 -76.9067 1503.69 -75.3461 1503.69 -73.4148C1503.69 -72.693 1503.88 -72.0297 1504.21 -71.4835L1415.58 23.5212C1414.99 23.014 1414.28 22.7019 1413.48 22.7019C1411.55 22.7019 1410 24.4576 1410 26.6035C1410 28.2032 1410.87 29.5882 1412.1 30.1735L1401.51 76.2907L1263.95 66.4977C1263.81 63.747 1261.81 61.5621 1259.34 61.5621C1256.87 61.5621 1254.7 63.9031 1254.7 66.7708C1254.7 68.7606 1255.71 70.4578 1257.17 71.3357L1222.05 171.647C1221.61 171.51 1221.16 171.412 1220.69 171.412C1217.84 171.412 1215.54 174.007 1215.54 177.187C1215.54 178.299 1215.84 179.352 1216.32 180.23L1102.86 279.292C1102.32 278.746 1101.61 278.415 1100.82 278.415C1099.14 278.415 1097.76 279.956 1097.76 281.848C1097.76 282.121 1097.8 282.394 1097.85 282.648L1070.64 296.05L980.244 237.916C980.522 237.194 980.696 236.414 980.696 235.594C980.696 232.395 978.383 229.82 975.547 229.82C972.712 229.82 970.398 232.414 970.398 235.594C970.398 236.258 970.52 236.882 970.694 237.467L862.899 294.158C862.186 292.929 860.951 292.109 859.542 292.109C857.333 292.109 855.541 294.119 855.541 296.596C855.541 297.923 856.063 299.113 856.898 299.932L815.168 369.674L737.083 258.809C738.04 257.755 738.631 256.292 738.631 254.673C738.631 251.474 736.318 248.899 733.483 248.899C730.647 248.899 728.334 251.493 728.334 254.673C728.334 257.658 730.352 260.096 732.943 260.389V551.821C731.013 552.114 729.517 553.967 729.517 556.211L729.534 556.25ZM814.542 370.786L793.494 405.959C792.973 405.666 792.381 405.491 791.737 405.491C791.372 405.491 791.042 405.569 790.711 405.666L735.97 259.765C736.057 259.706 736.144 259.667 736.231 259.609L814.542 370.786ZM787.754 409.978C787.754 412.397 789.459 414.347 791.598 414.445L793.738 438.928C792.555 439.201 791.546 439.942 790.816 440.937L735.918 400.477L787.771 409.861C787.771 409.861 787.771 409.939 787.771 409.978H787.754ZM879.25 469.009C879.25 469.751 879.389 470.453 879.615 471.097L801.565 516.219L795.808 450.242C797.582 449.833 799.008 448.389 799.6 446.516L879.32 468.229C879.285 468.482 879.25 468.736 879.25 468.99V469.009ZM794.816 438.811L792.677 414.328C793.581 414.094 794.364 413.489 794.921 412.689L802.122 417.274L879.685 466.688C879.633 466.805 879.616 466.941 879.563 467.058L799.843 445.346C799.878 445.092 799.913 444.839 799.913 444.585C799.913 441.405 797.634 438.83 794.799 438.811H794.816ZM1011.33 552.211C1011.33 552.211 1011.33 552.289 1011.33 552.328L966.328 561.244L918.841 570.647L886.695 474.159C887.443 473.73 888.087 473.125 888.574 472.365L1011.55 550.729C1011.4 551.197 1011.29 551.685 1011.29 552.211H1011.33ZM1077.38 466.629C1077.38 465.946 1077.25 465.322 1077.06 464.717L1140.61 430.695L1159.62 420.512C1159.84 420.902 1160.14 421.253 1160.47 421.546L1127.16 484.421L1077.25 467.683C1077.31 467.331 1077.34 466.98 1077.34 466.629H1077.38ZM1173.83 499.871C1173.83 497.979 1172.59 496.418 1170.98 496.126L1163.93 422.404C1164.21 422.326 1164.49 422.209 1164.73 422.073L1219.56 512.746C1218.93 513.332 1218.43 514.054 1218.12 514.912L1173.81 500.066C1173.81 500.066 1173.81 499.949 1173.81 499.871H1173.83ZM1267.27 320.903C1267.27 317.958 1265.31 315.558 1262.79 315.188L1263.97 258.263C1264.63 258.204 1265.27 258.009 1265.83 257.677L1292.69 304.887L1306.62 329.389C1306.22 329.78 1305.91 330.267 1305.68 330.814L1267.22 321.508C1267.24 321.313 1267.27 321.098 1267.27 320.903ZM1392.92 281.907C1392.92 279.702 1391.8 277.79 1390.17 276.815L1410.75 219.363C1410.99 219.422 1411.22 219.461 1411.48 219.461C1412.28 219.461 1412.99 219.129 1413.56 218.622L1473.8 279.234L1502.69 308.301C1502.4 308.769 1502.17 309.277 1502 309.842L1392.86 282.55C1392.88 282.336 1392.92 282.121 1392.92 281.907ZM1392.92 138.795C1392.92 137.624 1392.6 136.532 1392.06 135.635L1392.55 135.186L1447.71 84.5817C1448.65 85.6156 1449.92 86.2594 1451.33 86.2594C1452.34 86.2594 1453.28 85.9278 1454.06 85.362L1503.27 155.474C1502.61 156.196 1502.14 157.113 1501.89 158.127L1452.96 149.583L1392.9 139.087C1392.9 139.087 1392.92 138.892 1392.92 138.814V138.795ZM1502.07 161.736L1444.46 195.622L1414.15 213.453C1413.55 212.536 1412.59 211.95 1411.49 211.95C1411.3 211.95 1411.11 211.97 1410.92 212.009L1397.68 169.071L1389.96 144.023C1391.32 143.301 1392.34 141.936 1392.74 140.277L1501.74 159.337C1501.74 159.337 1501.72 159.532 1501.72 159.61C1501.72 160.371 1501.86 161.073 1502.09 161.736H1502.07ZM1225.87 177.245C1225.87 177.05 1225.84 176.875 1225.82 176.699L1343.2 149.68L1408.62 213.726C1408.5 213.96 1408.4 214.194 1408.31 214.447L1270.61 186.687L1225.8 177.655C1225.8 177.519 1225.84 177.382 1225.84 177.245H1225.87ZM1344.54 149.368L1382.24 140.687L1382.88 140.531C1383.54 142.872 1385.47 144.569 1387.77 144.569C1388.17 144.569 1388.55 144.511 1388.93 144.413L1396.6 169.306L1409.89 212.399C1409.7 212.516 1409.53 212.653 1409.35 212.809L1344.54 149.368ZM1389.16 276.366C1388.71 276.23 1388.25 276.132 1387.77 276.132C1386.03 276.132 1384.5 277.108 1383.56 278.59L1365.38 267.197L1324.17 241.388L1324.24 240.978L1323.67 241.076L1282.09 215.033L1225.46 179.547C1225.54 179.333 1225.58 179.118 1225.65 178.884L1375.82 209.161L1408.14 215.676C1408.14 215.676 1408.14 215.715 1408.14 215.735C1408.14 217.101 1408.8 218.271 1409.75 218.934L1403.79 235.594L1389.18 276.405L1389.16 276.366ZM1261.36 203.406L1317.86 238.794L1321.95 241.369L1268.49 251.025C1267.9 248.567 1265.92 246.753 1263.53 246.753C1262.7 246.753 1261.93 246.987 1261.24 247.377L1223.91 181.752C1224.29 181.42 1224.62 181.03 1224.92 180.581L1261.36 203.406ZM1384.04 285.906L1325.63 363.646L1311.63 336.334C1312.64 335.515 1313.3 334.208 1313.3 332.706C1313.3 331.886 1313.09 331.106 1312.74 330.443L1383.59 285.262C1383.73 285.477 1383.89 285.691 1384.06 285.906H1384.04ZM1310.06 328.316L1323.98 242.637L1383.04 279.624C1382.77 280.326 1382.62 281.087 1382.62 281.907C1382.62 282.726 1382.77 283.506 1383.05 284.228L1312.07 329.487C1311.53 328.902 1310.83 328.492 1310.06 328.316ZM1308.97 328.258C1308.46 328.297 1307.98 328.453 1307.53 328.707L1288.58 295.406L1266.75 257.014C1267.93 255.961 1268.7 254.342 1268.7 252.508C1268.7 252.41 1268.68 252.293 1268.67 252.196L1322.9 242.403L1308.97 328.238V328.258ZM1261.71 315.148C1259.62 315.344 1257.9 316.924 1257.25 319.089L1200.62 305.394C1200.62 305.297 1200.65 305.199 1200.65 305.102C1200.65 304.4 1200.5 303.756 1200.23 303.19L1259.71 256.312C1260.51 257.346 1261.64 258.048 1262.91 258.224L1261.72 315.148H1261.71ZM994.908 332.179C994.908 334.579 996.647 336.51 998.769 336.51C999.308 336.51 999.83 336.373 1000.3 336.159L1014.41 361.968L1038.26 405.608C1038.12 405.744 1037.98 405.92 1037.86 406.076L943.176 347.591L951.108 320.63L994.925 331.828C994.925 331.945 994.89 332.062 994.89 332.179H994.908ZM929.486 394.137L942.845 348.761L1037.35 407.149C1037.32 407.266 1037.28 407.363 1037.26 407.481L932.53 399.19C932.461 396.927 931.243 395.015 929.503 394.137H929.486ZM932.426 400.399L996.543 405.471L1037.18 408.69C1037.3 410.095 1038.12 411.246 1039.25 411.733L1032.9 447.687L932.287 401.004C932.339 400.809 932.391 400.594 932.426 400.38V400.399ZM1001.22 335.495C1001.52 335.222 1001.8 334.891 1002 334.54L1077.69 374.122L1159.17 416.727C1159.13 416.864 1159.08 416.981 1159.06 417.118L1043.61 407.988C1043.46 406.134 1042.08 404.691 1040.39 404.691C1039.96 404.691 1039.56 404.788 1039.18 404.964L1001.22 335.515V335.495ZM1002.46 333.428C1002.49 333.33 1002.53 333.213 1002.54 333.115L1034.06 335.905L1140.83 345.347C1140.9 348.468 1143.18 350.965 1145.98 350.965C1146.24 350.965 1146.5 350.926 1146.75 350.887L1151.03 369.245L1161.46 413.899C1160.71 414.25 1160.07 414.855 1159.64 415.615L1078.96 373.439L1002.46 333.428ZM1147.79 350.575C1149.74 349.756 1151.13 347.649 1151.13 345.191C1151.13 344.177 1150.87 343.221 1150.47 342.401L1163.27 332.316L1194.11 308.008C1194.41 308.36 1194.77 308.652 1195.17 308.886L1163.76 413.645C1163.51 413.587 1163.27 413.567 1163.01 413.567C1162.85 413.567 1162.7 413.606 1162.54 413.626L1159.37 400.067L1147.82 350.595L1147.79 350.575ZM1148.75 340.314L1167.32 298.567L1193.07 304.79C1193.07 304.887 1193.05 304.985 1193.05 305.082C1193.05 305.785 1193.21 306.428 1193.47 306.994L1149.84 341.387C1149.53 340.977 1149.16 340.607 1148.75 340.314ZM1166.73 297.181L1103.9 281.985C1103.9 281.985 1103.9 281.946 1103.9 281.926L1179.59 268.251L1166.72 297.162L1166.73 297.181ZM1180.91 268.036L1258.59 254.01C1258.7 254.459 1258.85 254.888 1259.06 255.297L1199.61 302.176C1198.91 301.356 1197.94 300.829 1196.84 300.829C1195.21 300.829 1193.83 302 1193.29 303.619L1167.83 297.455L1180.93 268.036H1180.91ZM1257.92 324.2L1165.58 414.679C1165.32 414.425 1165.05 414.211 1164.75 414.055L1196.16 309.277C1196.39 309.316 1196.62 309.355 1196.84 309.355C1198.48 309.355 1199.85 308.184 1200.39 306.565L1257.03 320.26C1257.01 320.455 1256.98 320.669 1256.98 320.864C1256.98 322.093 1257.32 323.244 1257.92 324.181V324.2ZM1169.9 496.106C1168.87 496.282 1168.02 496.984 1167.52 497.94L1128.26 484.772L1161.41 422.19C1161.86 422.404 1162.35 422.521 1162.85 422.521L1169.9 496.106ZM1167.86 502.349L1072.21 590.584L1127.68 485.864L1167.1 499.071C1167.05 499.325 1167.03 499.598 1167.03 499.871C1167.03 500.827 1167.34 501.685 1167.86 502.349ZM1076.61 463.605C1075.71 461.947 1074.09 460.835 1072.23 460.835C1071.43 460.835 1070.7 461.05 1070.02 461.421L1042.52 411.09C1043.02 410.602 1043.37 409.958 1043.54 409.217L1159.01 418.347C1159.03 418.717 1159.1 419.068 1159.18 419.4L1116.62 442.185L1076.61 463.605ZM1069.1 462.064C1068.52 462.552 1068.07 463.176 1067.72 463.879L1052.28 456.719L1033.91 448.194L1040.29 411.987C1040.29 411.987 1040.34 411.987 1040.38 411.987C1040.81 411.987 1041.21 411.889 1041.59 411.714L1069.1 462.045V462.064ZM1068.73 470.862L1053.41 493.785L1016.74 548.602C1016.58 548.505 1016.41 548.427 1016.23 548.349L1024.41 502.056L1033.7 449.423L1039.35 452.057L1067.3 465.03C1067.17 465.556 1067.08 466.083 1067.08 466.649C1067.08 468.326 1067.72 469.809 1068.73 470.862ZM1015.17 548.115C1015.17 548.115 1015.07 548.115 1015 548.115C1014.46 548.115 1013.95 548.251 1013.49 548.485L937.557 416.123L930.565 403.93C931.086 403.462 931.539 402.857 931.852 402.194L1032.65 448.974L1015.15 548.134L1015.17 548.115ZM1012.58 549.129C1012.41 549.305 1012.25 549.48 1012.11 549.675L889.13 471.311C889.409 470.609 889.565 469.829 889.565 469.009C889.565 467.253 888.852 465.712 887.756 464.639L916.753 417.664L924.894 404.476C925.625 404.925 926.459 405.198 927.347 405.198C928.182 405.198 928.964 404.964 929.66 404.554L1012.58 549.11V549.129ZM884.416 463.235C883.408 463.235 882.468 463.566 881.668 464.132L841.243 406.739L908.004 401.55L922.285 400.438C922.493 401.784 923.12 402.955 924.007 403.793L896.454 448.448L886.886 463.957C886.156 463.508 885.321 463.235 884.434 463.235H884.416ZM880.816 464.893C880.607 465.127 880.416 465.381 880.242 465.654L834.598 436.567L795.477 411.636C795.634 411.207 795.721 410.758 795.738 410.27L839.938 406.837L880.816 464.873V464.893ZM815.255 371.8L839.121 405.686L809.132 408.027L795.669 409.08C795.495 408.124 795.025 407.285 794.399 406.661L815.255 371.82V371.8ZM923.885 395.19C922.911 396.205 922.267 397.629 922.215 399.229L840.425 405.588L815.881 370.747L857.803 300.673C858.324 300.966 858.916 301.142 859.559 301.142C860.255 301.142 860.899 300.927 861.473 300.576L923.885 395.19ZM904.42 325.059L941.871 348.195L928.46 393.786C928.112 393.708 927.747 393.649 927.364 393.649C926.407 393.649 925.52 393.961 924.755 394.469L901.863 359.783L862.343 299.874C862.499 299.718 862.621 299.522 862.743 299.327L904.403 325.059H904.42ZM863.299 298.235L950.064 320.396L942.219 347.025L906.838 325.156L863.299 298.254V298.215V298.235ZM973.46 240.92L950.412 319.245L863.543 297.045C863.543 296.908 863.578 296.791 863.578 296.655C863.578 296.187 863.491 295.757 863.386 295.328L971.199 238.638C971.738 239.632 972.521 240.432 973.477 240.92H973.46ZM976.382 241.349L997.256 328.238C996.299 328.707 995.551 329.585 995.168 330.677L951.456 319.518L974.469 241.31C974.817 241.388 975.182 241.447 975.565 241.447C975.843 241.447 976.104 241.408 976.365 241.349H976.382ZM1069.46 296.733L1002.06 329.955C1001.38 328.726 1000.16 327.887 998.787 327.887C998.63 327.887 998.473 327.926 998.317 327.946L977.443 241.057C978.383 240.647 979.183 239.945 979.757 239.047L1069.46 296.733ZM1141.27 342.909C1141.11 343.318 1140.99 343.728 1140.92 344.177L1048.71 336.022L1002.63 331.945C1002.63 331.633 1002.56 331.34 1002.49 331.048L1070.63 297.474L1141.27 342.889V342.909ZM1142.36 341.133C1142.15 341.348 1141.98 341.602 1141.82 341.855L1071.88 296.869L1098.35 283.818C1098.91 284.735 1099.83 285.34 1100.89 285.34C1101.42 285.34 1101.9 285.184 1102.34 284.911L1142.38 341.114L1142.36 341.133ZM1103.17 284.17C1103.4 283.896 1103.57 283.584 1103.71 283.233L1166.26 298.352L1147.81 339.826C1147.25 339.592 1146.64 339.436 1146.02 339.436C1144.99 339.436 1144.05 339.787 1143.25 340.353L1103.21 284.15L1103.17 284.17ZM1217.98 182.142L1180.21 267.002L1103.75 280.814C1103.69 280.658 1103.64 280.502 1103.57 280.365L1217.04 181.303C1217.32 181.635 1217.63 181.908 1217.98 182.161V182.142ZM1223.04 182.435L1258.09 244.041L1260.37 248.04C1259.19 249.094 1258.42 250.713 1258.42 252.547C1258.42 252.644 1258.44 252.761 1258.45 252.859L1230.08 257.99L1181.54 266.749L1218.95 182.669C1219.51 182.903 1220.12 183.059 1220.74 183.059C1221.58 183.059 1222.34 182.825 1223.04 182.435ZM1342.21 148.705L1225.63 175.529C1225.21 174.066 1224.31 172.876 1223.11 172.173L1258.23 71.8624C1258.61 71.9794 1258.99 72.0575 1259.41 72.0575C1260.61 72.0575 1261.69 71.5307 1262.53 70.6919L1342.21 148.705ZM1263.29 69.697L1382.97 136.805C1382.76 137.429 1382.62 138.112 1382.62 138.834C1382.62 139.029 1382.65 139.204 1382.67 139.38L1343.53 148.393L1263.24 69.775C1263.24 69.775 1263.27 69.7165 1263.29 69.6775V69.697ZM1401.32 77.5588L1388.55 133.137C1388.31 133.098 1388.06 133.059 1387.8 133.059C1385.98 133.059 1384.38 134.132 1383.47 135.732L1263.78 68.624C1263.86 68.3509 1263.93 68.0778 1263.99 67.8047L1401.32 77.5783V77.5588ZM1402.41 77.6368L1446.21 80.7581C1446.25 81.831 1446.54 82.8455 1447.05 83.6843L1431.74 97.7302L1391.42 134.718C1390.92 134.152 1390.29 133.723 1389.59 133.43L1402.41 77.6368ZM1447.76 76.3688C1447 77.2076 1446.47 78.3001 1446.28 79.5291L1402.69 76.4273L1413.25 30.5246C1413.35 30.5246 1413.46 30.5636 1413.58 30.5636C1414.19 30.5636 1414.76 30.3686 1415.27 30.0564L1447.76 76.3688ZM1416.12 29.3151C1416.56 28.7884 1416.87 28.1251 1416.99 27.3838L1501.77 30.0174C1501.84 31.0123 1502.12 31.9487 1502.57 32.729L1454.96 76.4078C1454.02 75.3739 1452.75 74.7301 1451.34 74.7301C1450.34 74.7301 1449.4 75.0617 1448.61 75.6275L1416.12 29.3151ZM1506.35 23.8333C1503.98 24.1064 1502.12 26.1548 1501.81 28.7884L1417.01 26.1548C1416.94 25.5305 1416.75 24.9258 1416.43 24.4381L1505.06 -70.5666C1505.44 -70.2545 1505.88 -70.0399 1506.35 -69.9423V23.8333ZM1506.35 153.933C1505.55 154.031 1504.8 154.304 1504.16 154.772L1454.95 84.6597C1455.9 83.6063 1456.51 82.1432 1456.51 80.524C1456.51 79.3535 1456.2 78.2611 1455.66 77.3637L1503.27 33.6849C1504.09 34.5823 1505.16 35.1481 1506.35 35.3041V153.953V153.933ZM1506.35 305.999C1505.23 306.136 1504.24 306.643 1503.44 307.443L1501.44 305.433L1414.31 217.764C1414.64 217.179 1414.85 216.496 1414.85 215.754C1414.85 215.345 1414.78 214.955 1414.66 214.584L1487.32 171.861L1502.59 162.887C1503.42 164.272 1504.78 165.209 1506.33 165.404V306.038L1506.35 305.999ZM1363.64 427.418L1402.69 396.088L1503.04 315.558C1503.88 316.612 1505.02 317.294 1506.33 317.45V388.206C1504.64 388.499 1503.34 390.118 1503.34 392.108C1503.34 392.206 1503.35 392.303 1503.35 392.381L1364.01 428.374C1363.9 428.042 1363.78 427.71 1363.62 427.418H1363.64ZM1360.79 424.784L1387.25 287.661C1387.44 287.681 1387.61 287.72 1387.8 287.72C1390.08 287.72 1391.98 286.062 1392.67 283.779L1501.81 311.071C1501.79 311.286 1501.75 311.5 1501.75 311.715C1501.75 312.749 1502.02 313.705 1502.45 314.544L1363.05 426.403C1362.46 425.643 1361.69 425.096 1360.82 424.765L1360.79 424.784ZM1357.1 424.96L1326.24 364.797L1384.91 286.725C1385.3 287.018 1385.73 287.232 1386.2 287.408L1379.42 322.542L1359.74 424.531C1359.55 424.511 1359.38 424.472 1359.19 424.472C1358.44 424.472 1357.74 424.648 1357.1 424.979V424.96ZM1261.99 450.32L1325.51 365.772L1356.18 425.565C1354.89 426.618 1354.04 428.315 1354.04 430.227C1354.04 430.403 1354.07 430.578 1354.09 430.754L1262.59 451.432C1262.46 451.023 1262.25 450.633 1261.99 450.301V450.32ZM1261.59 448.955L1307.65 336.783C1308.17 337.056 1308.73 337.212 1309.33 337.212C1309.82 337.212 1310.27 337.095 1310.71 336.92L1324.94 364.66L1261.6 448.955H1261.59ZM1260.04 449.052L1262.58 326.658C1264.66 326.463 1266.39 324.883 1267.03 322.718L1305.4 332.004C1305.37 332.238 1305.33 332.491 1305.33 332.745C1305.33 334.091 1305.87 335.3 1306.73 336.12L1260.32 449.15C1260.23 449.13 1260.12 449.091 1260.04 449.072V449.052ZM1256.42 451.062L1217.44 437.035L1166.94 418.873C1166.98 418.62 1167.01 418.366 1167.01 418.093C1167.01 417.176 1166.77 416.337 1166.35 415.635L1258.68 325.156C1259.45 325.956 1260.42 326.483 1261.52 326.639L1259.72 413.274L1258.98 449.052C1257.86 449.228 1256.92 450.008 1256.44 451.081L1256.42 451.062ZM1220.5 512.083L1165.67 421.409C1166.05 421.019 1166.37 420.551 1166.59 420.024L1217.04 438.186L1256.07 452.232C1256.05 452.408 1256.02 452.603 1256.02 452.798C1256.02 453.929 1256.47 454.924 1257.17 455.627L1225.2 512.025C1224.5 511.634 1223.73 511.4 1222.92 511.4C1222.05 511.4 1221.23 511.674 1220.5 512.103V512.083ZM1171.71 503.441C1172.59 503.051 1173.29 502.271 1173.62 501.276L1217.84 516.102C1217.79 516.453 1217.75 516.804 1217.75 517.155C1217.75 518.989 1218.53 520.608 1219.72 521.662L1180.13 591.481L1171.71 503.422V503.441ZM1071.71 592.671L1168.73 503.168C1169.24 503.5 1169.83 503.714 1170.45 503.714C1170.52 503.714 1170.58 503.714 1170.63 503.695L1175.22 551.704L1179.13 592.671H1071.69H1071.71ZM1070.77 590.994L1071.41 551.275L1072.7 472.384C1074.64 472.189 1076.28 470.823 1077.01 468.873L1126.64 485.513L1070.77 590.994ZM1018.34 553.967C1018.56 553.44 1018.69 552.855 1018.69 552.231C1018.69 551.099 1018.29 550.085 1017.63 549.344L1053.16 496.204L1069.62 471.604C1070.21 472.013 1070.89 472.267 1071.62 472.365L1070.33 551.704L1069.67 592.164L1018.34 553.967ZM926.199 592.671L919.258 571.817L1011.55 553.538C1012.04 555.177 1013.4 556.347 1015.02 556.347C1016.09 556.347 1017.07 555.82 1017.73 554.982L1068.38 592.671H926.199ZM813.933 592.671L918.162 572.032L925.033 592.671H813.933ZM810.263 590.291L859.577 510.386L881.981 474.081C882.712 474.53 883.547 474.803 884.434 474.803C884.886 474.803 885.304 474.725 885.721 474.608L917.797 570.881L811.237 591.989C811.046 591.345 810.715 590.76 810.28 590.311L810.263 590.291ZM801.705 517.545L880.137 472.208C880.398 472.657 880.729 473.047 881.094 473.399L809.376 589.609C808.941 589.374 808.471 589.218 807.949 589.199L801.705 517.545ZM804.679 591.091L737.309 557.518C737.414 557.128 737.483 556.718 737.483 556.289C737.483 555.762 737.396 555.274 737.24 554.826L800.661 518.15L806.871 589.316C805.949 589.57 805.166 590.213 804.679 591.091ZM734.057 560.678C735.239 560.502 736.266 559.722 736.875 558.63L804.244 592.203C804.209 592.359 804.175 592.515 804.157 592.691H734.074V560.678H734.057ZM734.057 428.705L789.702 443.863C789.667 444.117 789.633 444.37 789.633 444.624C789.633 447.804 791.911 450.379 794.747 450.398L800.539 516.843L736.735 553.733C736.109 552.758 735.152 552.075 734.039 551.899V428.705H734.057ZM734.057 400.575L790.224 441.99C790.12 442.224 790.033 442.439 789.946 442.693L734.039 427.457V400.575H734.057ZM734.057 260.467C734.387 260.428 734.7 260.35 734.996 260.253L789.754 406.154C788.902 406.72 788.276 407.617 787.98 408.69L734.074 398.916V260.467H734.057Z" fill="#91928E"/>
<path d="M734.039 551.86V260.428C736.631 260.116 738.649 257.697 738.649 254.712C738.649 251.513 736.335 248.938 733.5 248.938C730.665 248.938 728.351 251.532 728.351 254.712C728.351 256.331 728.943 257.794 729.899 258.848L651.815 369.713L610.085 299.971C610.902 299.152 611.441 297.962 611.441 296.635C611.441 294.158 609.65 292.148 607.441 292.148C606.032 292.148 604.797 292.968 604.083 294.197L496.288 237.506C496.48 236.921 496.584 236.297 496.584 235.633C496.584 232.434 494.271 229.859 491.435 229.859C488.6 229.859 486.286 232.453 486.286 235.633C486.286 236.472 486.443 237.252 486.739 237.955L396.338 296.089L369.133 282.687C369.185 282.433 369.22 282.16 369.22 281.887C369.22 279.995 367.846 278.454 366.159 278.454C365.376 278.454 364.663 278.785 364.123 279.331L250.658 180.269C251.145 179.391 251.441 178.338 251.441 177.226C251.441 174.027 249.127 171.451 246.292 171.451C245.822 171.451 245.37 171.549 244.935 171.686L209.815 71.3747C211.276 70.4968 212.285 68.7996 212.285 66.8098C212.285 63.9421 210.198 61.6011 207.641 61.6011C205.084 61.6011 203.153 63.786 203.031 66.5367L65.4738 76.3297L54.8804 30.2125C56.1154 29.6077 56.9852 28.2422 56.9852 26.6425C56.9852 24.4966 55.4196 22.7409 53.5062 22.7409C52.7061 22.7409 51.9929 23.053 51.4015 23.5602L-37.2594 -71.4835C-36.9289 -72.0297 -36.7375 -72.693 -36.7375 -73.4148C-36.7375 -75.3461 -38.1291 -76.9067 -39.8512 -76.9067C-41.5732 -76.9067 -42.9648 -75.3461 -42.9648 -73.4148C-42.9648 -71.6981 -41.8516 -70.274 -40.4078 -70.0009V23.7748C-42.9996 24.0869 -45.0174 26.5059 -45.0174 29.4907C-45.0174 32.4754 -42.9996 34.8944 -40.4078 35.2066V153.855C-42.9996 154.167 -45.0174 156.586 -45.0174 159.571C-45.0174 162.556 -42.9996 164.975 -40.4078 165.287V305.921C-42.9996 306.233 -45.0174 308.652 -45.0174 311.637C-45.0174 314.622 -42.9996 317.041 -40.4078 317.353V388.109C-42.0951 388.402 -43.3997 390.021 -43.3997 392.011C-43.3997 394.195 -41.8168 395.971 -39.8686 395.971C-38.39 395.971 -37.1202 394.937 -36.5984 393.474L102.751 429.466C102.733 429.7 102.681 429.915 102.681 430.149C102.681 433.348 104.995 435.923 107.83 435.923C110.143 435.923 112.074 434.207 112.718 431.866L204.214 452.544C204.214 452.544 204.214 452.642 204.214 452.681C204.214 454.788 205.727 456.485 207.606 456.485C208.076 456.485 208.528 456.368 208.945 456.173L240.917 512.571C239.734 513.624 238.951 515.243 238.951 517.077C238.951 520.277 241.265 522.852 244.1 522.852C244.918 522.852 245.7 522.618 246.379 522.227L286.682 593.335L286.63 593.803H286.943L287.622 594.993L287.743 593.803H396.286V594.31L396.634 594.056L397.382 595.48L397.347 593.803H655.607C655.867 595.773 657.381 597.314 659.207 597.314C661.034 597.314 662.547 595.793 662.808 593.803H733.987V560.58C735.918 560.288 737.414 558.435 737.414 556.191C737.414 553.948 735.918 552.114 733.987 551.802L734.039 551.86ZM730.752 259.589C730.752 259.589 730.926 259.687 731.013 259.745L676.271 405.647C675.941 405.549 675.593 405.471 675.245 405.471C674.619 405.471 674.028 405.647 673.488 405.939L652.441 370.766L730.752 259.589ZM679.229 409.841L731.082 400.458L676.185 440.917C675.454 439.922 674.428 439.181 673.262 438.908L675.402 414.425C677.541 414.328 679.246 412.377 679.246 409.958C679.246 409.919 679.246 409.88 679.246 409.841H679.229ZM587.68 468.229L667.4 446.516C668.009 448.389 669.418 449.833 671.192 450.242L665.435 516.219L587.384 471.096C587.611 470.453 587.75 469.75 587.75 469.009C587.75 468.756 587.715 468.502 587.68 468.248V468.229ZM667.07 444.565C667.07 444.819 667.104 445.073 667.139 445.326L587.419 467.039C587.385 466.922 587.35 466.785 587.298 466.668L664.861 417.254L672.062 412.67C672.619 413.47 673.384 414.055 674.306 414.308L672.166 438.791C669.331 438.811 667.052 441.386 667.052 444.565H667.07ZM455.428 550.709L578.409 472.345C578.896 473.106 579.539 473.711 580.287 474.14L548.142 570.627L500.655 561.224L455.654 552.309C455.654 552.309 455.654 552.231 455.654 552.192C455.654 551.665 455.55 551.177 455.394 550.709H455.428ZM389.728 467.683L339.823 484.421L306.512 421.546C306.843 421.253 307.138 420.902 307.365 420.512L326.377 430.695L389.92 464.717C389.728 465.322 389.607 465.966 389.607 466.629C389.607 467 389.641 467.351 389.694 467.683H389.728ZM293.205 500.047L248.901 514.892C248.588 514.034 248.083 513.312 247.457 512.727L302.285 422.053C302.546 422.19 302.807 422.307 303.085 422.385L296.041 496.106C294.423 496.399 293.188 497.959 293.188 499.852C293.188 499.91 293.188 499.969 293.188 500.047H293.205ZM199.796 321.489L161.336 330.794C161.11 330.248 160.779 329.78 160.397 329.37L174.347 304.868L201.205 257.658C201.779 257.97 202.405 258.185 203.066 258.243L204.249 315.168C201.709 315.539 199.761 317.938 199.761 320.884C199.761 321.098 199.796 321.294 199.813 321.489H199.796ZM74.1711 282.531L-34.9633 309.823C-35.1372 309.277 -35.3633 308.75 -35.659 308.282L-6.76644 279.214L53.4714 218.603C54.0454 219.129 54.7586 219.441 55.5588 219.441C55.8023 219.441 56.0458 219.402 56.2894 219.344L76.8673 276.795C75.2322 277.771 74.1189 279.663 74.1189 281.887C74.1189 282.102 74.1537 282.316 74.1711 282.531ZM74.1363 139.048L14.0724 149.544L-34.8589 158.088C-35.1024 157.074 -35.5721 156.157 -36.2331 155.435L12.9766 85.323C13.7767 85.8887 14.6986 86.2204 15.7075 86.2204C17.1165 86.2204 18.4037 85.5766 19.3256 84.5427L74.4842 135.147L74.9713 135.596C74.4321 136.512 74.1189 137.585 74.1189 138.756C74.1189 138.853 74.1363 138.951 74.1363 139.029V139.048ZM-34.6675 159.59C-34.6675 159.59 -34.6849 159.395 -34.6849 159.317L74.3103 140.258C74.7104 141.916 75.7367 143.282 77.0934 144.004L69.3702 169.052L56.1328 211.989C55.9415 211.95 55.7675 211.931 55.5588 211.931C54.4629 211.931 53.5062 212.536 52.8974 213.433L22.5958 195.603L-35.0676 161.717C-34.8415 161.054 -34.7023 160.351 -34.7023 159.59H-34.6675ZM241.195 177.636L196.386 186.668L58.6898 214.428C58.6029 214.174 58.5159 213.94 58.3767 213.706L123.798 149.661L241.178 176.68C241.178 176.855 241.125 177.05 241.125 177.226C241.125 177.362 241.16 177.499 241.16 177.636H241.195ZM57.6809 212.789C57.507 212.633 57.333 212.497 57.1417 212.38L70.4313 169.286L78.1023 144.394C78.485 144.491 78.8677 144.55 79.2678 144.55C81.5639 144.55 83.4947 142.853 84.1557 140.512L84.7993 140.668L122.494 149.349L57.6809 212.789ZM63.2646 235.536L57.2983 218.876C58.2724 218.212 58.916 217.042 58.916 215.676C58.916 215.657 58.916 215.637 58.916 215.618L91.2353 209.102L241.404 178.826C241.456 179.04 241.508 179.274 241.595 179.489L184.958 214.974L143.385 241.017L142.811 240.92L142.88 241.33L101.672 267.139L83.4947 278.532C82.5554 277.049 81.0246 276.074 79.2852 276.074C78.7981 276.074 78.3285 276.171 77.8936 276.308L63.282 235.497L63.2646 235.536ZM242.117 180.562C242.395 181.01 242.743 181.401 243.126 181.732L205.797 247.358C205.101 246.967 204.336 246.733 203.501 246.733C201.118 246.733 199.135 248.548 198.543 251.006L145.089 241.349L149.177 238.774L205.675 203.386L242.117 180.562ZM83.4599 285.242L154.309 330.423C153.961 331.087 153.752 331.847 153.752 332.686C153.752 334.188 154.413 335.495 155.422 336.315L141.419 363.626L83.0076 285.886C83.1816 285.691 83.3381 285.477 83.4773 285.242H83.4599ZM154.987 329.448L83.9991 284.189C84.2775 283.487 84.434 282.706 84.434 281.868C84.434 281.029 84.2775 280.287 84.0165 279.585L143.072 242.598L156.987 328.277C156.222 328.453 155.544 328.863 154.987 329.448ZM144.133 242.383L198.369 252.176C198.369 252.274 198.335 252.371 198.335 252.488C198.335 254.322 199.1 255.922 200.283 256.995L178.452 295.387L159.51 328.687C159.075 328.434 158.588 328.297 158.066 328.238L144.133 242.403V242.383ZM204.144 258.185C205.414 258.009 206.545 257.307 207.345 256.273L266.817 303.151C266.557 303.736 266.4 304.38 266.4 305.063C266.4 305.16 266.417 305.258 266.435 305.355L209.798 319.05C209.171 316.885 207.432 315.305 205.345 315.109L204.162 258.185H204.144ZM472.092 331.808L515.91 320.611L523.842 347.571L429.162 406.056C429.04 405.881 428.901 405.725 428.762 405.588L452.61 361.948L466.717 336.139C467.187 336.373 467.709 336.49 468.248 336.49C470.388 336.49 472.11 334.54 472.11 332.16C472.11 332.043 472.092 331.925 472.075 331.808H472.092ZM534.522 399.17L429.789 407.461C429.771 407.344 429.736 407.227 429.702 407.129L524.207 348.741L537.566 394.117C535.827 394.995 534.609 396.927 534.539 399.17H534.522ZM534.731 401.004L434.12 447.687L427.771 411.733C428.901 411.246 429.719 410.095 429.841 408.69L470.475 405.471L534.592 400.399C534.626 400.614 534.679 400.809 534.731 401.023V401.004ZM427.84 404.944C427.458 404.769 427.058 404.671 426.623 404.671C424.935 404.671 423.561 406.115 423.405 407.968L307.956 417.098C307.939 416.961 307.886 416.825 307.852 416.708L389.328 374.102L465.013 334.52C465.222 334.891 465.5 335.203 465.796 335.476L427.84 404.925V404.944ZM388.076 373.419L307.399 415.596C306.964 414.835 306.321 414.23 305.573 413.879L316.01 369.225L320.289 350.868C320.55 350.907 320.793 350.946 321.054 350.946C323.855 350.946 326.116 348.429 326.203 345.328L432.972 335.886L464.491 333.096C464.508 333.213 464.543 333.311 464.578 333.408L388.076 373.419ZM307.695 400.028L304.529 413.587C304.373 413.567 304.216 413.528 304.06 413.528C303.799 413.528 303.555 413.567 303.312 413.606L271.897 308.847C272.297 308.633 272.645 308.34 272.958 307.969L303.799 332.277L316.601 342.362C316.184 343.201 315.94 344.138 315.94 345.152C315.94 347.63 317.332 349.717 319.28 350.536L307.73 400.009L307.695 400.028ZM317.21 341.367L273.584 306.975C273.845 306.389 274.001 305.746 274.001 305.063C274.001 304.965 273.984 304.868 273.967 304.77L299.711 298.547L318.288 340.294C317.871 340.587 317.506 340.958 317.193 341.367H317.21ZM287.448 268.251L363.132 281.926V281.985L300.302 297.181L287.43 268.27L287.448 268.251ZM299.224 297.416L273.758 303.58C273.219 301.961 271.845 300.79 270.209 300.79C269.114 300.79 268.139 301.317 267.444 302.137L207.989 255.258C208.18 254.849 208.354 254.42 208.458 253.971L286.143 267.997L299.241 297.416H299.224ZM210.076 320.845C210.076 320.63 210.041 320.435 210.024 320.24L266.661 306.545C267.2 308.165 268.574 309.335 270.209 309.335C270.436 309.335 270.679 309.296 270.888 309.257L302.303 414.035C301.99 414.211 301.711 414.425 301.468 414.659L209.137 324.181C209.728 323.244 210.076 322.093 210.076 320.864V320.845ZM304.181 422.482C304.686 422.482 305.173 422.346 305.625 422.151L338.779 484.733L299.537 497.901C299.032 496.945 298.18 496.262 297.154 496.067L304.199 422.482H304.181ZM300.007 499.812C300.007 499.539 299.972 499.266 299.937 499.013L339.353 485.806L394.825 590.525L299.172 502.29C299.693 501.627 300.007 500.768 300.007 499.812ZM350.416 442.146L307.852 419.361C307.956 419.029 308.008 418.678 308.026 418.307L423.492 409.178C423.648 409.919 424.013 410.563 424.518 411.05L397.017 461.381C396.338 461.03 395.608 460.796 394.808 460.796C392.946 460.796 391.329 461.908 390.424 463.566L350.416 442.146ZM425.44 411.694C425.823 411.87 426.223 411.967 426.657 411.967C426.692 411.967 426.71 411.967 426.744 411.967L433.128 448.174L414.759 456.7L399.313 463.859C398.965 463.157 398.495 462.532 397.939 462.045L425.44 411.714V411.694ZM399.957 466.59C399.957 466.024 399.852 465.478 399.73 464.971L427.684 451.998L433.337 449.364L442.626 501.997L450.801 548.29C450.627 548.368 450.453 548.446 450.297 548.544L413.629 493.726L398.304 470.804C399.313 469.75 399.957 468.248 399.957 466.59ZM434.363 448.896L535.166 402.116C535.496 402.779 535.931 403.384 536.453 403.852L529.46 416.045L453.532 548.407C453.08 548.173 452.558 548.037 452.019 548.037C451.967 548.037 451.897 548.037 451.845 548.037L434.346 448.877L434.363 448.896ZM537.375 404.515C538.07 404.905 538.853 405.159 539.688 405.159C540.575 405.159 541.41 404.886 542.141 404.437L550.282 417.625L579.279 464.6C578.183 465.654 577.47 467.214 577.47 468.97C577.47 469.789 577.626 470.57 577.904 471.272L454.924 549.636C454.785 549.441 454.628 549.246 454.454 549.09L537.375 404.535V404.515ZM580.166 463.898L570.599 448.389L543.045 403.735C543.933 402.877 544.559 401.726 544.767 400.38L559.049 401.491L625.809 406.681L585.384 464.074C584.584 463.508 583.645 463.176 582.636 463.176C581.749 463.176 580.914 463.449 580.183 463.898H580.166ZM627.097 406.778L671.297 410.212C671.331 410.68 671.401 411.148 671.557 411.577L632.437 436.509L586.793 465.595C586.619 465.322 586.428 465.068 586.219 464.834L627.097 406.798V406.778ZM672.619 406.583C671.992 407.207 671.523 408.046 671.349 409.002L657.885 407.949L627.897 405.608L651.762 371.722L672.619 406.564V406.583ZM605.562 300.498C606.136 300.849 606.78 301.064 607.475 301.064C608.102 301.064 608.693 300.888 609.232 300.595L651.154 370.669L626.61 405.51L544.82 399.151C544.767 397.551 544.141 396.127 543.15 395.112L605.562 300.498ZM604.275 299.249C604.397 299.444 604.536 299.62 604.675 299.796L565.154 359.705L542.263 394.391C541.497 393.883 540.61 393.571 539.653 393.571C539.271 393.571 538.906 393.63 538.558 393.708L525.146 348.117L562.597 324.981L604.257 299.249H604.275ZM603.753 298.196L560.214 325.098L524.833 346.966L516.988 320.338L603.753 298.176V298.215V298.196ZM495.871 238.579L603.683 295.27C603.562 295.699 603.492 296.128 603.492 296.596C603.492 296.733 603.509 296.85 603.527 296.986L516.658 319.187L493.61 240.861C494.566 240.374 495.349 239.574 495.888 238.579H495.871ZM491.47 241.388C491.853 241.388 492.218 241.33 492.566 241.252L515.579 319.46L471.866 330.618C471.501 329.526 470.736 328.629 469.779 328.18L490.653 241.291C490.913 241.33 491.174 241.388 491.453 241.388H491.47ZM487.295 238.989C487.869 239.886 488.67 240.588 489.609 240.998L468.735 327.887C468.579 327.868 468.422 327.829 468.266 327.829C466.874 327.829 465.674 328.648 464.995 329.897L397.591 296.674L487.295 238.989ZM396.408 297.435L464.543 331.009C464.474 331.301 464.421 331.594 464.404 331.906L418.325 335.983L326.116 344.138C326.046 343.689 325.925 343.26 325.768 342.87L396.408 297.455V297.435ZM364.732 284.872C365.167 285.125 365.654 285.301 366.176 285.301C367.237 285.301 368.159 284.696 368.716 283.779L395.19 296.83L325.246 341.816C325.072 341.562 324.898 341.309 324.707 341.094L364.75 284.891L364.732 284.872ZM323.837 340.314C323.037 339.729 322.08 339.397 321.072 339.397C320.428 339.397 319.837 339.534 319.28 339.787L300.824 298.313L363.375 283.194C363.497 283.545 363.689 283.857 363.915 284.131L323.872 340.333L323.837 340.314ZM250.014 181.206L363.48 280.268C363.41 280.404 363.358 280.561 363.306 280.717L286.839 266.905L249.075 182.044C249.423 181.791 249.736 181.518 250.014 181.186V181.206ZM246.309 182.981C246.953 182.981 247.544 182.844 248.101 182.591L285.517 266.671L236.968 257.912L208.597 252.781C208.597 252.683 208.632 252.586 208.632 252.469C208.632 250.635 207.867 249.035 206.684 247.962L208.963 243.963L244.013 182.357C244.709 182.747 245.474 182.981 246.309 182.981ZM204.544 70.6139C205.362 71.4527 206.458 71.9794 207.658 71.9794C208.058 71.9794 208.458 71.9014 208.841 71.7843L243.961 172.095C242.761 172.798 241.856 173.988 241.439 175.451L124.859 148.627L204.544 70.6139ZM203.814 69.7165L123.52 148.334L84.3818 139.322C84.3818 139.126 84.434 138.951 84.434 138.775C84.434 138.054 84.2948 137.39 84.0861 136.746L203.762 69.6385C203.762 69.6385 203.796 69.697 203.814 69.736V69.7165ZM203.083 67.7072C203.135 67.9998 203.205 68.2729 203.292 68.5265L83.5991 135.634C82.6771 134.035 81.0942 132.962 79.2678 132.962C79.0069 132.962 78.7633 133.001 78.5198 133.04L65.7521 77.4612L203.083 67.6876V67.7072ZM77.4761 133.352C76.7803 133.645 76.1715 134.074 75.6497 134.64L35.3287 97.6521L20.0214 83.6063C20.5085 82.7674 20.8042 81.753 20.8564 80.6801L64.6562 77.5587L77.4761 133.352ZM51.8015 29.9784C52.306 30.2905 52.88 30.4856 53.4888 30.4856C53.5932 30.4856 53.715 30.4661 53.8193 30.4466L64.3779 76.3493L20.7868 79.451C20.5954 78.222 20.0736 77.1101 19.3082 76.2907L51.8015 29.9784ZM18.4385 75.5494C17.6383 74.9837 16.7164 74.652 15.7075 74.652C14.2985 74.652 13.0113 75.2958 12.0894 76.3297L-35.5373 32.6705C-35.0676 31.8707 -34.8067 30.9538 -34.7371 29.9589L50.0447 27.3253C50.1664 28.0666 50.4795 28.7299 50.9144 29.2566L18.4211 75.5689L18.4385 75.5494ZM-39.2945 -70.0009C-38.8249 -70.0984 -38.39 -70.313 -38.0073 -70.6251L50.6187 24.3795C50.3056 24.8868 50.1142 25.472 50.0447 26.0963L-34.7545 28.7299C-35.0676 26.0963 -36.9463 24.0479 -39.2945 23.7748V-70.0009ZM-39.2945 35.2261C-38.0943 35.0895 -37.0158 34.5043 -36.2157 33.6069L11.3936 77.2856C10.8544 78.2025 10.5413 79.2755 10.5413 80.446C10.5413 82.0651 11.1501 83.5282 12.1068 84.5817L-37.1028 154.713C-37.7464 154.265 -38.4944 153.972 -39.2945 153.875V35.2261ZM-39.2945 165.326C-37.729 165.131 -36.3722 164.194 -35.5547 162.809L-20.2821 171.783L52.3756 214.506C52.2712 214.877 52.1842 215.267 52.1842 215.676C52.1842 216.418 52.3756 217.12 52.7234 217.686L-34.4066 305.375L-36.407 307.384C-37.1898 306.584 -38.1987 306.077 -39.3119 305.941V165.306L-39.2945 165.326ZM103.012 428.335L-36.3374 392.323C-36.3374 392.323 -36.32 392.128 -36.32 392.05C-36.32 390.079 -37.6246 388.441 -39.3119 388.148V317.392C-38.0073 317.236 -36.8419 316.553 -36.0243 315.5L64.3257 396.029L103.377 427.359C103.22 427.671 103.099 427.984 102.994 428.315L103.012 428.335ZM104.02 426.384L-35.3807 314.505C-34.9633 313.666 -34.6849 312.71 -34.6849 311.676C-34.6849 311.461 -34.7197 311.247 -34.7371 311.032L74.3973 283.74C75.093 286.023 76.9891 287.681 79.2678 287.681C79.4591 287.681 79.6331 287.642 79.8244 287.622L106.282 424.745C105.412 425.077 104.647 425.643 104.055 426.384H104.02ZM107.865 424.433C107.673 424.433 107.499 424.472 107.308 424.492L87.6346 322.503L80.8507 287.369C81.303 287.193 81.7378 286.979 82.1379 286.686L140.81 364.758L109.952 424.921C109.308 424.609 108.613 424.414 107.865 424.414V424.433ZM204.457 451.432L112.961 430.754C112.961 430.578 113.013 430.403 113.013 430.227C113.013 428.296 112.161 426.618 110.874 425.565L141.541 365.772L205.066 450.32C204.805 450.652 204.597 451.023 204.457 451.452V451.432ZM142.115 364.641L156.344 336.9C156.779 337.076 157.231 337.193 157.718 337.193C158.327 337.193 158.901 337.037 159.405 336.763L205.466 448.935L142.132 364.641H142.115ZM206.719 449.111L160.31 336.081C161.162 335.261 161.701 334.071 161.701 332.706C161.701 332.452 161.666 332.218 161.632 331.964L200.004 322.679C200.631 324.844 202.37 326.424 204.457 326.619L206.997 449.013C206.893 449.033 206.806 449.072 206.719 449.091V449.111ZM208.076 449.013L207.328 413.235L205.536 326.6C206.632 326.444 207.606 325.917 208.371 325.117L300.702 415.596C300.285 416.298 300.041 417.157 300.041 418.054C300.041 418.327 300.076 418.581 300.111 418.834L249.614 436.996L210.633 451.023C210.146 449.95 209.206 449.169 208.093 448.994L208.076 449.013ZM244.117 511.361C243.3 511.361 242.517 511.595 241.839 511.986L209.867 455.588C210.563 454.885 211.015 453.89 211.015 452.759C211.015 452.564 210.998 452.388 210.963 452.193L249.997 438.147L300.441 419.985C300.668 420.512 300.981 420.98 301.363 421.37L246.535 512.044C245.805 511.615 245.005 511.342 244.117 511.342V511.361ZM286.891 591.462L247.301 521.642C248.483 520.589 249.266 518.969 249.266 517.136C249.266 516.765 249.231 516.414 249.179 516.082L293.397 501.256C293.744 502.251 294.44 503.031 295.31 503.422L286.891 591.481V591.462ZM287.865 592.652L291.779 551.685L296.371 503.675C296.371 503.675 296.493 503.695 296.545 503.695C297.171 503.695 297.763 503.48 298.267 503.148L395.295 592.652H287.848H287.865ZM340.362 485.494L389.989 468.853C390.72 470.784 392.355 472.169 394.303 472.365L395.59 551.256L396.234 590.974L340.362 485.494ZM397.33 592.125L396.669 551.665L395.382 472.326C396.112 472.228 396.773 471.955 397.382 471.565L413.838 496.164L449.375 549.305C448.714 550.046 448.314 551.06 448.314 552.192C448.314 552.816 448.453 553.401 448.662 553.928L397.33 592.125ZM398.6 592.632L449.253 554.943C449.932 555.781 450.888 556.308 451.967 556.308C453.584 556.308 454.941 555.118 455.428 553.499L547.725 571.778L540.784 592.632H398.6ZM541.95 592.632L548.82 571.993L653.049 592.632H541.95ZM655.78 591.93L549.221 570.822L581.296 474.549C581.714 474.667 582.131 474.745 582.584 474.745C583.471 474.745 584.306 474.471 585.036 474.023L607.441 510.327L656.755 590.233C656.32 590.701 655.989 591.267 655.798 591.911L655.78 591.93ZM659.051 589.14C658.546 589.16 658.059 589.316 657.624 589.55L585.906 473.34C586.271 472.989 586.602 472.599 586.863 472.15L665.295 517.487L659.051 589.14ZM660.129 589.257L666.339 518.092L729.76 554.767C729.621 555.235 729.517 555.723 729.517 556.23C729.517 556.659 729.586 557.069 729.691 557.459L662.321 591.033C661.834 590.155 661.051 589.53 660.129 589.257ZM732.943 592.632H662.86C662.843 592.476 662.808 592.301 662.773 592.145L730.143 558.571C730.752 559.664 731.761 560.424 732.961 560.619V592.632H732.943ZM732.943 551.841C731.83 552.016 730.873 552.68 730.247 553.674L666.443 516.785L672.236 450.34C675.071 450.32 677.35 447.745 677.35 444.565C677.35 444.312 677.315 444.058 677.28 443.805L732.926 428.647V551.841H732.943ZM732.943 427.379L677.037 442.615C676.967 442.381 676.863 442.146 676.758 441.912L732.926 400.497V427.379H732.943ZM732.943 398.858L679.037 408.631C678.741 407.559 678.115 406.661 677.263 406.095L732.021 260.194C732.317 260.292 732.63 260.37 732.961 260.409V398.858H732.943Z" fill="#91928E"/>
</svg>
