<svg width="1720" height="1390" viewBox="0 0 1720 1390" fill="none" xmlns="http://www.w3.org/2000/svg">
<path d="M906.251 1115.46L829.813 1152.35C830.445 1155.11 829.162 1158.14 826.795 1159.28C824.427 1160.43 821.87 1159.25 820.88 1156.66L728.557 1201.23C729.19 1203.98 727.907 1207.01 725.539 1208.16C723.172 1209.31 720.614 1208.13 719.624 1205.54L610.195 1258.35C610.828 1261.11 609.545 1264.14 607.177 1265.29C604.81 1266.43 602.252 1265.25 601.262 1262.66L547.637 1288.54C548.27 1291.3 546.986 1294.33 544.619 1295.47C542.129 1296.67 539.416 1295.33 538.55 1292.5C537.848 1290.17 538.6 1287.61 540.224 1286.06L470.701 1161.71C470.495 1161.86 470.288 1162.01 470.059 1162.11C467.569 1163.3 464.856 1161.96 463.99 1159.13C463.282 1156.76 464.074 1154.12 465.781 1152.61L422.752 1070.51C422.573 1070.63 422.411 1070.75 422.221 1070.84C419.731 1072.04 417.019 1070.7 416.152 1067.86C415.891 1066.99 415.847 1066.06 415.97 1065.19L363.983 1054.74C363.549 1056.39 362.493 1057.85 361.019 1058.55C358.529 1059.74 355.816 1058.4 354.95 1055.57C354.689 1054.7 354.645 1053.77 354.768 1052.89L287.147 1039.29L286.901 1039.45L286.836 1039.24L286.024 1039.08L286.667 1038.68L253.893 930.757L253.621 929.862L253.331 929.985L253.422 929.666L252.449 929.502L253.393 929.068L253.186 928.39L209.847 785.678L175.386 672.192C172.992 673.113 170.491 671.797 169.663 669.086C168.835 666.375 170.008 663.29 172.282 661.96L151.168 592.452L175.84 580.537C175.207 577.78 176.49 574.754 178.857 573.606C181.225 572.458 183.782 573.64 184.772 576.229L279.948 530.28L280.646 529.941L302.085 519.589L302.995 519.144L410.526 467.233C409.893 464.477 411.176 461.45 413.544 460.302C416.034 459.107 418.746 460.448 419.612 463.281C420.478 466.113 419.154 469.41 416.681 470.611C415.368 471.252 414.011 471.159 412.863 470.523L350.181 590.447L416.277 605.752C416.733 604.157 417.766 602.771 419.206 602.063C421.696 600.868 424.409 602.209 425.275 605.041C425.852 606.973 425.432 609.082 424.336 610.622L500.427 696.24C500.864 695.794 501.362 695.389 501.915 695.111C504.405 693.916 507.117 695.257 507.983 698.09C508.849 700.922 507.525 704.219 505.052 705.42C504.354 705.759 503.647 705.878 502.968 705.831L485.164 818.129L502.573 838.774C502.982 838.362 503.452 837.992 503.96 837.743C506.45 836.548 509.163 837.889 510.029 840.722C510.486 842.244 510.314 843.867 509.704 845.238L619.595 920.321C620.141 919.431 620.897 918.696 621.824 918.256C624.314 917.061 627.026 918.402 627.892 921.235C628.05 921.766 628.113 922.31 628.121 922.857L716.363 920.302C716.571 918.233 717.725 916.298 719.523 915.423C722.013 914.228 724.725 915.569 725.591 918.401C726.441 921.228 725.15 924.471 722.705 925.702L756.756 1066.5L794.442 1060.02C794.43 1057.71 795.647 1055.42 797.629 1054.48C800.119 1053.28 802.831 1054.62 803.698 1057.46C804.1 1058.79 804.008 1060.19 803.576 1061.45L906.296 1115.36L906.251 1115.46ZM803.198 1062.33C802.684 1063.36 801.911 1064.22 800.916 1064.77L824.143 1148.81C826.369 1148.03 828.659 1149.19 829.578 1151.58L904.431 1115.45L803.198 1062.33ZM498.736 701.205L430.726 707.579L435.196 754.27C436.705 754.086 438.131 754.768 439.074 756.056L499.361 703.414C499.207 703.124 499.092 702.825 498.989 702.486C498.858 702.052 498.8 701.618 498.764 701.171L498.736 701.205ZM181.972 583.929C181.442 584.192 180.901 584.299 180.361 584.342L174.89 661.37C176.303 661.525 177.571 662.439 178.301 663.898L230.734 631.611L183.605 582.673C183.146 583.199 182.603 583.633 181.972 583.929ZM361.993 1048.51L415.263 960.708C414.859 960.337 414.517 959.877 414.231 959.347L360.162 993.347C360.238 993.524 360.332 993.707 360.403 993.905C361.214 996.61 360.064 999.68 357.823 1001.02L359.604 1047.82C360.467 1047.8 361.289 1048.04 361.993 1048.51ZM821 1151.9L772.568 1120.72C772.011 1121.65 771.238 1122.45 770.272 1122.9C768.96 1123.54 767.586 1123.44 766.455 1122.81L726.84 1198.31C727.477 1198.83 727.995 1199.56 728.323 1200.45L820.645 1155.89C820.337 1154.54 820.469 1153.13 821.006 1151.88L821 1151.9ZM719.619 926.114L682.968 1035.48L701.891 1071.29C702.07 1071.17 702.254 1071.04 702.444 1070.95C703.052 1070.67 703.66 1070.52 704.261 1070.51L720.097 926.226C719.941 926.198 719.785 926.169 719.619 926.114ZM359.816 992.645L413.935 958.597C413.935 958.597 413.892 958.496 413.87 958.445C413.614 957.62 413.569 956.756 413.658 955.935L355.754 946.435L357.435 990.715C358.385 991.024 359.232 991.692 359.816 992.645ZM418.382 612.28L389.46 664.059L373.65 692.376L364.295 709.125C364.964 709.714 365.516 710.525 365.832 711.522C365.962 711.957 366.021 712.39 366.057 712.838L405.722 709.118L419.58 612.801C419.152 612.706 418.747 612.53 418.359 612.295L418.382 612.28ZM311.449 587.648L295.354 691.411C295.716 691.485 296.054 691.639 296.381 691.833L329.182 629.087L313.489 587.265C312.813 587.59 312.122 587.714 311.443 587.668L311.449 587.648ZM605.423 1254.6C606.008 1254.53 606.575 1254.58 607.108 1254.76L649.19 1133.84C648.131 1133.27 647.269 1132.27 646.85 1130.87C646.675 1130.34 646.618 1129.77 646.616 1129.21L598.949 1130.15L597.341 1130.17C597.116 1132.23 595.968 1134.15 594.198 1134.99C593.986 1135.09 593.752 1135.15 593.529 1135.23L596.58 1165.91L605.412 1254.57L605.423 1254.6ZM722.402 1197.85C722.531 1197.78 722.642 1197.78 722.765 1197.73L720.415 1182.82L704.493 1081.62C702.989 1081.92 701.49 1081.36 700.485 1080.16L676.204 1104.41L655.262 1125.33C655.482 1125.7 655.68 1126.1 655.822 1126.56C656.388 1128.4 656.013 1130.41 655.029 1131.94L720.719 1199.16C721.184 1198.61 721.743 1198.18 722.38 1197.87L722.402 1197.85ZM579.694 999.57C579.566 999.637 579.465 999.735 579.337 999.802C577.857 1000.52 576.311 1000.32 575.121 999.454L531.696 1067.2C531.96 1067.61 532.185 1068.03 532.332 1068.54C532.348 1068.61 532.348 1068.68 532.37 1068.73L603.883 1050.28L579.7 999.55L579.694 999.57ZM623.744 929.063C623.455 929.121 623.176 929.139 622.887 929.132L606.332 1040.25L604.8 1050.52L604.981 1050.9L604.724 1050.97L604.596 1051.87L593.795 1124.41C595.285 1124.75 596.562 1125.95 597.123 1127.74C597.298 1128.28 597.355 1128.84 597.357 1129.41L599.155 1129.36L646.638 1128.43C646.863 1126.36 648.011 1124.45 649.781 1123.61C649.932 1123.53 650.104 1123.5 650.249 1123.43L632.298 991.865L623.733 929.102L623.744 929.063ZM591.066 1124.72C591.742 1124.4 592.433 1124.27 593.1 1124.3L604.005 1051.13L532.554 1069.55C532.659 1070.39 532.581 1071.24 532.37 1072.04L589.309 1126.16C589.792 1125.55 590.391 1125.05 591.066 1124.72ZM531.238 1066.57L574.584 998.974C574.075 998.46 573.673 997.827 573.4 997.063L528.755 1017.26C529.327 1019.97 528.044 1022.93 525.722 1024.05C525.51 1024.16 525.292 1024.22 525.091 1024.28L529.437 1065.35C530.12 1065.57 530.746 1066 531.26 1066.56L531.238 1066.57ZM465.787 914.96C465.65 914.675 465.513 914.391 465.42 914.077C464.56 911.225 465.878 907.948 468.352 906.747L436.191 765.255C435.857 765.342 435.528 765.409 435.216 765.417L419.202 950.741C420.342 950.895 421.378 951.537 422.106 952.559L452.007 926.802L465.77 914.954L465.787 914.96ZM241.009 801.208L267.049 853.854C267.183 853.767 267.323 853.66 267.474 853.578C268.172 853.239 268.863 853.115 269.541 853.162L292.927 702.393C292.088 702.207 291.318 701.717 290.716 701.019L225.309 769.479L240.998 801.183L241.009 801.208ZM356.695 712.973L298.602 698.464C298.135 700.034 297.113 701.38 295.695 702.074C294.997 702.413 294.307 702.537 293.628 702.491L270.242 853.259C270.753 853.382 271.23 853.624 271.673 853.921L358.158 718.049C357.589 717.493 357.121 716.774 356.848 715.879C356.554 714.933 356.533 713.923 356.695 712.973ZM272.232 854.386C272.802 854.942 273.27 855.662 273.542 856.557C273.608 856.774 273.64 856.981 273.672 857.188L310.689 848.332L354.925 837.729L360.733 719.236C360.004 719.173 359.327 718.931 358.723 718.495L331.464 761.331L272.255 854.372L272.232 854.386ZM387.116 824.926L362.426 719.875L362.247 719.097C361.969 719.181 361.718 719.23 361.44 719.248L355.644 837.57L383.966 830.789C383.837 828.371 385.061 825.936 387.116 824.926ZM351.447 878.65C351.933 878.416 352.44 878.298 352.924 878.259L353.209 872.356L354.858 838.601L294.379 853.094L273.755 858.043C273.779 858.596 273.748 859.153 273.65 859.688L348.614 882.066C349.108 880.592 350.09 879.32 351.441 878.67L351.447 878.65ZM384.06 831.605L355.582 838.422L353.637 878.251C354.399 878.325 355.109 878.578 355.741 879.045L385.428 834.339C384.892 833.794 384.457 833.086 384.206 832.241C384.141 832.024 384.109 831.817 384.077 831.61L384.06 831.605ZM362.923 718.837L363.507 721.317L387.807 824.671C388.264 824.537 388.705 824.462 389.133 824.493L405.611 709.954L366.096 713.657C365.981 715.844 364.787 717.918 362.923 718.837ZM385.975 834.845L356.288 879.55C356.825 880.096 357.259 880.804 357.51 881.649C358.093 883.561 357.678 885.649 356.599 887.195L390.425 924.695L415.302 952.284C415.728 951.812 416.237 951.433 416.79 951.155L389.6 835.48C388.306 835.865 387.011 835.618 385.975 834.845ZM423.133 956.294C423.095 957.001 422.929 957.71 422.674 958.347L520.182 1016.1C520.745 1015.08 521.546 1014.26 522.563 1013.76C522.775 1013.65 522.992 1013.59 523.193 1013.53L516.805 953.217C514.744 953.484 512.799 952.197 512.085 949.85C511.955 949.415 511.885 948.956 511.85 948.509L469.268 952.238L423.139 956.274L423.133 956.294ZM425.048 1063.3L519.506 1020.57C519.248 1019.31 519.362 1018.01 519.821 1016.85L493.966 1001.55L422.313 959.101C421.75 960.117 420.949 960.946 419.932 961.444C419.575 961.611 419.196 961.727 418.834 961.783L420.879 1060.12C422.671 1060.09 424.316 1061.28 425.037 1063.28L425.048 1063.3ZM178.61 668.489C178.286 669.626 177.633 670.635 176.766 671.377L224.963 768.777L290.286 700.421C290.038 700.014 289.813 699.592 289.649 699.081C289.355 698.135 289.334 697.125 289.496 696.175L247.721 685.735L178.616 668.469L178.61 668.489ZM391.979 825.812C392.515 826.357 392.95 827.065 393.201 827.91C394.067 830.742 392.748 834.019 390.291 835.225L417.481 950.901C417.822 950.793 418.167 950.731 418.495 950.729L434.509 765.405C433.825 765.313 433.187 765.062 432.617 764.636L409.996 798.693L391.973 825.832L391.979 825.812ZM473.543 915.218C473.009 916.003 472.309 916.669 471.466 917.07C469.501 918.022 467.396 917.358 466.178 915.632L452.481 927.436L422.514 953.237C422.651 953.521 422.788 953.806 422.881 954.119C423.011 954.554 423.081 955.013 423.117 955.46L468.421 951.505L511.821 947.714C511.866 946.792 512.134 945.92 512.523 945.131L490.287 928.059L473.543 915.218ZM518.142 952.868C517.93 952.974 517.713 953.034 517.512 953.099L523.9 1013.41C525.867 1013.15 527.745 1014.35 528.516 1016.5L573.16 996.309C572.864 994.861 573.08 993.339 573.717 992.065L520.22 951.016C519.686 951.801 518.986 952.467 518.142 952.868ZM580.969 990.327C581.539 990.883 581.99 991.597 582.262 992.492C583.003 994.935 582.134 997.661 580.32 999.163L604.251 1049.38L615.377 974.736L622.175 929.075C621.647 928.947 621.148 928.719 620.694 928.396L609.064 946.542L580.98 990.352L580.969 990.327ZM526.258 1065.58C527.062 1065.19 527.87 1065.1 528.642 1065.2L524.328 1024.47C522.362 1024.72 520.483 1023.52 519.713 1021.38L494.683 1032.69L425.26 1064.09C425.362 1064.56 425.409 1065.04 425.406 1065.49L523.345 1069.28C523.801 1067.68 524.834 1066.3 526.269 1065.61L526.258 1065.58ZM413.803 955.11C413.997 954.301 414.336 953.561 414.797 952.904L404.427 941.397L403.168 940.006L356.111 887.821C355.668 888.287 355.17 888.691 354.601 888.964C354.266 889.116 353.942 889.229 353.597 889.291L355.727 945.576L413.808 955.09L413.803 955.11ZM352.878 889.384C351.052 889.465 349.368 888.285 348.636 886.259L255.234 929.123L355.009 945.473L352.878 889.384ZM348.424 885.471C348.235 884.602 348.236 883.709 348.408 882.849L273.444 860.471C272.95 861.945 271.968 863.217 270.616 863.867C269.812 864.259 269.005 864.345 268.215 864.241L254.358 928.619L348.43 885.451L348.424 885.471ZM329.544 629.989L297.013 692.234C297.755 692.825 298.328 693.687 298.66 694.755C298.954 695.701 298.976 696.71 298.813 697.66L356.906 712.17C357.299 710.859 358.086 709.698 359.176 708.941L335.57 646.056L329.538 630.009L329.544 629.989ZM473.988 914.49L512.968 944.403C513.501 943.618 514.201 942.952 515.045 942.551C515.257 942.445 515.474 942.385 515.675 942.32L512.848 915.566L474.601 912.662C474.491 913.302 474.281 913.91 473.993 914.47L473.988 914.49ZM516.377 942.156C518.438 941.89 520.383 943.177 521.096 945.524C521.587 947.122 521.364 948.859 520.647 950.283L574.145 991.332C574.454 990.887 574.807 990.479 575.216 990.133L540.687 917.675L513.56 915.623L516.377 942.156ZM540.281 916.802L507.46 847.93C507.331 847.997 507.231 848.095 507.102 848.162C506.89 848.268 506.672 848.328 506.472 848.393L513.504 914.798L540.292 916.827L540.281 916.802ZM654.888 1124.66L700.094 1079.49C699.874 1079.11 699.676 1078.72 699.535 1078.26C698.821 1075.92 699.612 1073.27 701.303 1071.75L682.666 1036.47L653.499 1123.53C654.026 1123.79 654.496 1124.18 654.905 1124.67L654.888 1124.66ZM707.899 1079.07C707.342 1080 706.569 1080.79 705.603 1081.24C705.475 1081.31 705.363 1081.32 705.241 1081.36L705.929 1085.77L723.496 1197.47C724.46 1197.28 725.416 1197.44 726.248 1197.9L765.862 1122.4C765.137 1121.81 764.541 1120.97 764.226 1119.9C763.774 1118.43 763.912 1116.86 764.5 1115.5L738.122 1098.52L707.883 1079.06L707.899 1079.07ZM720.303 1199.78L654.613 1132.57C654.148 1133.12 653.588 1133.55 652.952 1133.86C651.919 1134.35 650.85 1134.4 649.884 1134.08L607.802 1255C608.751 1255.51 609.535 1256.4 609.995 1257.59L719.424 1204.77C719.029 1203.03 719.386 1201.21 720.303 1199.78ZM601.974 1256.86C602.514 1256.05 603.214 1255.38 604.08 1254.97C604.292 1254.86 604.526 1254.81 604.749 1254.73L592.843 1135.4C590.804 1135.65 588.86 1134.36 588.157 1132.04C588.081 1131.8 588.044 1131.54 588.001 1131.31L501.097 1150.28L473.269 1156.35C473.318 1157.46 473.076 1158.56 472.603 1159.52L519.516 1194.8L601.98 1256.84L601.974 1256.86ZM473.18 1155.52L531.577 1142.77L587.917 1130.46C587.899 1129.82 587.948 1129.2 588.102 1128.6L509.417 1099.23L471.907 1152.77C472.394 1153.3 472.801 1153.98 473.029 1154.77C473.106 1155.01 473.143 1155.27 473.186 1155.5L473.18 1155.52ZM588.352 1127.79C588.488 1127.44 588.658 1127.1 588.843 1126.77L544.331 1084.48L532.114 1072.87C531.583 1074.16 530.651 1075.25 529.423 1075.86C528.178 1076.45 526.893 1076.43 525.789 1075.89L509.922 1098.55L588.347 1127.81L588.352 1127.79ZM525.179 1075.48C524.365 1074.89 523.709 1074 523.36 1072.86C523.077 1071.94 523.045 1070.97 523.195 1070.06L425.362 1066.28C425.333 1066.52 425.292 1066.72 425.246 1066.94L509.217 1098.27L525.174 1075.5L525.179 1075.48ZM354.379 990.897C355.161 990.519 355.974 990.413 356.747 990.512L355.071 946.278L255.802 930.005L352.846 992.055C353.295 991.569 353.809 991.169 354.379 990.897ZM194.569 708.937L176.184 671.754C176.184 671.754 176.117 671.798 176.078 671.807L210.202 784.181L224.437 769.282L194.575 708.917L194.569 708.937ZM178.631 664.593C178.631 664.593 178.664 664.67 178.675 664.695C178.969 665.641 178.99 666.651 178.828 667.601L289.708 695.306C289.884 694.688 290.155 694.122 290.481 693.618L231.304 632.167L178.608 664.608L178.631 664.593ZM290.981 692.952C291.441 692.426 291.984 691.992 292.615 691.696C292.866 691.582 293.111 691.487 293.368 691.418L286.066 603.582C284.323 603.756 282.682 602.808 281.814 601.065L232.014 631.723L290.964 692.947L290.981 692.952ZM287.538 603.211C287.287 603.326 287.041 603.42 286.785 603.489L294.086 691.325C294.292 691.305 294.498 691.285 294.693 691.305L310.788 587.541C309.56 587.25 308.48 586.376 307.849 585.08L290.436 595.805C290.436 595.805 290.469 595.881 290.48 595.907C291.341 598.759 290.022 602.036 287.549 603.237L287.538 603.211ZM314.187 586.795L323.319 611.111L329.712 628.126L349.097 591.053L316.497 583.492C316.109 584.848 315.317 586.029 314.21 586.78L314.187 586.795ZM420.359 612.815L406.524 708.987L429.969 706.787L420.972 612.775C420.766 612.795 420.56 612.815 420.359 612.815ZM406.408 709.842L389.906 824.526C390.473 824.646 391.006 824.884 391.482 825.257L432.125 764.062C431.589 763.517 431.154 762.808 430.904 761.964C430.043 759.111 431.362 755.834 433.835 754.634C434.064 754.534 434.287 754.454 434.521 754.4L430.052 707.643L406.402 709.862L406.408 709.842ZM436.972 764.942L458.319 858.877L469.127 906.455C469.584 906.32 470.052 906.276 470.503 906.292L484.415 818.518L438.359 763.912C437.95 764.323 437.48 764.694 436.972 764.942ZM474.724 911.787L512.776 914.67L505.77 848.491C504.901 848.601 504.073 848.44 503.33 848.046L472.807 907.151C473.548 907.742 474.144 908.589 474.47 909.677C474.672 910.375 474.762 911.08 474.724 911.787ZM575.892 989.677C576.021 989.61 576.122 989.512 576.25 989.445C577.73 988.727 579.276 988.925 580.466 989.793L620.196 927.842C619.627 927.286 619.175 926.572 618.903 925.677C618.702 924.979 618.612 924.274 618.65 923.567L541.583 917.727L575.87 989.692L575.892 989.677ZM624.971 928.655C624.821 928.737 624.648 928.768 624.503 928.83L640.47 1045.8L651.036 1123.17C651.666 1123.07 652.278 1123.09 652.861 1123.28L682.244 1035.59L625.541 928.318C625.362 928.434 625.178 928.57 624.988 928.661L624.971 928.655ZM708.283 1078.3L743.615 1101.03L764.9 1114.74C765.435 1113.82 766.202 1113.05 767.135 1112.59L756.232 1067.51L708.796 1075.68C708.806 1076.59 708.628 1077.47 708.283 1078.3ZM772.974 1119.94L821.406 1151.12C821.907 1150.26 822.624 1149.53 823.484 1149.07L800.258 1065.03C799.087 1065.44 797.913 1065.34 796.926 1064.78L771.595 1113.04C772.32 1113.62 772.916 1114.47 773.231 1115.53C773.683 1117.01 773.545 1118.58 772.957 1119.93L772.974 1119.94ZM540.867 1285.53C541.074 1285.38 541.281 1285.23 541.51 1285.13C543.877 1283.98 546.435 1285.17 547.425 1287.75L601.051 1261.87C600.71 1260.39 600.926 1258.87 601.558 1257.55L540.945 1211.96L472.164 1160.22C471.917 1160.58 471.636 1160.92 471.317 1161.21L540.839 1285.57L540.867 1285.53ZM466.436 1152.1C466.615 1151.98 466.777 1151.86 466.967 1151.77C468.507 1151.03 470.153 1151.26 471.371 1152.23L508.717 1098.94L424.997 1067.69C424.651 1068.58 424.095 1069.38 423.412 1069.99L466.441 1152.08L466.436 1152.1ZM416.165 1064.32C416.599 1062.67 417.655 1061.2 419.129 1060.51C419.486 1060.34 419.865 1060.22 420.227 1060.17L418.182 961.833C417.359 961.848 416.576 961.593 415.889 961.13L362.619 1048.93C363.222 1049.5 363.718 1050.25 364.012 1051.19C364.273 1052.06 364.317 1052.99 364.194 1053.87L416.182 1064.32L416.165 1064.32ZM354.969 1052C355.402 1050.35 356.453 1048.91 357.932 1048.19C358.267 1048.04 358.591 1047.93 358.936 1047.86L357.17 1001.33C354.938 1002.2 352.614 1001.09 351.656 998.709L288.237 1038.6L354.98 1052.03L354.969 1052ZM351.388 997.924C350.927 996.096 351.335 994.157 352.336 992.695L254.537 930.16L287.349 1038.2L302.198 1028.87L351.382 997.944L351.388 997.924ZM253.824 927.813L267.56 864.049C266.211 863.61 265.088 862.503 264.582 860.834C263.846 858.436 264.694 855.725 266.468 854.232L224.811 770.014L210.475 785.011L253.846 927.799L253.824 927.813ZM172.968 661.595C173.381 661.424 173.805 661.344 174.217 661.303L179.688 584.275C178.136 584.097 176.752 583.014 176.085 581.271L152.089 592.861L172.968 661.595ZM185.035 576.969C185.429 578.71 185.066 580.554 184.133 581.973L231.472 631.132L281.519 600.314C281.519 600.314 281.486 600.238 281.475 600.213C280.615 597.36 281.933 594.083 284.407 592.883C284.658 592.769 284.903 592.674 285.16 592.605L280.048 531.076L185.024 576.943L185.035 576.969ZM280.735 530.777L285.862 592.506C286.162 592.474 286.468 592.486 286.769 592.518L302.006 520.501L280.735 530.777ZM287.469 592.681C288.568 593.039 289.537 593.856 290.124 595.05L307.537 584.325C307.537 584.325 307.504 584.248 307.493 584.223C306.633 581.37 307.951 578.094 310.424 576.893C310.553 576.826 310.686 576.804 310.809 576.757L302.443 521.842L287.446 592.695L287.469 592.681ZM302.928 520.082L311.529 576.533C312.916 576.266 314.293 576.736 315.277 577.754L322.191 569.933L411.387 469.127C411.155 468.79 410.952 468.419 410.799 467.998L302.933 520.062L302.928 520.082ZM412.293 470.163C412.143 470.049 412.005 469.895 411.867 469.741L358.485 530.081L315.751 578.388C316.06 578.837 316.324 579.315 316.504 579.897C316.787 580.818 316.82 581.788 316.663 582.718L349.486 590.33L412.287 470.183L412.293 470.163ZM349.808 591.241L330.045 629.063L359.847 708.505C361.198 707.855 362.6 707.985 363.747 708.685L373.147 691.841L411.852 622.516L417.811 611.855C417.142 611.266 416.591 610.455 416.274 609.458C415.991 608.537 415.959 607.567 416.115 606.637L349.803 591.261L349.808 591.241ZM423.853 611.293C423.416 611.739 422.918 612.144 422.365 612.422C422.136 612.522 421.913 612.602 421.679 612.656L430.676 706.734L498.741 700.357C498.805 699.113 499.242 697.904 499.938 696.931L423.847 611.313L423.853 611.293ZM502.284 705.805C501.311 705.575 500.447 704.967 499.796 704.057L439.515 756.679C439.669 756.969 439.8 757.274 439.887 757.607C440.492 759.57 440.015 761.747 438.864 763.291L484.55 817.472L502.25 705.794L502.284 705.805ZM485.012 819.235L471.192 906.364C471.531 906.453 471.875 906.587 472.191 906.755L502.715 847.649C501.973 847.059 501.377 846.211 501.051 845.124C500.446 843.161 500.922 840.984 502.073 839.44L485.017 819.215L485.012 819.235ZM509.342 846.057C509.005 846.602 508.595 847.079 508.12 847.469L541.177 916.853L618.761 922.731C618.865 922.176 619.013 921.658 619.245 921.166L509.353 846.083L509.342 846.057ZM628.126 923.796C627.965 925.379 627.254 926.848 626.129 927.855L682.545 1034.6L707.613 959.79L718.986 925.843C717.904 925.295 717.015 924.264 716.596 922.863C716.438 922.332 716.375 921.788 716.351 921.235L628.109 923.791L628.126 923.796ZM722.034 926.072C721.638 926.183 721.248 926.274 720.848 926.275L712.742 1000.22L705.029 1070.57C706.607 1070.84 707.996 1072.04 708.568 1073.92C708.661 1074.24 708.72 1074.54 708.773 1074.86L756.07 1066.74L722.051 926.078L722.034 926.072ZM756.967 1067.42L767.838 1112.36C768.953 1112.03 770.065 1112.15 771.008 1112.67L796.339 1064.41C795.613 1063.83 795.018 1062.98 794.702 1061.92C794.61 1061.6 794.551 1061.3 794.497 1060.98L756.961 1067.44L756.967 1067.42Z" fill="#F2B243"/>
<path d="M804.533 1109.22C803.878 1111.51 801.91 1112.92 799.969 1112.64L790.266 1146.61L722.095 1124.41C721.27 1126.35 719.37 1127.45 717.621 1126.88C715.872 1126.31 714.867 1124.28 715.198 1122.17L467.855 1041.64L467.398 1043.37L467.098 1041.68L466.691 1041.83L466.839 1041.31L362.884 1007.47L362.42 1008.64L362.117 1007.22L361.818 1007.12L362.004 1006.66L344.173 921.387C343.393 921.569 342.591 921.57 341.808 921.315C339.076 920.426 337.635 917.057 338.564 913.806C339.099 911.931 340.322 910.519 341.762 909.811L327.615 842.179C327.158 842.249 326.691 842.227 326.241 842.081C324.442 841.495 323.488 839.288 324.103 837.134C324.12 837.074 324.132 837.034 324.143 836.994L242.554 787.323C241.237 789.51 238.887 790.663 236.688 789.947C233.955 789.058 232.514 785.689 233.443 782.438C233.511 782.199 233.613 781.97 233.709 781.762L110.763 701.512C109.836 702.845 108.317 703.507 106.901 703.046C105.036 702.438 104.038 700.13 104.676 697.896C105.252 695.881 106.98 694.612 108.681 694.839L129.347 622.497C126.956 621.369 125.73 618.267 126.602 615.215C127.474 612.163 130.113 610.319 132.686 610.808L173.762 467.02C171.371 465.893 170.145 462.79 171.017 459.739C171.889 456.687 174.528 454.843 177.101 455.332L211.755 334.023C209.364 332.895 208.138 329.793 209.01 326.741C209.882 323.69 212.521 321.845 215.094 322.334L242.501 226.396C241.187 225.641 240.548 223.863 241.049 222.108C241.613 220.133 243.402 218.972 245.051 219.509C246.701 220.046 247.577 222.075 247.013 224.05C246.803 224.788 246.426 225.406 245.95 225.862L303.081 350.631C303.796 350.297 304.57 350.2 305.336 350.45C307.185 351.052 308.155 353.33 307.528 355.524C307.061 357.159 305.824 358.304 304.47 358.517L301.146 408.972L435.749 441.85C436.686 439.081 439.24 437.471 441.605 438.241C443.971 439.012 445.37 442.083 444.532 445.015C443.951 447.049 442.489 448.47 440.833 448.912L445.17 562.423C445.627 562.419 446.088 562.461 446.538 562.607C449.27 563.496 450.712 566.865 449.783 570.116C449.458 571.253 448.867 572.238 448.144 572.984L527.88 709.647C528.556 709.257 529.336 709.14 530.086 709.384C531.702 709.91 532.568 711.914 532.015 713.849C531.935 714.128 531.822 714.397 531.698 714.64L553.839 736.825L657.398 705.574C657.342 704.75 657.404 703.898 657.643 703.06C658.577 699.789 661.545 697.877 664.261 698.761C666.976 699.645 668.434 703.02 667.505 706.271C667.312 706.949 667.013 707.549 666.675 708.093L753.356 799.666C754.398 798.632 755.82 798.18 757.169 798.619C759.285 799.308 760.414 801.921 759.69 804.454C759.303 805.81 758.456 806.864 757.417 807.442L777.013 891.759L884.178 802.755C883.57 801.38 883.431 799.699 883.903 798.044C884.838 794.773 887.806 792.861 890.521 793.745C893.237 794.629 894.695 798.004 893.766 801.255C892.894 804.306 890.249 806.171 887.682 805.662L802.561 1103.63C804.325 1104.53 805.216 1106.89 804.561 1109.19L804.533 1109.22ZM777.288 893.091L787.173 935.616C787.758 935.479 788.376 935.484 788.992 935.685C789.342 935.799 789.635 935.982 789.924 936.184L884.965 804.08C884.899 803.993 884.827 803.926 884.761 803.839L777.288 893.091ZM791.496 941.515C790.79 943.988 788.587 945.451 786.51 944.883L777.31 969.248C778.363 969.896 779.113 970.969 779.522 972.214L843.916 947.964L791.514 941.389C791.514 941.389 791.491 941.469 791.48 941.509L791.496 941.515ZM686.626 973.341C686.409 974.099 686.071 974.774 685.666 975.361L747.238 1045.83L772.023 980.171C770.443 979.199 769.499 977.278 769.479 975.179L686.787 972.521C686.746 972.792 686.706 973.062 686.632 973.321L686.626 973.341ZM776.311 968.792L785.511 944.427C784.713 943.906 784.14 943.044 783.841 942.052L775.605 944.494L686.887 970.832C686.903 970.968 686.88 971.113 686.896 971.249L769.588 973.906C769.629 973.636 769.669 973.366 769.743 973.107C770.672 969.856 773.607 967.933 776.328 968.797L776.311 968.792ZM535.829 1017.23C535.829 1017.23 535.806 1017.31 535.795 1017.35L576.289 1040.49L619.023 1064.91L677.991 976.285C677.4 975.613 676.961 974.794 676.716 973.865L536.046 1015.64C536.059 1016.17 536.016 1016.7 535.862 1017.24L535.829 1017.23ZM497.57 909.131C497.769 908.433 498.068 907.832 498.428 907.274L447.508 852.676L432.273 836.336C431.943 836.664 431.557 836.931 431.155 837.127L444.694 911.799L497.379 910.246C497.431 909.871 497.501 909.501 497.603 909.142L497.57 909.131ZM395.484 913.043C396.037 911.109 397.675 909.898 399.31 910.103L427.589 836.925C427.345 836.759 427.113 836.552 426.92 836.337L347.926 911.949C348.354 912.742 348.627 913.637 348.676 914.613L395.444 913.248C395.444 913.248 395.478 913.129 395.501 913.049L395.484 913.043ZM358.261 700.926C359.122 697.914 361.705 696.073 364.229 696.481L379.722 637.911C379.106 637.645 378.547 637.245 378.111 636.732L338.6 676.626L318.099 697.333C318.368 697.857 318.526 698.453 318.583 699.082L358.135 701.56C358.175 701.355 358.204 701.125 358.261 700.926ZM249.32 621.878C249.964 619.625 251.588 618.017 253.439 617.53L250.511 552.373C250.261 552.357 250.033 552.327 249.783 552.245C249.017 551.996 248.431 551.434 248.029 550.737L172.634 593.925L136.473 614.636C136.619 615.206 136.688 615.795 136.689 616.428L249.182 622.553C249.228 622.328 249.257 622.098 249.32 621.878ZM291.119 475.557C291.461 474.36 292.08 473.341 292.859 472.592L292.524 471.981L254.477 403.043C253.275 403.808 251.871 404.07 250.521 403.63C249.555 403.316 248.752 402.684 248.168 401.861L180.56 458.202C180.982 459.146 181.164 460.23 181.101 461.343L230.46 467.864L291.051 475.862C291.051 475.862 291.091 475.657 291.114 475.577L291.119 475.557ZM179.881 464.979L225.16 517.588L248.973 545.267C249.824 544.519 250.911 544.219 251.96 544.561C252.144 544.62 252.321 544.7 252.493 544.8L277.712 505.027L292.425 481.825C291.336 480.664 290.752 478.947 290.853 477.127L180.898 462.629C180.898 462.629 180.858 462.834 180.835 462.913C180.613 463.691 180.274 464.366 179.864 464.974L179.881 464.979ZM439.87 566.954C439.927 566.755 440.011 566.586 440.079 566.412L335.553 502.188L254.191 547.271C254.239 547.548 254.27 547.82 254.28 548.106L394.264 562.658L439.817 567.395C439.857 567.255 439.863 567.105 439.903 566.965L439.87 566.954ZM334.361 501.451L300.796 480.822L300.225 480.462C298.908 482.649 296.563 483.782 294.364 483.066C293.981 482.942 293.632 482.763 293.294 482.544L278.676 505.602L253.362 545.518C253.511 545.698 253.638 545.892 253.759 546.105L334.361 501.451ZM254.537 617.385C255.01 617.387 255.471 617.428 255.938 617.58C257.604 618.122 258.785 619.597 259.251 621.406L279.988 615.425L326.993 601.886L327.046 601.446L327.567 601.724L374.99 588.06L439.597 569.438C439.577 569.192 439.606 568.961 439.608 568.7L286.944 552.833L254.087 549.417C254.087 549.417 254.076 549.457 254.07 549.477C253.671 550.873 252.696 551.864 251.586 552.244L252.435 571.138L254.509 617.42L254.537 617.385ZM398.244 582.637L333.798 601.202L329.131 602.56L377.505 629.101C378.789 626.772 381.218 625.535 383.501 626.278C384.3 626.539 384.965 627.017 385.517 627.633L440.436 572.175C440.167 571.716 439.964 571.214 439.812 570.663L398.244 582.637ZM256.648 628.733L289.885 726.43L311.273 702.872C310.546 701.72 310.294 700.177 310.733 698.641C310.972 697.804 311.4 697.071 311.927 696.501L257.269 628.216C257.073 628.392 256.861 628.563 256.632 628.728L256.648 628.733ZM315.114 695.163L326.811 603.222L259.449 622.625C259.494 623.425 259.422 624.252 259.182 625.089C258.943 625.927 258.565 626.676 258.088 627.327L312.856 695.736C313.544 695.305 314.33 695.103 315.114 695.163ZM316.18 695.444C316.652 695.642 317.073 695.953 317.432 696.353L345.301 668.213L377.422 635.766C376.597 634.32 376.336 632.426 376.872 630.551C376.901 630.452 376.951 630.337 376.996 630.243L327.913 603.319L316.186 695.424L316.18 695.444ZM365.273 696.777C367.215 697.628 368.403 699.78 368.387 702.195L426.63 705.853C426.659 705.753 426.654 705.642 426.682 705.543C426.888 704.825 427.225 704.215 427.641 703.718L384.374 637.245C383.306 638.053 382.018 638.418 380.75 638.202L365.257 696.772L365.273 696.777ZM615.822 797.38C615.121 799.833 612.891 801.265 610.859 800.603C610.342 800.435 609.882 800.133 609.495 799.767L588.446 821.757L552.86 858.939C552.953 859.122 553.035 859.345 553.106 859.542L660.866 829.267L661.144 799.229L615.908 797.015C615.874 797.135 615.873 797.265 615.839 797.385L615.822 797.38ZM660.382 881.126L660.84 830.567L553.276 860.797C553.275 860.927 553.28 861.038 553.262 861.163L655.991 885.343C656.718 883.051 658.443 881.476 660.365 881.12L660.382 881.126ZM655.737 886.612L592.849 871.806L552.992 862.427C552.466 863.825 551.346 864.747 550.121 864.893L545.701 903.632L655.694 887.273C655.701 887.058 655.714 886.822 655.743 886.592L655.737 886.612ZM608.806 798.802C608.602 798.43 608.433 798.004 608.335 797.58L524.289 814.451L433.812 832.607C433.805 832.758 433.821 832.894 433.798 833.039L547.033 859.702C547.725 857.856 549.463 856.808 551.078 857.334C551.495 857.47 551.85 857.694 552.165 857.993L608.8 798.821L608.806 798.802ZM608.227 796.302C608.222 796.192 608.223 796.061 608.235 795.956L577.233 788.98L472.22 765.343C471.241 768.513 468.33 770.355 465.647 769.482C465.398 769.4 465.159 769.279 464.937 769.163L455.477 786.598L432.439 828.999C433.053 829.592 433.493 830.411 433.687 831.324L523.272 813.357L608.227 796.302ZM464.029 768.519C462.402 767.074 461.685 764.486 462.403 761.972C462.699 760.935 463.228 760.039 463.851 759.326L454.535 745.023L432.097 710.554C431.712 710.821 431.276 711.006 430.825 711.121L430.314 828.024C430.564 828.04 430.803 828.096 431.053 828.178C431.203 828.226 431.342 828.315 431.486 828.384L438.478 815.509L463.99 768.528L464.029 768.519ZM466.11 757.729L460.511 709.253L434.037 707.588C434.009 707.688 433.997 707.793 433.968 707.893C433.763 708.611 433.425 709.22 433.01 709.717L464.747 758.484C465.166 758.163 465.624 757.898 466.11 757.729ZM461.482 708.021L526.094 712.074C526.094 712.074 526.106 712.034 526.111 712.014L457.62 674.434L461.504 708.007L461.482 708.021ZM456.417 673.802L386.112 635.238C385.881 635.665 385.606 636.055 385.287 636.408L428.537 702.876C429.442 702.256 430.529 702.021 431.579 702.362C433.145 702.872 434.119 704.497 434.162 706.321L460.352 707.959L456.4 673.797L456.417 673.802ZM366.261 707.214L428.263 828.512C428.587 828.334 428.916 828.201 429.245 828.134L429.761 711.21C429.533 711.18 429.305 711.149 429.089 711.079C427.523 710.569 426.548 708.944 426.505 707.12L368.262 703.462C368.221 703.667 368.192 703.897 368.135 704.097C367.776 705.353 367.107 706.422 366.267 707.194L366.261 707.214ZM400.349 910.42C401.28 910.919 401.891 911.903 402.095 913.038L443.542 911.816L430.068 837.493C429.572 837.571 429.071 837.539 428.588 837.381L400.349 910.42ZM400.474 917.437L466.313 1037.48L443.772 913.112L402.165 914.325C402.141 914.6 402.077 914.885 401.998 915.164C401.718 916.141 401.168 916.922 400.474 917.437ZM499.186 906.278C500.537 904.865 502.411 904.232 504.193 904.812C504.959 905.062 505.597 905.509 506.138 906.1L547.177 863.215C546.836 862.559 546.691 861.792 546.741 860.98L433.489 834.312C433.364 834.685 433.195 835.023 433.015 835.335L467.125 871.903L499.186 906.278ZM506.833 907.045C507.24 907.723 507.491 908.502 507.619 909.329L524.504 906.825L544.586 903.836L549.047 864.827C549.047 864.827 548.997 864.81 548.964 864.8C548.548 864.664 548.193 864.44 547.878 864.141L506.839 907.025L506.833 907.045ZM504.613 916.155L512.595 944.369L531.702 1011.85C531.881 1011.8 532.07 1011.77 532.259 1011.75L537.951 961.868L544.427 905.158L538.244 906.088L507.683 910.636C507.662 911.218 507.592 911.783 507.426 912.362C506.936 914.077 505.887 915.392 504.613 916.155ZM533.344 1011.84C533.344 1011.84 533.444 1011.87 533.511 1011.89C534.027 1012.06 534.47 1012.36 534.852 1012.74L646.23 901.088L656.489 890.802C656.125 890.161 655.869 889.401 655.763 888.626L545.558 905.025L533.355 1011.86L533.344 1011.84ZM535.53 1013.68C535.645 1013.92 535.744 1014.15 535.82 1014.39L676.491 972.614C676.43 971.809 676.507 970.962 676.747 970.125C677.26 968.33 678.393 966.976 679.756 966.221L665.705 909.15L661.76 893.129C660.929 893.36 660.05 893.379 659.2 893.102C658.401 892.842 657.719 892.358 657.172 891.723L535.536 1013.66L535.53 1013.68ZM683.365 965.826C684.331 966.141 685.134 966.773 685.735 967.601L741.214 921.525L678.791 895.403L665.438 889.814C664.845 891.125 663.904 892.126 662.809 892.707L676.155 946.954L680.788 965.794C681.619 965.563 682.498 965.544 683.348 965.821L683.365 965.826ZM686.329 968.644C686.46 968.949 686.57 969.268 686.656 969.601L738.866 954.094L783.615 940.802C783.591 940.314 783.639 939.828 783.764 939.324L742.435 922.032L686.335 968.624L686.329 968.644ZM776.309 893.906L743.555 921.11L771.592 932.854L784.178 938.129C784.624 937.206 785.319 936.495 786.101 936.052L776.303 893.926L776.309 893.906ZM665.438 883.949C666.075 885.29 666.276 886.947 665.858 888.599L742.334 920.604L776.016 892.634L756.334 807.917C755.749 808.054 755.131 808.049 754.514 807.848C753.848 807.631 753.294 807.211 752.847 806.673L665.438 883.949ZM704.564 818.314L661.939 830.292L661.467 881.087C661.823 881.115 662.19 881.17 662.557 881.289C663.473 881.587 664.231 882.183 664.816 882.94L696.871 854.614L752.219 805.684C752.115 805.476 752.055 805.238 751.996 805.001L704.581 818.319L704.564 818.314ZM751.782 803.71L662.212 799.315L661.947 828.987L702.22 817.66L751.776 803.73L751.787 803.69L751.782 803.71ZM663.018 710.761L662.215 798.03L751.896 802.418C751.936 802.278 751.937 802.148 751.977 802.008C752.113 801.529 752.322 801.118 752.547 800.711L665.85 709.133C665.043 709.982 664.06 710.556 663.001 710.756L663.018 710.761ZM660.093 710.289L614.724 792.618C615.503 793.395 615.963 794.526 616.011 795.762L661.135 797.983L661.937 710.846C661.581 710.817 661.214 710.763 660.848 710.644C660.581 710.557 660.343 710.436 660.11 710.294L660.093 710.289ZM554.772 737.892L609.624 792.877C610.633 791.832 612.044 791.354 613.36 791.782C613.51 791.831 613.649 791.92 613.793 791.988L659.163 709.659C658.383 708.947 657.822 707.98 657.534 706.883L554.772 737.892ZM472.515 762.714C472.546 763.182 472.543 763.639 472.478 764.119L563.172 784.533L608.493 794.732C608.585 794.413 608.737 794.135 608.889 793.858L553.44 738.287L472.521 762.694L472.515 762.714ZM471.984 760.557C472.122 760.842 472.214 761.155 472.29 761.463L552.417 737.278L530.873 715.679C530.072 716.443 529.013 716.774 527.996 716.443C527.497 716.28 527.076 715.969 526.739 715.554L471.973 760.532L471.984 760.557ZM526.156 714.536C526.019 714.186 525.944 713.813 525.913 713.41L461.59 709.364L467.152 757.523C467.753 757.458 468.382 757.488 468.982 757.683C469.964 758.003 470.762 758.655 471.363 759.483L526.128 714.505L526.156 714.536ZM446.003 574.423L457.385 672.962L526.586 710.926C526.682 710.783 526.777 710.64 526.884 710.522L447.148 573.858C446.784 574.111 446.405 574.292 445.997 574.443L446.003 574.423ZM441.07 573.144L389.507 625.204L386.157 628.582C386.982 630.028 387.242 631.922 386.706 633.797C386.678 633.897 386.627 634.011 386.582 634.105L412.255 648.197L456.193 672.29L444.916 574.658C444.315 574.724 443.686 574.694 443.087 574.498C442.287 574.238 441.622 573.76 441.07 573.144ZM336.787 501.5L440.605 565.275C441.432 563.909 442.646 562.975 444 562.631L439.663 449.12C439.262 449.12 438.873 449.081 438.473 448.95C437.324 448.576 436.445 447.701 435.89 446.583L336.787 501.5ZM435.448 445.328L301.23 476.625C301.248 477.328 301.181 478.07 300.971 478.808C300.914 479.007 300.829 479.176 300.761 479.35L335.612 500.768L435.475 445.424C435.475 445.424 435.459 445.353 435.453 445.308L435.448 445.328ZM300.959 410.328L296.953 471.134C297.198 471.17 297.443 471.206 297.693 471.288C299.442 471.857 300.661 473.453 301.06 475.371L435.295 444.079C435.291 443.772 435.304 443.471 435.334 443.176L300.953 410.348L300.959 410.328ZM299.886 410.066L257.026 399.6C256.679 400.687 256.1 401.632 255.372 402.332L265.93 421.466L293.743 471.855C294.391 471.434 295.117 471.19 295.868 471.108L299.886 410.066ZM256.825 394.63C257.313 395.726 257.494 397.006 257.318 398.322L299.973 408.743L303.268 358.518C303.168 358.486 303.056 358.493 302.94 358.455C302.357 358.265 301.864 357.887 301.472 357.411L256.825 394.63ZM300.872 356.387C300.61 355.713 300.503 354.937 300.603 354.141L218.636 330.398C218.279 331.394 217.739 332.264 217.078 332.921L249.917 392.424C251.119 391.66 252.523 391.398 253.872 391.837C254.838 392.152 255.641 392.784 256.226 393.606L300.872 356.387ZM216.061 322.649C218.247 323.666 219.431 326.341 218.962 329.131L300.946 352.879C301.195 352.262 301.555 351.704 301.997 351.303L244.865 226.533C244.408 226.733 243.929 226.817 243.45 226.77L216.061 322.649ZM178.062 455.667C178.8 456.016 179.436 456.528 179.916 457.208L247.523 400.867C246.915 399.491 246.759 397.806 247.232 396.15C247.574 394.953 248.193 393.934 248.971 393.185L216.132 333.682C215.087 334.344 213.889 334.586 212.71 334.377L178.056 455.687L178.062 455.667ZM133.647 611.143C134.673 611.63 135.475 612.457 136.007 613.525L138.51 612.094L247.563 549.626C247.418 548.924 247.417 548.161 247.634 547.403C247.754 546.984 247.934 546.607 248.159 546.266L191.051 479.93L179.045 465.993C177.841 467.149 176.268 467.683 174.728 467.4L133.652 611.188L133.647 611.143ZM234.858 779.781L206.608 735.572L134.02 621.947C132.913 622.764 131.614 623.104 130.319 622.856L109.653 695.199C111.183 696.025 111.96 698.087 111.379 700.121C111.35 700.221 111.305 700.315 111.282 700.395L234.228 780.645C234.425 780.338 234.639 780.037 234.874 779.787L234.858 779.781ZM238.359 777.978L253.07 629.531C252.881 629.491 252.703 629.476 252.52 629.417C250.338 628.706 249.006 626.42 249.006 623.869L136.513 617.744C136.467 617.969 136.438 618.199 136.375 618.419C136.073 619.476 135.544 620.372 134.883 621.094L235.72 778.928C236.509 778.335 237.401 778.015 238.331 777.947L238.359 777.978ZM241.839 779.307L288.966 727.417L255.576 629.3C255.124 629.48 254.645 629.564 254.144 629.597L250.379 667.634L239.433 778.044C239.622 778.084 239.8 778.098 239.983 778.158C240.699 778.391 241.314 778.788 241.834 779.327L241.839 779.307ZM325.526 834.894L289.38 728.642L242.546 780.213C243.471 781.692 243.792 783.693 243.233 785.647C243.182 785.827 243.097 785.995 243.029 786.17L324.618 835.841C324.871 835.466 325.185 835.132 325.532 834.874L325.526 834.894ZM326.308 833.622L314.957 704.573C314.377 704.689 313.798 704.675 313.215 704.486C312.749 704.334 312.35 704.073 311.985 703.758L290.255 727.684L326.292 833.617L326.308 833.622ZM327.762 834.205L361.079 708.274C359.136 707.424 357.949 705.271 357.965 702.857L318.502 700.386C318.467 700.636 318.426 700.906 318.352 701.165C317.959 702.542 317.089 703.61 316.033 704.182L327.467 834.218C327.556 834.225 327.668 834.218 327.757 834.225L327.762 834.205ZM330.641 837.387L372.071 835.201L425.739 832.377C425.779 832.107 425.82 831.837 425.9 831.557C426.168 830.62 426.646 829.838 427.251 829.25L365.249 707.953C364.282 708.532 363.196 708.767 362.1 708.585L338.512 797.722L328.779 834.536C329.794 835.062 330.465 836.153 330.618 837.402L330.641 837.387ZM347.22 910.977L426.214 835.366C425.961 834.848 425.798 834.271 425.735 833.662L372.118 836.503L330.632 838.693C330.597 838.878 330.574 839.088 330.517 839.287C330.186 840.444 329.463 841.32 328.591 841.821L342.739 909.453C343.519 909.271 344.32 909.271 345.103 909.525C345.936 909.797 346.64 910.331 347.214 910.997L347.22 910.977ZM396.474 917.355C395.738 916.68 395.299 915.665 395.273 914.545L348.595 915.916C348.542 916.291 348.473 916.661 348.37 917.02C347.835 918.895 346.612 920.307 345.172 921.015L362.696 1004.74L396.479 917.335L396.474 917.355ZM466.187 1039.77L399.402 918.003C398.822 918.185 398.193 918.22 397.593 918.025C397.527 918.003 397.477 917.987 397.432 917.951L379.012 965.605L363.298 1006.27L466.204 1039.77L466.187 1039.77ZM467.576 1038.35L478.561 997.535L500.37 916.474C498.561 915.667 497.394 913.761 497.264 911.539L444.875 913.078L467.576 1038.35ZM528.603 1016.84C528.54 1016.23 528.594 1015.59 528.777 1014.95C529.107 1013.8 529.786 1012.88 530.636 1012.33L512.122 946.918L503.547 916.636C502.861 916.87 502.137 916.918 501.409 916.79L479.468 998.311L468.284 1039.88L528.603 1016.84ZM605.543 1085.14L618.281 1065.98L535.225 1018.51C534.28 1020.04 532.639 1020.81 531.089 1020.31C530.057 1019.97 529.277 1019.13 528.889 1018.06L469.369 1040.8L605.543 1085.14ZM713.063 1120.14L619.268 1066.54L606.659 1085.5L713.063 1120.14ZM717.274 1118.85L693.383 1021.78L682.529 977.675C681.698 977.906 680.819 977.925 679.969 977.649C679.536 977.508 679.159 977.298 678.793 977.048L619.954 1065.48L715.845 1120.29C716.216 1119.69 716.704 1119.19 717.251 1118.87L717.274 1118.85ZM746.718 1047.14L684.842 976.335C684.461 976.713 684.03 977.009 683.578 977.254L718.323 1118.43C718.808 1118.33 719.303 1118.32 719.809 1118.46L746.718 1047.14ZM722.388 1121.41L796.716 1108.09C796.73 1107.66 796.783 1107.22 796.908 1106.78C797.062 1106.24 797.288 1105.77 797.569 1105.36L747.54 1048.09L720.807 1118.91C721.616 1119.46 722.178 1120.36 722.388 1121.41ZM798.908 1112.34C797.827 1111.79 797.072 1110.67 796.808 1109.36L722.48 1122.69C722.467 1122.86 722.455 1123.03 722.42 1123.21L789.541 1145.06L798.892 1112.33L798.908 1112.34ZM837.454 977.405L779.733 975.553C779.693 975.823 779.652 976.093 779.578 976.352C778.649 979.603 775.715 981.526 772.993 980.662L748.039 1046.79L798.371 1104.4C799.256 1103.6 800.371 1103.2 801.489 1103.37L837.471 977.411L837.454 977.405ZM845.671 948.644L779.781 973.475C779.812 973.747 779.833 973.993 779.842 974.28L837.836 976.134L845.687 948.649L845.671 948.644ZM886.593 805.394C886.287 805.251 886.01 805.074 885.756 804.882L790.697 936.981C791.348 937.826 791.686 938.938 791.656 940.128L846.138 946.943L886.576 805.389L886.593 805.394Z" fill="#91928E"/>
<path d="M1466 0H1563.81L1720 231.195V379L1466 0Z" fill="#F2B243"/>
<path d="M1177 0H1396.1L1720 516.5V879V929L1177 0Z" fill="#F2B243"/>
</svg>
