<svg width="1512" height="625" viewBox="0 0 1512 625" fill="none" xmlns="http://www.w3.org/2000/svg">
<path d="M975.252 685.619C975.634 684.094 975.565 682.393 974.904 680.849C973.46 677.525 969.911 676.157 966.954 677.779C964.606 679.07 963.371 681.865 963.684 684.622L917.449 695.256L857.107 530.536C860.012 528.894 861.212 524.925 859.786 521.641C858.342 518.318 854.793 516.949 851.836 518.572C849.714 519.725 848.514 522.13 848.514 524.613L738.649 534.485C738.562 533.84 738.405 533.195 738.144 532.589C736.701 529.265 733.152 527.897 730.195 529.52C729.099 530.126 728.247 531.044 727.673 532.139L580.931 451.382C581.522 449.701 581.54 447.746 580.775 445.986C579.331 442.663 575.782 441.295 572.825 442.917C572.199 443.25 571.677 443.719 571.207 444.247L546.855 421.061L554.856 286.173C555.709 286.173 556.596 285.978 557.413 285.508C560.371 283.886 561.588 279.898 560.144 276.574C558.701 273.251 555.152 271.883 552.195 273.505C551.534 273.877 550.96 274.365 550.473 274.952L444.609 179.064C445.774 177.148 446.053 174.607 445.078 172.359C443.635 169.035 440.086 167.667 437.129 169.289C435.424 170.228 434.328 171.968 433.946 173.883L349.46 160.805L412.55 13.3466C414.046 14.0113 415.768 14.0113 417.316 13.1511C420.274 11.5286 421.491 7.54056 420.047 4.21723C418.604 0.893889 415.055 -0.474544 412.098 1.14803C409.28 2.6924 408.062 6.38717 409.211 9.61276L281.516 79.6374L280.438 80.2239L254.972 94.2015L254.154 94.6511L141.123 156.641C139.575 153.65 136.218 152.458 133.4 154.002C130.582 155.546 129.365 159.241 130.513 162.467L101.203 178.536L136.357 259.528C133.696 261.268 132.635 265.041 134.009 268.208C135.383 271.374 138.671 272.743 141.541 271.453L198.961 403.682L271.149 569.966L271.497 570.768L270.383 571.354L271.601 571.472L271.549 571.863L271.897 571.687L272.349 572.742L326.951 698.482L326.203 699.01L327.229 699.147L327.334 699.401L327.629 699.205L413.803 710.133C413.768 711.189 413.924 712.284 414.377 713.3C415.821 716.623 419.369 717.992 422.326 716.369C424.083 715.411 425.196 713.613 425.544 711.599L491.783 720.005C491.748 721.061 491.905 722.156 492.357 723.192C493.801 726.515 497.349 727.884 500.307 726.261C500.533 726.144 500.724 725.968 500.933 725.831L565.067 820.096C563.136 822.032 562.475 825.238 563.658 827.994C565.102 831.318 568.65 832.686 571.608 831.063C571.886 830.907 572.129 830.731 572.373 830.536L674.932 972.97C673.088 974.925 672.479 978.053 673.645 980.751C675.089 984.074 678.637 985.442 681.594 983.82C684.412 982.275 685.63 978.581 684.482 975.355L748.164 940.44C749.712 943.431 753.069 944.624 755.887 943.079C758.705 941.535 759.923 937.84 758.774 934.615L888.73 863.339C890.279 866.33 893.636 867.522 896.454 865.978C899.272 864.434 900.489 860.739 899.341 857.513L1008.98 797.38C1010.53 800.371 1013.89 801.564 1016.7 800.02C1019.52 798.475 1020.74 794.78 1019.59 791.555L1110.36 741.783L975.252 685.658V685.619ZM1108.1 741.861L1019.21 790.617C1017.76 787.821 1014.76 786.628 1012.06 787.723L972.416 689.626C973.582 688.903 974.434 687.828 974.956 686.557L1108.11 741.861H1108.1ZM549.447 282.42C549.621 282.811 549.812 283.163 550.038 283.495L481.433 350.724C480.094 349.238 478.215 348.574 476.372 348.886L464.874 293.719L548.994 280.856C549.099 281.384 549.238 281.892 549.447 282.4V282.42ZM140.48 164.383L205.519 218.905L144.133 261.346C143.054 259.665 141.349 258.687 139.558 258.609L136.636 166.631C137.297 166.552 137.958 166.357 138.584 166.025C139.332 165.614 139.958 165.067 140.462 164.402L140.48 164.383ZM419.178 703.682L411.037 648.182C413.664 646.423 414.725 642.689 413.35 639.542C413.246 639.307 413.107 639.111 412.985 638.896L476.198 594.286C476.598 594.911 477.102 595.419 477.641 595.83L422.239 704.347C421.282 703.838 420.239 703.604 419.16 703.701L419.178 703.682ZM1008.6 796.442L898.958 856.575C898.419 855.558 897.689 854.718 896.836 854.151L936.74 761.312C938.236 761.977 939.958 761.977 941.523 761.117C942.671 760.491 943.541 759.514 944.115 758.341L1008.55 791.653C1008.04 793.158 1008.04 794.859 1008.61 796.442H1008.6ZM853.941 531.201L852.445 703.956C851.697 704.014 850.949 704.229 850.219 704.62C849.992 704.738 849.784 704.914 849.575 705.07L821.413 663.978L853.332 531.123C853.541 531.162 853.732 531.201 853.941 531.22V531.201ZM409.245 635.964L401.539 583.475L475.067 590.278C475.067 591.275 475.223 592.292 475.641 593.249C475.676 593.308 475.711 593.367 475.745 593.425L412.481 638.095C411.628 637 410.498 636.277 409.263 635.984L409.245 635.964ZM439.008 181.898L433.911 297.472L384.841 304.979C384.736 304.451 384.597 303.943 384.388 303.435C383.884 302.262 383.101 301.343 382.162 300.698L391.711 280.074L407.854 245.198L437.407 181.41C437.912 181.664 438.451 181.84 438.99 181.918L439.008 181.898ZM303.277 159.749L328.169 208.251L295.153 285.391C294.719 285.196 294.266 285.039 293.814 284.981L300.772 160.395C301.607 160.395 302.459 160.179 303.277 159.749ZM730.073 825.746L722.367 789.502C722.628 789.404 722.907 789.307 723.168 789.17C725.272 788.017 726.473 785.651 726.49 783.188L728.49 783.031L787.893 778.222C787.98 778.887 788.137 779.552 788.398 780.177C789.094 781.8 790.311 782.934 791.685 783.501L754.443 930.49C753.747 930.333 753.034 930.314 752.321 930.451L730.056 825.746H730.073ZM889.339 855.578L798.782 780.764C799.826 778.868 800.035 776.443 799.096 774.293C798.869 773.765 798.574 773.296 798.243 772.866L821.743 746.377L848.984 715.666C850.392 717.034 852.323 717.581 854.167 717.093L886.869 836.146L891.688 853.701C891.548 853.76 891.392 853.799 891.253 853.877C890.505 854.288 889.861 854.855 889.357 855.539L889.339 855.578ZM724.542 687.71L637.586 715.177C637.586 715.177 637.551 715.02 637.516 714.942C637.255 714.356 636.925 713.847 636.542 713.378L682.186 629.493C683.786 630.412 685.752 630.529 687.491 629.571C687.648 629.493 687.769 629.376 687.908 629.278L724.524 687.71H724.542ZM752.634 615.985L791.72 771.009C791.529 771.087 791.337 771.146 791.146 771.243C789.041 772.397 787.841 774.762 787.824 777.225L728.647 782.015L726.403 782.191C726.316 781.526 726.159 780.862 725.899 780.236C724.994 778.144 723.237 776.834 721.324 776.541L725.62 689.47L725.672 688.395L725.968 688.297L725.69 687.867L726.299 675.551L732.891 542.187C733.239 542.187 733.604 542.129 733.952 542.05L752.599 616.004L752.634 615.985ZM715.931 779.004L637.986 719.106C638.142 718.129 638.125 717.112 637.899 716.115L724.803 688.668L720.454 776.502C719.619 776.502 718.767 776.717 717.967 777.167C717.149 777.616 716.471 778.262 715.949 779.004H715.931ZM633.428 711.365L622.8 662.883C623.061 662.785 623.322 662.707 623.565 662.57C626.331 661.045 627.549 657.429 626.505 654.242L679.698 626.776C680.133 627.656 680.724 628.379 681.42 628.946L635.864 712.655C635.15 712.01 634.315 711.58 633.428 711.365ZM519.249 552.666L485.173 585.606C484.13 584.433 482.773 583.768 481.329 583.67L477.85 362.121C478.25 362.082 478.65 361.984 479.05 361.847L537.149 527.545H537.131C534.174 529.168 532.956 533.175 534.4 536.499C534.557 536.87 534.748 537.202 534.957 537.515L519.267 552.666H519.249ZM216.234 383.215L289.239 296.769C290.092 297.551 291.1 298.059 292.179 298.215L282.073 479.239C281.22 479.239 280.351 479.454 279.533 479.904C279.359 480.002 279.203 480.139 279.029 480.256L239.838 419.693L216.234 383.215ZM373.691 309.28C374.143 310.316 374.804 311.137 375.587 311.763L284.821 479.982C284.23 479.65 283.603 479.396 282.96 479.298L293.066 298.274C293.918 298.274 294.788 298.059 295.606 297.609C297.276 296.69 298.371 294.99 298.772 293.093L373.134 305.839C373.047 306.993 373.221 308.166 373.691 309.28ZM347.738 365.308L376.352 312.291C377.152 312.74 378.039 312.994 378.961 313.014L386.737 454.314L332.848 470.345L287.743 483.755C287.674 483.501 287.604 483.247 287.5 483.012C287.048 481.976 286.387 481.155 285.604 480.53L347.772 365.347L347.738 365.308ZM422.117 443.777L387.606 454.041L379.848 312.936C380.179 312.877 380.509 312.799 380.84 312.682L381.17 313.6L425.318 436.564C422.883 437.913 421.648 440.904 422.135 443.777H422.117ZM384.475 507.468L288.039 486.668C288.109 486.023 288.074 485.358 287.969 484.694L313.087 477.226L386.771 455.311L388.981 495.563L389.363 502.6C388.754 502.698 388.146 502.874 387.572 503.187C385.971 504.067 384.893 505.65 384.458 507.449L384.475 507.468ZM422.604 445.498C423.039 446.495 423.666 447.277 424.396 447.902L392.999 503.343C392.164 502.835 391.224 502.581 390.285 502.561L387.676 455.077L422.361 444.755C422.431 445.009 422.5 445.263 422.604 445.498ZM384.98 305.937L433.859 298.469L427.788 435.899C427.231 435.899 426.692 436.036 426.136 436.232L382.701 315.242L381.657 312.349C383.866 311.118 385.101 308.557 384.962 305.957L384.98 305.937ZM429.754 448.899L478.372 584.296C477.694 584.667 477.137 585.176 476.65 585.762L442.087 554.894L395.103 512.942C396.251 511.026 396.512 508.504 395.556 506.276C395.121 505.279 394.495 504.497 393.764 503.871L425.161 448.43C426.553 449.271 428.188 449.447 429.754 448.899ZM544.037 581.559L596.743 573.837C596.847 574.365 596.986 574.893 597.195 575.421C598.378 578.138 600.987 579.526 603.527 579.057L619.13 650.235C618.869 650.333 618.608 650.411 618.365 650.548C617.164 651.212 616.26 652.268 615.703 653.519L486.634 592.428C486.878 591.627 486.982 590.786 486.947 589.946L544.037 581.579V581.559ZM497.297 713.535L482.286 596.788C482.738 596.67 483.173 596.514 483.608 596.279C484.808 595.615 485.712 594.559 486.269 593.308L581.122 638.212L615.338 654.418C614.92 655.826 614.938 657.39 615.425 658.856L502.881 716.956C501.733 714.629 499.541 713.359 497.297 713.515V713.535ZM233.594 281.911L287.082 291.08C286.995 292.233 287.169 293.406 287.639 294.521C287.9 295.107 288.23 295.596 288.596 296.065L215.694 382.393L143.176 270.338C144.167 269.4 144.828 268.129 145.107 266.761L233.594 281.931V281.911ZM450.54 403.585L474.475 361.339C475.241 361.789 476.076 362.043 476.928 362.102L480.407 583.651C479.99 583.69 479.572 583.788 479.155 583.944L430.536 448.547C433.476 446.925 434.694 442.937 433.25 439.633C432.815 438.636 432.189 437.854 431.458 437.229L450.523 403.585H450.54ZM567.189 551.16L597.126 569.712C596.725 570.69 596.517 571.765 596.569 572.84L542.837 580.718L486.774 588.929C486.669 588.401 486.53 587.873 486.321 587.346C486.165 586.974 485.973 586.642 485.765 586.329L519.91 553.33L535.531 538.238C537.27 540.193 539.984 540.819 542.332 539.548C543.324 539.001 544.106 538.16 544.681 537.183L567.207 551.16H567.189ZM607.458 576.124L679.472 620.774C678.828 622.338 678.741 624.156 679.315 625.857L626.123 653.324C624.888 650.802 622.4 649.531 619.965 649.981L604.362 578.803C604.623 578.705 604.884 578.627 605.127 578.49C606.119 577.942 606.901 577.102 607.475 576.124H607.458ZM717.845 563.887L730.073 541.425C730.682 541.777 731.326 542.011 732.004 542.129L729.291 596.944L724.855 686.537L688.622 628.711C690.692 626.796 691.422 623.472 690.187 620.638C689.735 619.602 689.074 618.8 688.309 618.174L717.845 563.906V563.887ZM626.349 716.447L503.577 719.556C503.525 718.989 503.403 718.441 503.229 717.894L585.958 675.179L615.773 659.775C617.008 662.297 619.495 663.567 621.93 663.118L632.472 711.208C631.497 711.15 630.489 711.326 629.532 711.853C627.827 712.792 626.731 714.532 626.349 716.447ZM401.366 582.419L391.572 515.679C391.972 515.561 392.39 515.405 392.773 515.19C393.451 514.819 394.025 514.31 394.512 513.704L459.881 572.097L461.638 573.661L476.041 586.525C475.554 587.346 475.206 588.245 475.084 589.222L401.348 582.4L401.366 582.419ZM400.444 582.341L273.793 570.631L384.997 512.453C386.163 514.799 388.406 516.07 390.685 515.835L400.444 582.341ZM272.627 570.142L281.777 492.552C282.768 492.611 283.777 492.435 284.717 491.907C286.317 491.027 287.395 489.444 287.83 487.646L384.267 508.446C384.162 509.482 384.267 510.537 384.632 511.554L272.627 570.162V570.142ZM338.24 227.917L375.674 300.854C374.404 301.812 373.569 303.259 373.238 304.862L298.876 292.116C298.963 290.963 298.789 289.79 298.319 288.675C297.78 287.424 296.945 286.466 295.954 285.821L328.69 209.326L338.24 227.936V227.917ZM545.602 534.114L593.734 534.602L600.657 566.174C600.396 566.272 600.135 566.35 599.891 566.487C598.9 567.034 598.117 567.875 597.543 568.852L545.081 536.323C545.359 535.619 545.55 534.876 545.602 534.114ZM594.655 534.602L628.784 534.954L681.09 618.409C680.62 618.839 680.22 619.347 679.907 619.914L607.893 575.264C608.606 573.505 608.658 571.433 607.858 569.576C606.675 566.858 604.066 565.47 601.526 565.939L594.655 534.622V534.602ZM594.429 533.605L577.243 455.233C577.504 455.135 577.765 455.057 578.009 454.92C578.165 454.842 578.287 454.725 578.426 454.627L628.14 533.957L594.429 533.625V533.605ZM795.703 770.95L821.1 665.19L848.862 705.676C846.931 707.611 846.287 710.817 847.47 713.554C847.696 714.082 847.992 714.551 848.323 714.981L797.599 772.182C797.043 771.634 796.399 771.224 795.703 770.95ZM898.228 734.667L933.313 752.809C932.774 754.47 932.791 756.347 933.539 758.067C934.078 759.299 934.913 760.276 935.905 760.922L896.001 853.76C894.905 853.271 893.705 853.154 892.505 853.447L856.411 722.038L854.985 716.838C855.124 716.78 855.28 716.741 855.42 716.662C856.568 716.037 857.437 715.059 858.011 713.887L898.228 734.667ZM888.33 862.401L758.374 933.676C757.661 932.308 756.565 931.291 755.313 930.783L792.555 783.794C793.79 784.087 795.129 783.95 796.347 783.286C797.095 782.875 797.739 782.308 798.243 781.624L888.8 856.438C887.826 858.198 887.617 860.407 888.33 862.42V862.401ZM637.446 866.056L574.391 827.74C574.86 826.548 575.017 825.238 574.825 823.928L608.815 814.545L714.922 785.241C715.009 785.534 715.079 785.827 715.201 786.101C716.384 788.818 718.958 790.186 721.48 789.737L751.451 930.685C751.19 930.783 750.912 930.881 750.651 931.018C749.642 931.565 748.842 932.425 748.268 933.422L637.429 866.056H637.446ZM574.321 822.091C573.921 821.152 573.33 820.409 572.651 819.803L612.711 753.239L714.679 782.034C714.575 782.758 714.575 783.52 714.679 784.263L645.883 803.245L574.582 822.931C574.495 822.638 574.425 822.345 574.304 822.071L574.321 822.091ZM613.25 752.359L630.21 724.208C631.654 724.756 633.272 724.697 634.75 723.896C636.194 723.094 637.22 721.726 637.725 720.142L654.458 733.005L715.392 779.845C715.183 780.236 715.027 780.646 714.905 781.077L613.268 752.359H613.25ZM612.329 752.105L503.507 721.374C503.542 721.12 503.559 720.846 503.577 720.592L626.227 717.503C626.175 718.617 626.331 719.751 626.801 720.826C627.375 722.156 628.314 723.153 629.393 723.798L612.346 752.124L612.329 752.105ZM403.609 637.978L274.576 571.745L400.6 583.397L408.306 635.847C407.332 635.788 406.34 635.964 405.401 636.492C404.705 636.863 404.114 637.391 403.627 637.997L403.609 637.978ZM215.051 383.136L199.169 401.942L142.324 271.003C142.324 271.003 142.411 270.944 142.445 270.925L170.12 313.698L215.068 383.136H215.051ZM206.284 219.569L287.969 288.03C287.604 288.675 287.361 289.379 287.204 290.102L145.246 265.764C145.333 264.61 145.159 263.438 144.689 262.323C144.672 262.284 144.637 262.245 144.62 262.206L206.301 219.569H206.284ZM207.101 219.003L265.391 178.712C266.696 180.726 268.87 181.723 271.027 181.39L291.274 285.235C290.961 285.332 290.666 285.45 290.37 285.606C289.622 286.017 288.996 286.564 288.491 287.229L207.119 219.022L207.101 219.003ZM275.55 171.87C275.55 171.87 275.497 171.792 275.48 171.753L295.867 157.658C296.841 159.163 298.285 160.121 299.85 160.375L292.892 284.961C292.649 284.961 292.388 285 292.144 285.039L271.897 181.195C272.21 181.097 272.506 180.98 272.801 180.823C275.758 179.201 276.976 175.193 275.532 171.889L275.55 171.87ZM306.46 155.136L348.12 161.587L328.621 207.156L318.497 187.411L304.025 159.222C305.312 158.244 306.164 156.758 306.477 155.116L306.46 155.136ZM440.625 181.84L463.76 292.898L434.763 297.336L439.86 181.938C440.121 181.938 440.364 181.879 440.625 181.84ZM463.969 293.875L475.484 349.121C475.206 349.219 474.928 349.316 474.649 349.473C471.692 351.095 470.475 355.083 471.918 358.407C472.353 359.404 472.98 360.186 473.71 360.811L430.71 436.701C430.067 436.31 429.371 436.056 428.64 435.958L434.711 298.352L463.952 293.875H463.969ZM481.486 360.147L545.916 421.472L539.653 526.88C539.079 526.88 538.523 526.978 537.949 527.174L518.414 471.459L479.85 361.476H479.868C480.494 361.124 481.016 360.655 481.486 360.127V360.147ZM545.046 530.634C544.507 529.383 543.654 528.405 542.645 527.76L573.277 455.135C574.252 455.566 575.33 455.683 576.391 455.468L593.525 533.605L545.637 533.117C545.585 532.276 545.394 531.435 545.046 530.634ZM629.88 534.974L726.838 535.951C726.89 536.792 727.081 537.632 727.429 538.434C727.882 539.47 728.543 540.271 729.308 540.897L687.543 617.627C685.943 616.708 683.977 616.591 682.238 617.549C682.081 617.627 681.959 617.744 681.82 617.842L629.88 534.954V534.974ZM736.022 541.073L820.421 664.193L794.834 770.696C794.086 770.54 793.303 770.54 792.538 770.696L769.559 679.539L734.805 541.718C734.996 541.64 735.187 541.581 735.379 541.484C735.605 541.366 735.814 541.19 736.022 541.034V541.073ZM858.69 709.801L916.892 696.429L936.218 749.173C935.105 749.798 934.252 750.756 933.696 751.909L905.377 737.267L858.377 712.968C858.707 711.971 858.812 710.896 858.69 709.801ZM944.22 752.203C943.68 750.971 942.845 749.994 941.854 749.348L967.354 690.017C968.676 690.604 970.155 690.643 971.564 690.056L1011.21 788.153C1010.2 788.779 1009.4 789.678 1008.86 790.753L944.428 757.442C944.967 755.78 944.95 753.903 944.202 752.183L944.22 752.203ZM573.016 829.871C573.364 829.5 573.678 829.089 573.938 828.639L666.374 884.823L747.833 934.322C747.207 935.925 747.12 937.762 747.746 939.502L684.064 974.417C682.516 971.426 679.159 970.233 676.341 971.777C676.063 971.934 675.819 972.11 675.576 972.305L573.016 829.871ZM501.594 725.205C502.377 724.423 502.968 723.446 503.281 722.351L611.789 753.004L571.903 819.236C570.251 818.181 568.181 818.024 566.337 819.021C566.111 819.139 565.919 819.315 565.711 819.451L501.576 725.186L501.594 725.205ZM425.596 710.602C425.631 709.547 425.475 708.452 425.022 707.435C424.553 706.341 423.839 705.5 423.005 704.855L478.407 596.338C479.329 596.827 480.337 597.081 481.364 597.003L496.375 713.75C495.923 713.867 495.488 714.023 495.053 714.258C493.297 715.216 492.183 717.014 491.835 719.028L425.596 710.622V710.602ZM328.812 698.326L402.948 645.993C404.462 648.749 407.488 649.883 410.167 648.69L418.273 703.877C417.873 703.995 417.456 704.151 417.073 704.366C415.316 705.324 414.203 707.123 413.855 709.136L328.812 698.345V698.326ZM345.041 685.677L327.682 697.935L273.027 572.058L403.07 638.818C401.992 640.636 401.748 642.982 402.548 645.093L345.059 685.677H345.041ZM199.587 402.92L215.59 383.977L278.281 480.862C276.263 482.797 275.55 486.062 276.767 488.877C277.602 490.812 279.168 492.044 280.89 492.455L271.827 569.302L199.587 402.92ZM102.368 179.005L130.86 163.366C131.904 165.38 133.765 166.572 135.731 166.65L138.653 258.628C138.131 258.687 137.627 258.844 137.123 259.059L102.351 178.966L102.368 179.005ZM254.311 95.6872L268.487 168.429C268.174 168.527 267.879 168.644 267.583 168.801C264.626 170.423 263.408 174.431 264.852 177.735C264.869 177.774 264.904 177.813 264.921 177.852L206.336 218.357L140.984 163.581C141.976 161.822 142.202 159.593 141.471 157.56L254.311 95.6872ZM280.403 81.3773L270.505 168.156C270.122 168.136 269.757 168.155 269.375 168.214L255.146 95.218L280.403 81.3577V81.3773ZM281.133 82.9021L298.528 147.531C298.371 147.59 298.215 147.649 298.058 147.727C295.101 149.349 293.884 153.337 295.327 156.661C295.345 156.7 295.38 156.739 295.397 156.778L275.01 170.873C274.123 169.485 272.819 168.586 271.392 168.253L281.133 82.863V82.9021ZM409.593 10.512C409.837 11.0007 410.15 11.4308 410.48 11.8218L311.87 138.578L304.216 148.411C302.842 147.258 301.085 146.808 299.38 147.238L281.481 80.7908L409.593 10.512ZM348.52 160.629L306.582 154.139C306.651 153.025 306.477 151.871 306.025 150.796C305.729 150.131 305.347 149.564 304.894 149.056L352.139 88.3368L411.159 12.4669C411.35 12.6233 411.524 12.7993 411.733 12.9361L348.52 160.629ZM433.807 174.861C433.737 175.975 433.911 177.129 434.363 178.204C434.868 179.377 435.651 180.295 436.572 180.941L430.484 194.078L390.929 279.487L381.309 300.248C379.779 299.525 378.004 299.486 376.404 300.346L329.125 208.231L349.025 161.743L433.789 174.88L433.807 174.861ZM549.899 275.714C549.151 276.926 548.768 278.393 548.838 279.898L464.647 292.761L441.495 181.625C441.773 181.527 442.052 181.429 442.33 181.273C442.991 180.901 443.565 180.413 444.052 179.826L549.916 275.714H549.899ZM545.968 420.221L482.042 359.365C483.295 357.429 483.59 354.829 482.599 352.522C482.425 352.132 482.234 351.78 482.007 351.447L550.612 284.218C551.517 285.235 552.682 285.899 553.935 286.095L545.968 420.221ZM570.599 444.989C569.346 446.925 569.05 449.525 570.042 451.832C570.581 453.083 571.434 454.06 572.442 454.705L541.81 527.33C541.393 527.154 540.958 526.998 540.523 526.939L546.733 422.293L570.581 445.009L570.599 444.989ZM727.255 533.019C727.047 533.625 726.907 534.27 726.855 534.935L629.236 533.957L579.157 454.041C579.696 453.532 580.166 452.946 580.514 452.281L727.255 533.038V533.019ZM848.549 525.59C848.636 526.235 848.792 526.88 849.053 527.486C849.766 529.129 851.001 530.282 852.428 530.849L842.53 572.078L820.7 662.961L736.718 540.447C737.988 539.157 738.701 537.359 738.684 535.462L848.549 525.59ZM916.527 695.452L858.498 708.784C858.411 708.413 858.29 708.041 858.133 707.67C857.176 705.48 855.298 704.151 853.297 703.975L854.028 619.738L854.793 531.22C855.28 531.181 855.767 531.064 856.237 530.888L916.527 695.452ZM963.806 685.599C963.893 685.971 964.015 686.342 964.171 686.713C964.71 687.945 965.545 688.922 966.537 689.568L941.036 748.899C939.784 748.352 938.375 748.273 937.036 748.762L917.78 696.175L963.823 685.599H963.806Z" fill="#F2B243" fill-opacity="0.95"/>
<path d="M630.663 670.312L693.614 725.714C692.257 728.001 692.657 731.09 694.606 732.81C696.554 734.53 699.32 734.218 700.972 732.185L777.004 799.101C775.647 801.388 776.048 804.477 777.996 806.197C779.944 807.918 782.71 807.605 784.362 805.572L874.484 884.882C873.127 887.169 873.527 890.258 875.476 891.978C877.424 893.699 880.19 893.386 881.842 891.353L926.007 930.216C924.65 932.504 925.051 935.592 926.999 937.313C929.051 939.111 932.009 938.701 933.609 936.413C934.913 934.537 934.896 932.015 933.765 930.158L1034.12 838.942C1034.27 839.137 1034.43 839.333 1034.62 839.489C1036.67 841.288 1039.63 840.877 1041.23 838.59C1042.55 836.674 1042.52 834.074 1041.3 832.217L1104.81 771.165C1104.95 771.322 1105.07 771.478 1105.22 771.615C1107.28 773.413 1110.23 773.003 1111.83 770.716C1112.32 770.012 1112.62 769.191 1112.74 768.37L1165.25 774.176C1165.22 775.779 1165.83 777.401 1167.05 778.457C1169.1 780.256 1172.06 779.845 1173.66 777.558C1174.14 776.854 1174.44 776.033 1174.56 775.212L1242.87 782.758L1243.06 782.973L1243.18 782.797L1244 782.895L1243.5 782.347L1304.26 695.139L1304.76 694.416L1305 694.611V694.299L1305.98 694.435L1305.19 693.771L1305.58 693.223L1385.92 577.904L1449.81 486.199C1451.85 487.724 1454.6 487.274 1456.13 485.085C1457.66 482.895 1457.38 479.787 1455.57 477.93L1494.71 421.765L1474.39 403.878C1475.75 401.591 1475.35 398.502 1473.4 396.782C1471.45 395.061 1468.69 395.374 1467.03 397.407L1388.65 328.419L1388.08 327.91L1370.42 312.369L1369.68 311.704L1281.12 233.762C1282.48 231.475 1282.08 228.386 1280.13 226.666C1278.08 224.867 1275.12 225.278 1273.52 227.565C1271.92 229.852 1272.28 233.195 1274.32 234.994C1275.4 235.952 1276.72 236.264 1277.99 236.03L1305.14 361.867L1237.82 356.296C1237.82 354.732 1237.22 353.187 1236.03 352.132C1233.98 350.333 1231.02 350.744 1229.42 353.031C1228.34 354.595 1228.17 356.608 1228.8 358.309L1132.74 412.87C1132.45 412.343 1132.08 411.834 1131.63 411.424C1129.58 409.625 1126.62 410.036 1125.02 412.323C1123.42 414.61 1123.79 417.953 1125.82 419.752C1126.39 420.26 1127.04 420.573 1127.7 420.729L1114.06 526.626L1091.8 540.057C1091.52 539.568 1091.17 539.099 1090.75 538.727C1088.7 536.929 1085.74 537.339 1084.14 539.626C1083.29 540.858 1083.01 542.363 1083.22 543.771L957.753 579.018C957.474 578.06 956.953 577.18 956.187 576.516C954.135 574.717 951.177 575.128 949.577 577.415C949.281 577.845 949.073 578.314 948.916 578.803L865.317 550.75C865.683 548.834 865.108 546.762 863.63 545.452C861.577 543.654 858.62 544.064 857.02 546.351C855.437 548.639 855.785 551.923 857.785 553.741L786.832 670.058L752.6 653.246C753.243 651.173 752.704 648.769 751.069 647.342C749.016 645.543 746.059 645.954 744.459 648.241C743.711 649.316 743.415 650.606 743.485 651.857L630.645 670.214L630.663 670.312ZM743.606 652.757C743.815 653.832 744.32 654.829 745.12 655.611L699.998 724.189C698.085 722.84 695.58 723.212 694.049 725.088L632.402 670.84L743.606 652.757ZM1133 417.816L1196.23 443.387L1179.22 483.951C1177.83 483.345 1176.28 483.54 1175.03 484.42L1131.8 419.615C1132.03 419.4 1132.22 419.165 1132.41 418.892C1132.66 418.54 1132.83 418.168 1132.99 417.777L1133 417.816ZM1467.61 405.129C1468.04 405.52 1468.53 405.774 1469.04 405.97L1453.24 476.639C1451.85 476.366 1450.39 476.815 1449.29 477.91L1408.01 433.651L1466.39 403.526C1466.69 404.132 1467.09 404.679 1467.61 405.129ZM1168.85 769.171L1141.93 674.886C1142.41 674.671 1142.87 674.358 1143.28 673.967L1185.66 720.24C1185.54 720.377 1185.4 720.514 1185.28 720.67C1183.76 722.86 1184.02 725.948 1185.8 727.806L1171.32 769.25C1170.51 768.976 1169.65 768.956 1168.85 769.171ZM702.155 727.884L756.931 714.063C757.209 715.06 757.731 715.998 758.531 716.682C759.61 717.64 760.949 717.953 762.201 717.718L779.44 796.99C778.692 797.263 777.996 797.772 777.439 798.475L701.407 731.559C702.068 730.445 702.329 729.135 702.155 727.864V727.884ZM860.621 555.012L865.787 663.782L837.938 690.369C837.799 690.213 837.66 690.037 837.503 689.9C836.999 689.47 836.459 689.157 835.885 688.981L860.134 554.972C860.29 554.992 860.447 555.012 860.621 555.012ZM1186.18 719.712L1143.77 673.381C1143.77 673.381 1143.84 673.303 1143.88 673.264C1144.35 672.599 1144.62 671.837 1144.76 671.074L1202.67 679.461L1188.98 718.676C1187.99 718.676 1187 719.028 1186.18 719.712ZM1234.03 361.535L1247.53 416.409L1254.91 446.417L1259.27 464.167C1258.47 464.499 1257.72 465.066 1257.15 465.868C1256.91 466.22 1256.73 466.591 1256.58 466.982L1219.7 452.066L1232.75 361.652C1233.18 361.691 1233.62 361.652 1234.05 361.554L1234.03 361.535ZM1342.91 370.664L1329.96 468.409C1329.6 468.37 1329.23 468.409 1328.87 468.487L1314.66 402.646L1341.06 369.726C1341.62 370.214 1342.25 370.527 1342.91 370.684V370.664ZM880.068 882.908C879.529 882.673 878.972 882.556 878.415 882.556L871.214 761.84C872.379 761.645 873.475 761 874.258 759.866C874.571 759.436 874.78 758.947 874.936 758.439L920.215 773.198L921.746 773.687C921.398 775.603 921.972 777.656 923.433 778.926C923.607 779.083 923.816 779.2 924.007 779.337L912.718 805.963L880.085 882.888L880.068 882.908ZM783.806 797.869C783.701 797.772 783.597 797.733 783.493 797.654L789.807 784.967L832.633 698.873C833.989 699.577 835.572 699.518 836.859 698.736L853.437 727.571L867.735 752.437C867.422 752.711 867.126 753.004 866.865 753.376C865.822 754.861 865.63 756.777 866.152 758.439L785.058 799.531C784.762 798.905 784.345 798.358 783.823 797.889L783.806 797.869ZM974.243 661.73C974.347 661.828 974.417 661.945 974.521 662.043C975.739 663.118 977.27 663.391 978.644 662.961L1001.64 736.388C1001.27 736.681 1000.94 736.994 1000.67 737.404C1000.63 737.463 1000.61 737.521 1000.58 737.561L937.297 700.144L974.243 661.71V661.73ZM951.404 585.645C951.665 585.782 951.925 585.879 952.204 585.958L937.697 690.428L936.357 700.085L936.079 700.378L936.305 700.515L936.183 701.356L926.703 769.562C925.19 769.426 923.642 770.129 922.615 771.576C922.302 772.006 922.094 772.495 921.937 773.003L920.232 772.436L875.128 757.735C875.476 755.819 874.902 753.767 873.441 752.496C873.319 752.379 873.162 752.301 873.04 752.203L926.094 639.463L951.404 585.684V585.645ZM929.225 770.637C928.669 770.149 928.043 769.836 927.399 769.66L936.949 700.867L1000.18 738.245C999.848 738.968 999.691 739.75 999.674 740.532L930.513 772.436C930.217 771.752 929.782 771.126 929.225 770.637ZM1002.25 735.958L979.287 662.688C979.913 662.375 980.47 661.925 980.94 661.319L1018.08 692.461C1016.79 694.729 1017.21 697.759 1019.12 699.44C1019.3 699.596 1019.49 699.714 1019.66 699.831L1004.3 735.391C1003.59 735.391 1002.87 735.586 1002.23 735.938L1002.25 735.958ZM1106.15 619.113C1106.36 618.898 1106.56 618.683 1106.74 618.429C1108.34 616.122 1107.97 612.799 1105.94 611L1175.27 493.51C1175.57 493.686 1175.86 493.843 1176.16 493.94L1140.88 664.799C1139.75 664.603 1138.59 664.877 1137.61 665.581L1116.08 633.755L1106.16 619.113H1106.15ZM1351.92 582.732L1312.67 622.338C1312.57 622.221 1312.47 622.084 1312.34 621.967C1311.77 621.459 1311.14 621.146 1310.48 620.99L1329.29 478.966C1330.14 479.044 1331.01 478.829 1331.77 478.379L1375.57 558.863L1351.93 582.713L1351.92 582.732ZM1265.48 469.836L1324.94 473.785C1324.95 475.33 1325.56 476.835 1326.73 477.871C1327.3 478.379 1327.93 478.692 1328.59 478.848L1309.79 620.872C1309.26 620.833 1308.74 620.911 1308.24 621.048L1262.7 473.961C1263.4 473.629 1264.04 473.121 1264.54 472.397C1265.08 471.635 1265.38 470.736 1265.48 469.836ZM1307.58 621.302C1306.88 621.635 1306.24 622.143 1305.73 622.866C1305.61 623.042 1305.52 623.218 1305.44 623.394L1272.49 604.647L1233.13 582.224L1259.92 474.274C1260.63 474.43 1261.34 474.411 1262.04 474.196L1276.39 520.566L1307.56 621.283L1307.58 621.302ZM1205.87 561.345L1258.12 474.352L1258.51 473.707C1258.75 473.863 1258.98 473.981 1259.24 474.079L1232.48 581.872L1207.28 567.523C1208.06 565.392 1207.56 562.851 1205.87 561.345ZM1225.28 619.934C1224.88 619.582 1224.43 619.328 1223.98 619.152L1225.32 613.776L1232.95 583.025L1286.77 613.678L1305.12 624.137C1304.95 624.626 1304.83 625.134 1304.78 625.642L1227.06 623.824C1226.99 622.358 1226.4 620.931 1225.28 619.953V619.934ZM1206.97 568.227L1232.31 582.654L1223.3 618.937C1222.55 618.781 1221.8 618.8 1221.07 619.035L1204.91 570.279C1205.58 569.947 1206.18 569.439 1206.65 568.755C1206.78 568.579 1206.86 568.403 1206.95 568.227H1206.97ZM1257.93 473.277L1256.7 475.33L1205.28 560.915C1204.88 560.661 1204.48 560.466 1204.06 560.368L1219.58 452.848L1256.32 467.706C1255.83 469.7 1256.4 471.909 1257.93 473.277ZM1204.25 570.573L1220.41 619.328C1219.75 619.66 1219.14 620.169 1218.67 620.853C1217.59 622.397 1217.42 624.391 1218.03 626.092L1175.48 649.844L1144.19 667.321C1143.91 666.773 1143.53 666.285 1143.08 665.874L1200.62 570.084C1201.75 570.807 1203.05 570.964 1204.25 570.573ZM1135.61 668.631C1135.46 669.276 1135.42 669.96 1135.49 670.605L1026.58 693.927C1026.32 692.852 1025.78 691.874 1024.95 691.132C1024.77 690.975 1024.58 690.858 1024.41 690.741L1046.97 638.525C1048.87 639.366 1051.08 638.779 1052.4 636.883C1052.64 636.531 1052.83 636.14 1052.99 635.749L1092.65 651.525L1135.61 668.611V668.631ZM1104.58 764.03L1026.01 698.13C1026.6 697.074 1026.84 695.882 1026.72 694.709L1055.6 688.532L1135.63 671.387C1135.89 672.462 1136.43 673.44 1137.27 674.183C1137.56 674.437 1137.89 674.652 1138.22 674.808L1109.43 762.388C1107.73 761.84 1105.83 762.427 1104.6 764.01L1104.58 764.03ZM1447.74 481.937C1447.74 483.052 1448.09 484.146 1448.72 485.065L1376.1 558.335L1332.35 477.969C1332.7 477.676 1333.03 477.363 1333.32 476.952C1333.86 476.19 1334.16 475.291 1334.26 474.391L1377.02 477.226L1447.74 481.918V481.937ZM1200.98 560.72C1200.32 561.052 1199.71 561.56 1199.24 562.245C1197.64 564.532 1198.01 567.855 1200.03 569.654L1142.48 665.444C1142.19 665.249 1141.88 665.092 1141.56 664.994L1176.84 494.136C1177.52 494.253 1178.2 494.214 1178.86 493.999L1191.17 531.142L1200.98 560.739V560.72ZM1098.67 617.08C1098.96 617.94 1099.45 618.741 1100.15 619.347C1101.76 620.775 1103.96 620.794 1105.59 619.602L1115.45 634.185L1137.04 666.07C1136.83 666.285 1136.62 666.5 1136.45 666.754C1136.2 667.106 1136.01 667.497 1135.86 667.888L1093.66 651.115L1053.23 635.045C1053.44 634.205 1053.42 633.345 1053.27 632.524L1079.17 623.707L1098.67 617.08ZM1045.79 637.821C1045.96 637.978 1046.15 638.095 1046.33 638.212L1023.77 690.428C1021.96 689.626 1019.83 690.154 1018.51 691.855L981.375 660.713C982.053 659.501 982.262 658.074 982.001 656.745L1044.31 635.554C1044.6 636.414 1045.09 637.215 1045.79 637.821ZM975.547 653.07C974.852 653.402 974.225 653.91 973.721 654.633C972.347 656.608 972.434 659.306 973.756 661.182L937.192 699.225L946.933 629.044L952.9 586.114C953.439 586.153 953.978 586.095 954.5 585.938L960.658 605.604L975.53 653.089L975.547 653.07ZM1007.28 736.524C1006.61 735.938 1005.87 735.625 1005.1 735.488L1020.34 700.222C1022.15 701.023 1024.27 700.496 1025.59 698.795L1046.41 716.252L1104.16 764.675C1103.94 765.066 1103.76 765.477 1103.64 765.887L1009.05 740.688C1009.05 739.124 1008.44 737.58 1007.26 736.544L1007.28 736.524ZM1144.85 670.292C1144.88 669.51 1144.76 668.748 1144.5 668.025L1157.55 660.733L1159.13 659.853L1218.33 626.796C1218.62 627.343 1218.99 627.851 1219.46 628.262C1219.73 628.496 1220.01 628.692 1220.33 628.848L1202.93 678.698L1144.85 670.273V670.292ZM1220.99 629.142C1222.71 629.748 1224.64 629.181 1225.89 627.578L1303.42 693.282L1203.64 678.816L1220.99 629.142ZM1226.31 626.932C1226.73 626.209 1226.97 625.408 1227.04 624.587L1304.76 626.405C1304.83 627.871 1305.42 629.298 1306.53 630.275C1307.19 630.862 1307.94 631.175 1308.73 631.311L1304.39 693.086L1226.31 626.913V626.932ZM1314.07 403.35L1328.16 468.663C1327.29 468.976 1326.5 469.582 1325.89 470.442C1325.35 471.205 1325.06 472.104 1324.95 473.003L1265.5 469.054C1265.48 467.764 1265.05 466.493 1264.21 465.496L1303.92 415.998L1314.07 403.37V403.35ZM1098.44 616.298L1053.04 631.742C1052.75 630.881 1052.26 630.08 1051.56 629.474C1051.39 629.317 1051.2 629.2 1051.02 629.083L1061.03 605.917L1098.35 614.48C1098.28 615.086 1098.32 615.692 1098.44 616.278V616.298ZM1050.4 628.731C1048.5 627.89 1046.29 628.477 1044.97 630.373C1044.07 631.663 1043.8 633.286 1044.1 634.772L981.792 655.963C981.618 655.474 981.392 655.005 981.096 654.575L1033.85 599.681L1060.33 605.761L1050.4 628.731ZM1034.48 599.016L1084.63 546.84C1084.73 546.938 1084.8 547.055 1084.91 547.153C1085.08 547.309 1085.27 547.427 1085.45 547.544L1060.61 605.038L1034.46 599.036L1034.48 599.016ZM868.274 751.949L837.416 698.247C837.729 697.974 838.025 697.68 838.286 697.309C839.608 695.413 839.573 692.813 838.373 690.956L865.804 664.76L869.909 751.343C869.335 751.421 868.779 751.636 868.257 751.949H868.274ZM830.076 695.589C830.354 696.586 830.876 697.524 831.676 698.208C831.78 698.306 831.885 698.345 831.989 698.423L830.128 702.177L782.866 797.205C781.997 796.755 781.04 796.618 780.118 796.794L762.88 717.523C763.732 717.21 764.532 716.623 765.124 715.763C765.959 714.571 766.254 713.124 766.063 711.736L795.895 704.21L830.093 695.589H830.076ZM785.284 800.215L866.378 759.123C866.674 759.749 867.092 760.296 867.613 760.765C868.466 761.508 869.475 761.86 870.483 761.86L877.685 882.575C876.641 882.751 875.65 883.318 874.884 884.257L784.762 804.946C785.615 803.499 785.771 801.76 785.284 800.215ZM882.747 885.938C882.451 885.058 881.964 884.257 881.251 883.631C881.077 883.475 880.868 883.357 880.677 883.22L924.616 779.689C926.494 780.51 928.704 779.923 930.008 778.047C930.147 777.851 930.252 777.636 930.356 777.441L1008.2 819.823L1033.12 833.39C1032.78 834.367 1032.71 835.423 1032.9 836.42L978.452 854.366L882.747 885.918V885.938ZM1033.44 832.667L981.131 804.184L930.669 776.698C930.861 776.131 930.982 775.564 931 774.977L1014.18 771.615L1035.4 830.575C1034.79 830.907 1034.22 831.396 1033.78 832.041C1033.65 832.237 1033.54 832.452 1033.44 832.647V832.667ZM930.982 774.176C930.947 773.824 930.878 773.472 930.791 773.12L984.854 748.195L999.691 741.353C999.848 742.663 1000.44 743.914 1001.45 744.813C1002.47 745.712 1003.71 746.064 1004.91 745.908L1013.89 770.853L930.982 774.195V774.176ZM1005.61 745.712C1006.54 745.419 1007.41 744.813 1008.06 743.894C1008.58 743.152 1008.88 742.291 1008.98 741.431L1103.47 766.61C1103.43 766.825 1103.42 767.021 1103.4 767.236L1014.63 770.813L1005.61 745.732V745.712ZM1191.85 719.732C1191.21 719.165 1190.46 718.833 1189.69 718.696L1203.37 679.519L1302.64 693.908L1193 721.218C1192.7 720.651 1192.32 720.142 1191.85 719.732ZM1421.46 513.548L1449.17 485.573C1449.17 485.573 1449.22 485.632 1449.26 485.652L1385.99 576.457L1376.46 558.941L1421.46 513.529V513.548ZM1448.79 478.438C1448.79 478.438 1448.74 478.497 1448.72 478.516C1448.18 479.279 1447.88 480.178 1447.78 481.077L1334.3 473.551C1334.3 472.945 1334.19 472.358 1334.02 471.811L1407.32 433.983L1448.81 478.457L1448.79 478.438ZM1333.72 471.068C1333.43 470.462 1333.03 469.915 1332.5 469.465C1332.3 469.289 1332.09 469.133 1331.86 468.996L1362.81 392.364C1364.42 393.028 1366.25 392.657 1367.55 391.347L1406.76 433.377L1333.74 471.068H1333.72ZM1361.5 391.601C1361.71 391.777 1361.92 391.933 1362.14 392.07L1331.2 468.703C1331.01 468.624 1330.82 468.546 1330.63 468.507L1343.57 370.762C1344.82 370.86 1346.09 370.39 1347.05 369.413L1360.75 384.114C1360.75 384.114 1360.7 384.172 1360.68 384.192C1359.08 386.499 1359.45 389.822 1361.48 391.621L1361.5 391.601ZM1340.52 369.1L1325.16 388.239L1314.41 401.63L1306.01 362.727L1339.22 365.464C1339.22 366.793 1339.65 368.084 1340.51 369.081L1340.52 369.1ZM1232 361.437L1218.97 451.714L1197.17 442.898L1231.42 361.222C1231.61 361.3 1231.81 361.378 1232 361.437ZM1218.85 452.516L1203.31 560.172C1202.74 560.114 1202.17 560.173 1201.61 560.368L1179.48 493.628C1180.14 493.295 1180.75 492.787 1181.22 492.103C1182.82 489.796 1182.46 486.473 1180.42 484.674C1180.23 484.518 1180.04 484.381 1179.83 484.264L1196.86 443.641L1218.85 452.535V452.516ZM1174.61 493.002L1128.59 571.003L1105.28 610.511C1104.88 610.257 1104.44 610.081 1104.01 609.964L1114.67 527.193L1173.57 491.673C1173.85 492.161 1174.2 492.631 1174.61 493.002ZM1098.48 613.659L1061.34 605.135L1086.09 547.837C1086.89 548.189 1087.73 548.287 1088.54 548.15L1101.57 610.062C1100.7 610.374 1099.9 610.961 1099.29 611.841C1098.91 612.408 1098.63 613.014 1098.48 613.659ZM980.575 653.969C980.47 653.871 980.401 653.754 980.296 653.656C979.079 652.581 977.548 652.307 976.174 652.737L955.126 585.586C955.822 585.254 956.448 584.746 956.953 584.022C957.335 583.455 957.613 582.849 957.77 582.204L1032.98 599.466L980.592 653.988L980.575 653.969ZM950.343 584.922C950.464 585.039 950.621 585.117 950.743 585.215L903.568 685.443L872.362 751.734C871.788 751.46 871.197 751.303 870.588 751.303L866.448 664.095L949.89 584.452C950.029 584.609 950.169 584.785 950.325 584.922H950.343ZM829.919 694.787L789.963 704.855L765.889 710.935C765.628 709.957 765.106 709.038 764.341 708.354L787.058 671.113L830.145 692.285C829.884 693.106 829.815 693.947 829.919 694.787ZM756.757 713.241L701.981 727.063C701.737 726.144 701.25 725.284 700.555 724.619L745.676 656.041C746.685 656.745 747.833 656.999 748.929 656.784L759.957 707.455C759.105 707.768 758.305 708.354 757.714 709.214C756.879 710.407 756.583 711.853 756.774 713.241H756.757ZM933.296 929.493C933.139 929.298 932.983 929.102 932.791 928.946C930.843 927.225 928.077 927.538 926.425 929.571L882.26 890.708C882.99 889.476 883.199 888.049 882.955 886.681L953.3 863.495L1033.12 837.182C1033.26 837.573 1033.44 837.964 1033.66 838.316L933.313 929.532L933.296 929.493ZM1040.81 831.572C1040.67 831.415 1040.55 831.259 1040.39 831.122C1039.13 830.008 1037.49 829.734 1036.06 830.243L1014.93 771.556L1103.43 767.979C1103.52 768.878 1103.83 769.758 1104.32 770.501L1040.81 831.552V831.572ZM1112.79 767.529C1112.83 765.926 1112.22 764.304 1111 763.248C1110.7 762.994 1110.37 762.779 1110.04 762.622L1138.83 675.043C1139.61 675.297 1140.43 675.297 1141.21 675.082L1168.14 769.367C1167.41 769.699 1166.73 770.227 1166.19 770.989C1165.71 771.693 1165.41 772.514 1165.29 773.335L1112.77 767.529H1112.79ZM1174.61 774.352C1174.65 772.749 1174.04 771.146 1172.82 770.071C1172.54 769.836 1172.26 769.641 1171.95 769.484L1186.34 728.275C1188.23 729.702 1190.75 729.389 1192.32 727.532L1242.02 781.82L1174.6 774.371L1174.61 774.352ZM1192.79 726.906C1193.73 725.401 1193.87 723.544 1193.31 721.941L1303.8 694.416L1242.97 781.722L1231.34 769.015L1192.79 726.926V726.906ZM1305.12 692.52L1309.4 631.331C1310.81 631.331 1312.19 630.666 1313.13 629.317C1314.48 627.382 1314.41 624.704 1313.13 622.847L1375.9 559.488L1385.51 577.122L1305.11 692.5L1305.12 692.52ZM1455.02 477.402C1454.67 477.128 1454.28 476.933 1453.9 476.776L1469.7 406.106C1471.23 406.4 1472.84 405.833 1473.96 404.464L1493.72 421.863L1455.02 477.402ZM1466.58 397.994C1465.73 399.44 1465.57 401.2 1466.08 402.744L1407.44 433.006L1368.04 390.76C1368.04 390.76 1368.09 390.702 1368.11 390.682C1369.71 388.376 1369.35 385.052 1367.31 383.254C1367.1 383.078 1366.89 382.921 1366.67 382.785L1388.34 329.103L1466.6 397.974L1466.58 397.994ZM1387.77 328.634L1366.02 382.491C1365.75 382.374 1365.45 382.296 1365.15 382.237L1370.25 313.209L1387.77 328.634ZM1364.44 382.178C1363.29 382.178 1362.14 382.628 1361.26 383.527L1347.55 368.826C1347.55 368.826 1347.6 368.768 1347.62 368.748C1349.22 366.441 1348.86 363.118 1346.82 361.32C1346.72 361.222 1346.59 361.163 1346.49 361.085L1369.47 314.285L1364.46 382.198L1364.44 382.178ZM1369.49 312.564L1345.86 360.674C1344.61 360.029 1343.17 360.049 1341.95 360.674L1337.48 351.643L1279.78 235.209C1280.09 234.974 1280.39 234.7 1280.65 234.368L1369.49 312.545V312.564ZM1278.63 235.873C1278.81 235.815 1278.98 235.717 1279.15 235.619L1313.68 305.312L1341.32 361.105C1340.91 361.417 1340.52 361.769 1340.19 362.238C1339.67 362.981 1339.38 363.841 1339.27 364.721L1305.84 361.965L1278.63 235.893V235.873ZM1305.28 362.688L1313.84 402.373L1263.69 464.91C1262.58 463.933 1261.2 463.639 1259.92 463.933L1255.53 446.084L1237.48 372.619L1234.69 361.32C1235.49 360.987 1236.24 360.42 1236.82 359.619C1237.34 358.876 1237.63 358.016 1237.74 357.136L1305.28 362.708V362.688ZM1229.08 359.052C1229.37 359.58 1229.74 360.088 1230.19 360.499C1230.38 360.655 1230.57 360.792 1230.78 360.909L1196.51 442.644L1133.23 417.054C1133.51 415.92 1133.42 414.708 1133.02 413.633L1229.08 359.072V359.052ZM1128.36 420.905C1129.35 420.983 1130.34 420.69 1131.21 420.064L1174.44 484.85C1174.21 485.065 1174 485.3 1173.83 485.573C1172.72 487.157 1172.58 489.249 1173.26 490.969L1114.83 526.216L1128.39 420.905H1128.36ZM1113.9 527.662L1103.33 609.827C1102.98 609.807 1102.62 609.827 1102.27 609.886L1089.24 547.974C1090.11 547.661 1090.91 547.075 1091.52 546.195C1092.63 544.611 1092.77 542.52 1092.09 540.799L1113.9 527.643V527.662ZM1083.34 544.611C1083.52 545.198 1083.78 545.745 1084.13 546.234L1033.61 598.801L957.892 581.422C957.944 580.894 957.944 580.386 957.857 579.878L1083.32 544.631L1083.34 544.611ZM948.655 579.643C948.377 581.109 948.655 582.634 949.455 583.866L866.43 663.118L862.899 588.714L861.299 554.953C862.482 554.777 863.613 554.112 864.395 552.978C864.691 552.548 864.9 552.079 865.074 551.59L948.673 579.643H948.655ZM858.325 554.269C858.672 554.484 859.02 554.679 859.403 554.797L846.966 623.472L835.137 688.805C833.554 688.59 831.902 689.255 830.841 690.78C830.667 691.034 830.528 691.288 830.389 691.562L787.424 670.468L858.307 554.269H858.325ZM786.38 670.82L763.732 707.944C762.758 707.318 761.662 707.103 760.618 707.299L749.59 656.627C750.443 656.315 751.243 655.728 751.834 654.868C752.008 654.614 752.147 654.36 752.286 654.086L786.38 670.84V670.82Z" fill="#F2B243"/>
<path d="M729.534 694.416C729.534 696.664 731.03 698.502 732.961 698.814V732.106H804.14C804.401 734.081 805.914 735.625 807.741 735.625C809.567 735.625 811.08 734.1 811.341 732.106H1069.6L1069.57 733.787L1070.31 732.36L1070.66 732.615V732.106H1179.2L1179.33 733.299L1180 732.106H1180.32L1180.27 731.637L1220.57 660.381C1221.26 660.772 1222.03 661.006 1222.85 661.006C1225.7 661.006 1228 658.406 1228 655.22C1228 653.382 1227.21 651.76 1226.03 650.704L1258 594.188C1258.42 594.383 1258.87 594.501 1259.34 594.501C1261.22 594.501 1262.73 592.8 1262.73 590.689C1262.73 590.63 1262.73 590.591 1262.73 590.552L1354.23 569.83C1354.89 572.176 1356.82 573.896 1359.12 573.896C1361.97 573.896 1364.27 571.296 1364.27 568.109C1364.27 567.875 1364.23 567.64 1364.2 567.425L1503.55 531.357C1504.07 532.823 1505.34 533.859 1506.82 533.859C1508.76 533.859 1510.35 532.081 1510.35 529.891C1510.35 527.917 1509.04 526.274 1507.36 525.981V455.077C1509.95 454.764 1511.97 452.34 1511.97 449.349C1511.97 446.358 1509.95 443.934 1507.36 443.621V302.692C1509.95 302.379 1511.97 299.955 1511.97 296.964C1511.97 293.973 1509.95 291.549 1507.36 291.236V172.339C1509.95 172.026 1511.97 169.602 1511.97 166.611C1511.97 163.62 1509.95 161.196 1507.36 160.883V66.8524C1508.82 66.5591 1509.91 65.1516 1509.91 63.4313C1509.91 61.4959 1508.52 59.932 1506.8 59.932C1505.08 59.932 1503.69 61.4959 1503.69 63.4313C1503.69 64.1546 1503.88 64.8193 1504.21 65.3666L1415.58 160.57C1414.99 160.062 1414.28 159.749 1413.48 159.749C1411.55 159.749 1410 161.509 1410 163.659C1410 165.262 1410.87 166.65 1412.1 167.237L1401.51 213.451L1263.95 203.637C1263.81 200.881 1261.81 198.691 1259.34 198.691C1256.87 198.691 1254.7 201.037 1254.7 203.911C1254.7 205.905 1255.71 207.605 1257.17 208.485L1222.05 309.006C1221.61 308.87 1221.16 308.772 1220.69 308.772C1217.84 308.772 1215.54 311.372 1215.54 314.558C1215.54 315.673 1215.84 316.728 1216.32 317.608L1102.86 416.878C1102.32 416.331 1101.61 415.998 1100.82 415.998C1099.14 415.998 1097.76 417.543 1097.76 419.439C1097.76 419.713 1097.8 419.986 1097.85 420.24L1070.64 433.671L980.244 375.414C980.522 374.691 980.696 373.909 980.696 373.088C980.696 369.882 978.383 367.302 975.547 367.302C972.712 367.302 970.398 369.902 970.398 373.088C970.398 373.753 970.52 374.378 970.694 374.965L862.899 431.774C862.186 430.543 860.951 429.722 859.542 429.722C857.333 429.722 855.541 431.735 855.541 434.218C855.541 435.547 856.063 436.74 856.898 437.561L815.168 507.449L737.083 396.351C738.04 395.296 738.631 393.83 738.631 392.207C738.631 389.001 736.318 386.421 733.483 386.421C730.647 386.421 728.334 389.021 728.334 392.207C728.334 395.198 730.352 397.642 732.943 397.935V689.978C731.013 690.271 729.517 692.128 729.517 694.377L729.534 694.416ZM814.542 508.563L793.494 543.81C792.973 543.517 792.381 543.341 791.737 543.341C791.372 543.341 791.042 543.419 790.711 543.517L735.97 397.309C736.057 397.251 736.144 397.212 736.231 397.153L814.542 508.563ZM787.754 547.837C787.754 550.261 789.459 552.216 791.598 552.314L793.738 576.848C792.555 577.121 791.546 577.864 790.816 578.861L735.918 538.317L787.771 547.72C787.771 547.72 787.771 547.798 787.771 547.837H787.754ZM879.25 606.992C879.25 607.735 879.389 608.439 879.615 609.084L801.565 654.301L795.808 588.186C797.582 587.776 799.008 586.329 799.6 584.452L879.32 606.21C879.285 606.465 879.25 606.719 879.25 606.973V606.992ZM794.816 576.73L792.677 552.197C793.581 551.962 794.364 551.356 794.921 550.554L802.122 555.148L879.685 604.666C879.633 604.783 879.616 604.92 879.563 605.038L799.843 583.279C799.878 583.025 799.913 582.771 799.913 582.517C799.913 579.331 797.634 576.75 794.799 576.73H794.816ZM1011.33 690.369C1011.33 690.369 1011.33 690.447 1011.33 690.486L966.328 699.42L918.841 708.843L886.695 612.153C887.443 611.723 888.087 611.117 888.574 610.355L1011.55 688.883C1011.4 689.353 1011.29 689.841 1011.29 690.369H1011.33ZM1077.38 604.607C1077.38 603.923 1077.25 603.298 1077.06 602.692L1140.61 568.598L1159.62 558.393C1159.84 558.784 1160.14 559.136 1160.47 559.43L1127.16 622.436L1077.25 605.663C1077.31 605.311 1077.34 604.959 1077.34 604.607H1077.38ZM1173.83 637.919C1173.83 636.023 1172.59 634.459 1170.98 634.166L1163.93 560.29C1164.21 560.212 1164.49 560.094 1164.73 559.957L1219.56 650.821C1218.93 651.408 1218.43 652.131 1218.12 652.991L1173.81 638.114C1173.81 638.114 1173.81 637.997 1173.81 637.919H1173.83ZM1267.27 458.576C1267.27 455.624 1265.31 453.22 1262.79 452.848L1263.97 395.804C1264.63 395.745 1265.27 395.55 1265.83 395.218L1292.69 442.526L1306.62 467.08C1306.22 467.471 1305.91 467.96 1305.68 468.507L1267.22 459.182C1267.24 458.987 1267.27 458.772 1267.27 458.576ZM1392.92 419.498C1392.92 417.289 1391.8 415.373 1390.17 414.395L1410.75 356.823C1410.99 356.882 1411.22 356.921 1411.48 356.921C1412.28 356.921 1412.99 356.589 1413.56 356.08L1473.8 416.819L1502.69 445.947C1502.4 446.417 1502.17 446.925 1502 447.492L1392.86 420.143C1392.88 419.928 1392.92 419.713 1392.92 419.498ZM1392.92 276.086C1392.92 274.913 1392.6 273.818 1392.06 272.919L1392.55 272.469L1447.71 221.759C1448.65 222.795 1449.92 223.44 1451.33 223.44C1452.34 223.44 1453.28 223.108 1454.06 222.541L1503.27 292.8C1502.61 293.524 1502.14 294.442 1501.89 295.459L1452.96 286.896L1392.9 276.379C1392.9 276.379 1392.92 276.184 1392.92 276.105V276.086ZM1502.07 299.075L1444.46 333.032L1414.15 350.9C1413.55 349.981 1412.59 349.395 1411.49 349.395C1411.3 349.395 1411.11 349.414 1410.92 349.453L1397.68 306.426L1389.96 281.325C1391.32 280.602 1392.34 279.233 1392.74 277.572L1501.74 296.671C1501.74 296.671 1501.72 296.866 1501.72 296.945C1501.72 297.707 1501.86 298.411 1502.09 299.075H1502.07ZM1225.87 314.617C1225.87 314.421 1225.84 314.246 1225.82 314.07L1343.2 286.994L1408.62 351.174C1408.5 351.408 1408.4 351.643 1408.31 351.897L1270.61 324.079L1225.8 315.027C1225.8 314.891 1225.84 314.754 1225.84 314.617H1225.87ZM1344.54 286.681L1382.24 277.982L1382.88 277.826C1383.54 280.172 1385.47 281.872 1387.77 281.872C1388.17 281.872 1388.55 281.814 1388.93 281.716L1396.6 306.66L1409.89 349.844C1409.7 349.962 1409.53 350.098 1409.35 350.255L1344.54 286.681ZM1389.16 413.946C1388.71 413.809 1388.25 413.711 1387.77 413.711C1386.03 413.711 1384.5 414.688 1383.56 416.174L1365.38 404.758L1324.17 378.894L1324.24 378.484L1323.67 378.581L1282.09 352.483L1225.46 316.924C1225.54 316.709 1225.58 316.494 1225.65 316.259L1375.82 346.599L1408.14 353.129C1408.14 353.129 1408.14 353.168 1408.14 353.187C1408.14 354.556 1408.8 355.729 1409.75 356.393L1403.79 373.088L1389.18 413.985L1389.16 413.946ZM1261.36 340.832L1317.86 376.294L1321.95 378.875L1268.49 388.551C1267.9 386.088 1265.92 384.27 1263.53 384.27C1262.7 384.27 1261.93 384.505 1261.24 384.896L1223.91 319.133C1224.29 318.8 1224.62 318.409 1224.92 317.96L1261.36 340.832ZM1384.04 423.505L1325.63 501.408L1311.63 474.039C1312.64 473.218 1313.3 471.909 1313.3 470.403C1313.3 469.582 1313.09 468.8 1312.74 468.136L1383.59 422.86C1383.73 423.075 1383.89 423.29 1384.06 423.505H1384.04ZM1310.06 466.005L1323.98 380.145L1383.04 417.21C1382.77 417.914 1382.62 418.677 1382.62 419.498C1382.62 420.319 1382.77 421.101 1383.05 421.824L1312.07 467.178C1311.53 466.591 1310.83 466.181 1310.06 466.005ZM1308.97 465.946C1308.46 465.985 1307.98 466.142 1307.53 466.396L1288.58 433.026L1266.75 394.553C1267.93 393.497 1268.7 391.875 1268.7 390.037C1268.7 389.939 1268.68 389.822 1268.67 389.724L1322.9 379.911L1308.97 465.927V465.946ZM1261.71 452.809C1259.62 453.005 1257.9 454.588 1257.25 456.758L1200.62 443.035C1200.62 442.937 1200.65 442.839 1200.65 442.741C1200.65 442.038 1200.5 441.392 1200.23 440.826L1259.71 393.849C1260.51 394.885 1261.64 395.589 1262.91 395.765L1261.72 452.809H1261.71ZM994.908 469.875C994.908 472.28 996.647 474.215 998.769 474.215C999.308 474.215 999.83 474.078 1000.3 473.863L1014.41 499.727L1038.26 543.458C1038.12 543.595 1037.98 543.771 1037.86 543.927L943.176 485.319L951.108 458.302L994.925 469.524C994.925 469.641 994.89 469.758 994.89 469.875H994.908ZM929.486 531.963L942.845 486.492L1037.35 545.002C1037.32 545.12 1037.28 545.217 1037.26 545.335L932.53 537.026C932.461 534.759 931.243 532.843 929.503 531.963H929.486ZM932.426 538.238L996.543 543.321L1037.18 546.547C1037.3 547.954 1038.12 549.108 1039.25 549.596L1032.9 585.625L932.287 538.844C932.339 538.649 932.391 538.434 932.426 538.219V538.238ZM1001.22 473.199C1001.52 472.925 1001.8 472.593 1002 472.241L1077.69 511.906L1159.17 554.601C1159.13 554.738 1159.08 554.855 1159.06 554.992L1043.61 545.843C1043.46 543.986 1042.08 542.539 1040.39 542.539C1039.96 542.539 1039.56 542.637 1039.18 542.813L1001.22 473.218V473.199ZM1002.46 471.127C1002.49 471.029 1002.53 470.912 1002.54 470.814L1034.06 473.609L1140.83 483.071C1140.9 486.199 1143.18 488.701 1145.98 488.701C1146.24 488.701 1146.5 488.662 1146.75 488.623L1151.03 507.019L1161.46 551.766C1160.71 552.118 1160.07 552.724 1159.64 553.487L1078.96 511.222L1002.46 471.127ZM1147.79 488.31C1149.74 487.489 1151.13 485.378 1151.13 482.915C1151.13 481.898 1150.87 480.94 1150.47 480.119L1163.27 470.012L1194.11 445.654C1194.41 446.006 1194.77 446.299 1195.17 446.534L1163.76 551.512C1163.51 551.454 1163.27 551.434 1163.01 551.434C1162.85 551.434 1162.7 551.473 1162.54 551.493L1159.37 537.906L1147.82 488.33L1147.79 488.31ZM1148.75 478.027L1167.32 436.192L1193.07 442.429C1193.07 442.526 1193.05 442.624 1193.05 442.722C1193.05 443.426 1193.21 444.071 1193.47 444.638L1149.84 479.103C1149.53 478.692 1149.16 478.321 1148.75 478.027ZM1166.73 434.804L1103.9 419.576C1103.9 419.576 1103.9 419.537 1103.9 419.517L1179.59 405.813L1166.72 434.785L1166.73 434.804ZM1180.91 405.598L1258.59 391.542C1258.7 391.992 1258.85 392.422 1259.06 392.833L1199.61 439.809C1198.91 438.988 1197.94 438.46 1196.84 438.46C1195.21 438.46 1193.83 439.633 1193.29 441.256L1167.83 435.078L1180.93 405.598H1180.91ZM1257.92 461.88L1165.58 552.548C1165.32 552.294 1165.05 552.079 1164.75 551.923L1196.16 446.925C1196.39 446.964 1196.62 447.003 1196.84 447.003C1198.48 447.003 1199.85 445.83 1200.39 444.208L1257.03 457.931C1257.01 458.126 1256.98 458.342 1256.98 458.537C1256.98 459.769 1257.32 460.922 1257.92 461.86V461.88ZM1169.9 634.146C1168.87 634.322 1168.02 635.026 1167.52 635.984L1128.26 622.788L1161.41 560.075C1161.86 560.29 1162.35 560.407 1162.85 560.407L1169.9 634.146ZM1167.86 640.402L1072.21 728.822L1127.68 623.883L1167.1 637.117C1167.05 637.372 1167.03 637.645 1167.03 637.919C1167.03 638.877 1167.34 639.737 1167.86 640.402ZM1076.61 601.577C1075.71 599.916 1074.09 598.801 1072.23 598.801C1071.43 598.801 1070.7 599.016 1070.02 599.388L1042.52 548.951C1043.02 548.463 1043.37 547.817 1043.54 547.075L1159.01 556.224C1159.03 556.595 1159.1 556.947 1159.18 557.279L1116.62 580.112L1076.61 601.577ZM1069.1 600.033C1068.52 600.522 1068.07 601.147 1067.72 601.851L1052.28 594.677L1033.91 586.134L1040.29 549.851C1040.29 549.851 1040.34 549.851 1040.38 549.851C1040.81 549.851 1041.21 549.753 1041.59 549.577L1069.1 600.013V600.033ZM1068.73 608.85L1053.41 631.82L1016.74 686.753C1016.58 686.655 1016.41 686.577 1016.23 686.498L1024.41 640.109L1033.7 587.365L1039.35 590.004L1067.3 603.004C1067.17 603.532 1067.08 604.06 1067.08 604.627C1067.08 606.308 1067.72 607.794 1068.73 608.85ZM1015.17 686.264C1015.17 686.264 1015.07 686.264 1015 686.264C1014.46 686.264 1013.95 686.401 1013.49 686.635L937.557 553.995L930.565 541.777C931.086 541.308 931.539 540.702 931.852 540.037L1032.65 586.916L1015.15 686.283L1015.17 686.264ZM1012.58 687.28C1012.41 687.456 1012.25 687.632 1012.11 687.828L889.13 609.299C889.409 608.595 889.565 607.813 889.565 606.992C889.565 605.233 888.852 603.689 887.756 602.613L916.753 555.539L924.894 542.324C925.625 542.774 926.459 543.047 927.347 543.047C928.182 543.047 928.964 542.813 929.66 542.402L1012.58 687.261V687.28ZM884.416 601.206C883.408 601.206 882.468 601.538 881.668 602.105L841.243 544.592L908.004 539.392L922.285 538.278C922.493 539.626 923.12 540.799 924.007 541.64L896.454 586.388L886.886 601.929C886.156 601.48 885.321 601.206 884.434 601.206H884.416ZM880.816 602.868C880.607 603.102 880.416 603.356 880.242 603.63L834.598 574.482L795.477 549.499C795.634 549.069 795.721 548.619 795.738 548.13L839.938 544.69L880.816 602.848V602.868ZM815.255 509.58L839.121 543.536L809.132 545.882L795.669 546.938C795.495 545.98 795.025 545.139 794.399 544.514L815.255 509.599V509.58ZM923.885 533.019C922.911 534.035 922.267 535.462 922.215 537.065L840.425 543.439L815.881 508.524L857.803 438.304C858.324 438.597 858.916 438.773 859.559 438.773C860.255 438.773 860.899 438.558 861.473 438.206L923.885 533.019ZM904.42 462.74L941.871 485.925L928.46 531.611C928.112 531.533 927.747 531.474 927.364 531.474C926.407 531.474 925.52 531.787 924.755 532.296L901.863 497.537L862.343 437.502C862.499 437.346 862.621 437.15 862.743 436.955L904.403 462.74H904.42ZM863.299 435.86L950.064 458.068L942.219 484.752L906.838 462.838L863.299 435.88V435.841V435.86ZM973.46 378.425L950.412 456.914L863.543 434.668C863.543 434.531 863.578 434.413 863.578 434.277C863.578 433.807 863.491 433.377 863.386 432.947L971.199 376.138C971.738 377.135 972.521 377.936 973.477 378.425H973.46ZM976.382 378.855L997.256 465.927C996.299 466.396 995.551 467.275 995.168 468.37L951.456 457.188L974.469 378.816C974.817 378.894 975.182 378.953 975.565 378.953C975.843 378.953 976.104 378.914 976.365 378.855H976.382ZM1069.46 434.355L1002.06 467.647C1001.38 466.415 1000.16 465.575 998.787 465.575C998.63 465.575 998.473 465.614 998.317 465.633L977.443 378.562C978.383 378.151 979.183 377.448 979.757 376.548L1069.46 434.355ZM1141.27 480.627C1141.11 481.038 1140.99 481.448 1140.92 481.898L1048.71 473.727L1002.63 469.641C1002.63 469.328 1002.56 469.035 1002.49 468.742L1070.63 435.098L1141.27 480.608V480.627ZM1142.36 478.848C1142.15 479.064 1141.98 479.318 1141.82 479.572L1071.88 434.492L1098.35 421.413C1098.91 422.332 1099.83 422.938 1100.89 422.938C1101.42 422.938 1101.9 422.782 1102.34 422.508L1142.38 478.829L1142.36 478.848ZM1103.17 421.765C1103.4 421.492 1103.57 421.179 1103.71 420.827L1166.26 435.977L1147.81 477.539C1147.25 477.304 1146.64 477.148 1146.02 477.148C1144.99 477.148 1144.05 477.5 1143.25 478.066L1103.21 421.746L1103.17 421.765ZM1217.98 319.524L1180.21 404.562L1103.75 418.403C1103.69 418.246 1103.64 418.09 1103.57 417.953L1217.04 318.683C1217.32 319.015 1217.63 319.289 1217.98 319.543V319.524ZM1223.04 319.817L1258.09 381.553L1260.37 385.56C1259.19 386.616 1258.42 388.239 1258.42 390.076C1258.42 390.174 1258.44 390.291 1258.45 390.389L1230.08 395.53L1181.54 404.308L1218.95 320.052C1219.51 320.286 1220.12 320.443 1220.74 320.443C1221.58 320.443 1222.34 320.208 1223.04 319.817ZM1342.21 286.017L1225.63 312.897C1225.21 311.43 1224.31 310.238 1223.11 309.534L1258.23 209.013C1258.61 209.13 1258.99 209.208 1259.41 209.208C1260.61 209.208 1261.69 208.681 1262.53 207.84L1342.21 286.017ZM1263.29 206.843L1382.97 274.092C1382.76 274.717 1382.62 275.402 1382.62 276.125C1382.62 276.32 1382.65 276.496 1382.67 276.672L1343.53 285.704L1263.24 206.921C1263.24 206.921 1263.27 206.863 1263.29 206.824V206.843ZM1401.32 214.721L1388.55 270.417C1388.31 270.377 1388.06 270.338 1387.8 270.338C1385.98 270.338 1384.38 271.414 1383.47 273.017L1263.78 205.768C1263.86 205.494 1263.93 205.22 1263.99 204.947L1401.32 214.741V214.721ZM1402.41 214.8L1446.21 217.927C1446.25 219.003 1446.54 220.019 1447.05 220.86L1431.74 234.935L1391.42 272C1390.92 271.433 1390.29 271.003 1389.59 270.71L1402.41 214.8ZM1447.76 213.529C1447 214.369 1446.47 215.464 1446.28 216.696L1402.69 213.587L1413.25 167.589C1413.35 167.589 1413.46 167.628 1413.58 167.628C1414.19 167.628 1414.76 167.432 1415.27 167.119L1447.76 213.529ZM1416.12 166.377C1416.56 165.849 1416.87 165.184 1416.99 164.441L1501.77 167.08C1501.84 168.077 1502.12 169.016 1502.57 169.798L1454.96 213.568C1454.02 212.532 1452.75 211.887 1451.34 211.887C1450.34 211.887 1449.4 212.219 1448.61 212.786L1416.12 166.377ZM1506.35 160.883C1503.98 161.157 1502.12 163.21 1501.81 165.849L1417.01 163.21C1416.94 162.584 1416.75 161.978 1416.43 161.489L1505.06 66.2854C1505.44 66.5982 1505.88 66.8133 1506.35 66.911V160.883ZM1506.35 291.256C1505.55 291.354 1504.8 291.627 1504.16 292.096L1454.95 221.837C1455.9 220.782 1456.51 219.315 1456.51 217.693C1456.51 216.52 1456.2 215.425 1455.66 214.526L1503.27 170.756C1504.09 171.655 1505.16 172.222 1506.35 172.378V291.275V291.256ZM1506.35 443.641C1505.23 443.777 1504.24 444.286 1503.44 445.087L1501.44 443.074L1414.31 355.22C1414.64 354.634 1414.85 353.95 1414.85 353.207C1414.85 352.796 1414.78 352.405 1414.66 352.034L1487.32 309.221L1502.59 300.229C1503.42 301.617 1504.78 302.555 1506.33 302.751V443.68L1506.35 443.641ZM1363.64 565.314L1402.69 533.918L1503.04 453.22C1503.88 454.275 1505.02 454.96 1506.33 455.116V526.02C1504.64 526.314 1503.34 527.936 1503.34 529.93C1503.34 530.028 1503.35 530.126 1503.35 530.204L1364.01 566.272C1363.9 565.939 1363.78 565.607 1363.62 565.314H1363.64ZM1360.79 562.675L1387.25 425.265C1387.44 425.284 1387.61 425.323 1387.8 425.323C1390.08 425.323 1391.98 423.661 1392.67 421.374L1501.81 448.723C1501.79 448.938 1501.75 449.153 1501.75 449.368C1501.75 450.405 1502.02 451.363 1502.45 452.203L1363.05 564.297C1362.46 563.535 1361.69 562.987 1360.82 562.655L1360.79 562.675ZM1357.1 562.851L1326.24 502.561L1384.91 424.326C1385.3 424.619 1385.73 424.834 1386.2 425.01L1379.42 460.218L1359.74 562.421C1359.55 562.401 1359.38 562.362 1359.19 562.362C1358.44 562.362 1357.74 562.538 1357.1 562.87V562.851ZM1261.99 588.264L1325.51 503.539L1356.18 563.457C1354.89 564.512 1354.04 566.213 1354.04 568.129C1354.04 568.305 1354.07 568.481 1354.09 568.657L1262.59 589.379C1262.46 588.968 1262.25 588.577 1261.99 588.245V588.264ZM1261.59 586.896L1307.65 474.489C1308.17 474.763 1308.73 474.919 1309.33 474.919C1309.82 474.919 1310.27 474.802 1310.71 474.626L1324.94 502.425L1261.6 586.896H1261.59ZM1260.04 586.994L1262.58 464.343C1264.66 464.148 1266.39 462.564 1267.03 460.394L1305.4 469.699C1305.37 469.934 1305.33 470.188 1305.33 470.442C1305.33 471.791 1305.87 473.003 1306.73 473.824L1260.32 587.091C1260.23 587.072 1260.12 587.033 1260.04 587.013V586.994ZM1256.42 589.007L1217.44 574.952L1166.94 556.751C1166.98 556.497 1167.01 556.243 1167.01 555.969C1167.01 555.051 1166.77 554.21 1166.35 553.506L1258.68 462.838C1259.45 463.639 1260.42 464.167 1261.52 464.324L1259.72 551.141L1258.98 586.994C1257.86 587.17 1256.92 587.952 1256.44 589.027L1256.42 589.007ZM1220.5 650.157L1165.67 559.293C1166.05 558.902 1166.37 558.433 1166.59 557.905L1217.04 576.105L1256.07 590.18C1256.05 590.356 1256.02 590.552 1256.02 590.747C1256.02 591.881 1256.47 592.878 1257.17 593.582L1225.2 650.098C1224.5 649.707 1223.73 649.472 1222.92 649.472C1222.05 649.472 1221.23 649.746 1220.5 650.176V650.157ZM1171.71 641.496C1172.59 641.105 1173.29 640.323 1173.62 639.326L1217.84 654.184C1217.79 654.536 1217.75 654.888 1217.75 655.239C1217.75 657.077 1218.53 658.7 1219.72 659.755L1180.13 729.721L1171.71 641.477V641.496ZM1071.71 730.914L1168.73 641.223C1169.24 641.555 1169.83 641.77 1170.45 641.77C1170.52 641.77 1170.58 641.77 1170.63 641.751L1175.22 689.861L1179.13 730.914H1071.69H1071.71ZM1070.77 729.233L1071.41 689.431L1072.7 610.374C1074.64 610.179 1076.28 608.81 1077.01 606.856L1126.64 623.531L1070.77 729.233ZM1018.34 692.128C1018.56 691.601 1018.69 691.014 1018.69 690.389C1018.69 689.255 1018.29 688.238 1017.63 687.495L1053.16 634.244L1069.62 609.592C1070.21 610.003 1070.89 610.257 1071.62 610.355L1070.33 689.861L1069.67 730.406L1018.34 692.128ZM926.199 730.914L919.258 710.016L1011.55 691.698C1012.04 693.341 1013.4 694.513 1015.02 694.513C1016.09 694.513 1017.07 693.986 1017.73 693.145L1068.38 730.914H926.199ZM813.933 730.914L918.162 710.231L925.033 730.914H813.933ZM810.263 728.529L859.577 648.456L881.981 612.075C882.712 612.525 883.547 612.798 884.434 612.798C884.886 612.798 885.304 612.72 885.721 612.603L917.797 709.078L811.237 730.23C811.046 729.584 810.715 728.998 810.28 728.548L810.263 728.529ZM801.705 655.63L880.137 610.198C880.398 610.648 880.729 611.039 881.094 611.391L809.376 727.845C808.941 727.61 808.471 727.454 807.949 727.434L801.705 655.63ZM804.679 729.33L737.309 695.686C737.414 695.295 737.483 694.885 737.483 694.455C737.483 693.927 737.396 693.438 737.24 692.989L800.661 656.236L806.871 727.551C805.949 727.805 805.166 728.451 804.679 729.33ZM734.057 698.853C735.239 698.677 736.266 697.896 736.875 696.801L804.244 730.445C804.209 730.601 804.175 730.757 804.157 730.933H734.074V698.853H734.057ZM734.057 566.604L789.702 581.794C789.667 582.048 789.633 582.302 789.633 582.556C789.633 585.743 791.911 588.323 794.747 588.343L800.539 654.927L736.735 691.894C736.109 690.916 735.152 690.232 734.039 690.056V566.604H734.057ZM734.057 538.414L790.224 579.917C790.12 580.152 790.033 580.367 789.946 580.621L734.039 565.353V538.414H734.057ZM734.057 398.013C734.387 397.974 734.7 397.896 734.996 397.798L789.754 544.005C788.902 544.572 788.276 545.472 787.98 546.547L734.074 536.753V398.013H734.057Z" fill="#91928E"/>
<path d="M734.039 690.017V397.974C736.631 397.661 738.649 395.237 738.649 392.246C738.649 389.04 736.335 386.46 733.5 386.46C730.665 386.46 728.351 389.06 728.351 392.246C728.351 393.869 728.943 395.335 729.899 396.391L651.815 507.488L610.085 437.6C610.902 436.779 611.441 435.586 611.441 434.257C611.441 431.774 609.65 429.761 607.441 429.761C606.032 429.761 604.797 430.582 604.083 431.813L496.288 375.004C496.48 374.417 496.584 373.792 496.584 373.127C496.584 369.921 494.271 367.341 491.435 367.341C488.6 367.341 486.286 369.941 486.286 373.127C486.286 373.968 486.443 374.75 486.739 375.454L396.338 433.71L369.133 420.28C369.185 420.025 369.22 419.752 369.22 419.478C369.22 417.582 367.846 416.037 366.159 416.037C365.376 416.037 364.663 416.37 364.123 416.917L250.658 317.647C251.145 316.767 251.441 315.712 251.441 314.597C251.441 311.391 249.127 308.811 246.292 308.811C245.822 308.811 245.37 308.909 244.935 309.045L209.815 208.524C211.276 207.645 212.285 205.944 212.285 203.95C212.285 201.076 210.198 198.73 207.641 198.73C205.084 198.73 203.153 200.92 203.031 203.676L65.4738 213.49L54.8804 167.276C56.1154 166.67 56.9852 165.301 56.9852 163.698C56.9852 161.548 55.4196 159.789 53.5062 159.789C52.7061 159.789 51.9929 160.101 51.4015 160.61L-37.2594 65.3666C-36.9289 64.8193 -36.7375 64.1546 -36.7375 63.4313C-36.7375 61.4959 -38.1291 59.932 -39.8512 59.932C-41.5732 59.932 -42.9648 61.4959 -42.9648 63.4313C-42.9648 65.1516 -41.8516 66.5787 -40.4078 66.8524V160.825C-42.9996 161.137 -45.0174 163.561 -45.0174 166.552C-45.0174 169.543 -42.9996 171.968 -40.4078 172.28V291.178C-42.9996 291.49 -45.0174 293.914 -45.0174 296.906C-45.0174 299.896 -42.9996 302.321 -40.4078 302.633V443.562C-42.9996 443.875 -45.0174 446.299 -45.0174 449.29C-45.0174 452.281 -42.9996 454.705 -40.4078 455.018V525.923C-42.0951 526.216 -43.3997 527.838 -43.3997 529.832C-43.3997 532.022 -41.8168 533.801 -39.8686 533.801C-38.39 533.801 -37.1202 532.765 -36.5984 531.299L102.751 567.366C102.733 567.601 102.681 567.816 102.681 568.051C102.681 571.257 104.995 573.837 107.83 573.837C110.143 573.837 112.074 572.117 112.718 569.771L204.214 590.493C204.214 590.493 204.214 590.591 204.214 590.63C204.214 592.741 205.727 594.442 207.606 594.442C208.076 594.442 208.528 594.325 208.945 594.129L240.917 650.645C239.734 651.701 238.951 653.324 238.951 655.161C238.951 658.367 241.265 660.948 244.1 660.948C244.918 660.948 245.7 660.713 246.379 660.322L286.682 731.578L286.63 732.048H286.943L287.622 733.24L287.743 732.048H396.286V732.556L396.634 732.302L397.382 733.729L397.347 732.048H655.607C655.867 734.022 657.381 735.566 659.207 735.566C661.034 735.566 662.547 734.042 662.808 732.048H733.987V698.756C735.918 698.462 737.414 696.605 737.414 694.357C737.414 692.109 735.918 690.271 733.987 689.959L734.039 690.017ZM730.752 397.133C730.752 397.133 730.926 397.231 731.013 397.29L676.271 543.497C675.941 543.399 675.593 543.321 675.245 543.321C674.619 543.321 674.028 543.497 673.488 543.79L652.441 508.543L730.752 397.133ZM679.229 547.7L731.082 538.297L676.185 578.842C675.454 577.845 674.428 577.102 673.262 576.828L675.402 552.294C677.541 552.196 679.246 550.242 679.246 547.817C679.246 547.778 679.246 547.739 679.246 547.7H679.229ZM587.68 606.21L667.4 584.452C668.009 586.329 669.418 587.776 671.192 588.186L665.435 654.301L587.384 609.084C587.611 608.439 587.75 607.735 587.75 606.992C587.75 606.738 587.715 606.484 587.68 606.23V606.21ZM667.07 582.497C667.07 582.752 667.104 583.006 667.139 583.26L587.419 605.018C587.385 604.901 587.35 604.764 587.298 604.646L664.861 555.129L672.062 550.535C672.619 551.336 673.384 551.923 674.306 552.177L672.166 576.711C669.331 576.73 667.052 579.311 667.052 582.497H667.07ZM455.428 688.864L578.409 610.335C578.896 611.098 579.539 611.704 580.287 612.134L548.142 708.823L500.655 699.401L455.654 690.467C455.654 690.467 455.654 690.389 455.654 690.349C455.654 689.822 455.55 689.333 455.394 688.864H455.428ZM389.728 605.663L339.823 622.436L306.512 559.43C306.843 559.136 307.138 558.784 307.365 558.393L326.377 568.598L389.92 602.692C389.728 603.298 389.607 603.943 389.607 604.607C389.607 604.979 389.641 605.331 389.694 605.663H389.728ZM293.205 638.095L248.901 652.972C248.588 652.112 248.083 651.388 247.457 650.802L302.285 559.938C302.546 560.075 302.807 560.192 303.085 560.27L296.041 634.146C294.423 634.439 293.188 636.003 293.188 637.899C293.188 637.958 293.188 638.017 293.188 638.095H293.205ZM199.796 459.163L161.336 468.487C161.11 467.94 160.779 467.471 160.397 467.06L174.347 442.507L201.205 395.198C201.779 395.511 202.405 395.726 203.066 395.785L204.249 452.829C201.709 453.2 199.761 455.605 199.761 458.557C199.761 458.772 199.796 458.967 199.813 459.163H199.796ZM74.1711 420.123L-34.9633 447.472C-35.1372 446.925 -35.3633 446.397 -35.659 445.928L-6.76644 416.8L53.4714 356.061C54.0454 356.589 54.7586 356.902 55.5588 356.902C55.8023 356.902 56.0458 356.862 56.2894 356.804L76.8673 414.376C75.2322 415.353 74.1189 417.249 74.1189 419.478C74.1189 419.693 74.1537 419.908 74.1711 420.123ZM74.1363 276.34L14.0724 286.857L-34.8589 295.42C-35.1024 294.403 -35.5721 293.484 -36.2331 292.761L12.9766 222.502C13.7767 223.069 14.6986 223.401 15.7075 223.401C17.1165 223.401 18.4037 222.756 19.3256 221.72L74.4842 272.43L74.9713 272.88C74.4321 273.799 74.1189 274.874 74.1189 276.047C74.1189 276.144 74.1363 276.242 74.1363 276.32V276.34ZM-34.6675 296.925C-34.6675 296.925 -34.6849 296.73 -34.6849 296.651L74.3103 277.552C74.7104 279.214 75.7367 280.582 77.0934 281.305L69.3702 306.406L56.1328 349.434C55.9415 349.395 55.7675 349.375 55.5588 349.375C54.4629 349.375 53.5062 349.981 52.8974 350.88L22.5958 333.013L-35.0676 299.056C-34.8415 298.391 -34.7023 297.687 -34.7023 296.925H-34.6675ZM241.195 315.008L196.386 324.059L58.6898 351.877C58.6029 351.623 58.5159 351.389 58.3767 351.154L123.798 286.975L241.178 314.05C241.178 314.226 241.125 314.421 241.125 314.597C241.125 314.734 241.16 314.871 241.16 315.008H241.195ZM57.6809 350.235C57.507 350.079 57.333 349.942 57.1417 349.825L70.4313 306.641L78.1023 281.696C78.485 281.794 78.8677 281.853 79.2678 281.853C81.5639 281.853 83.4947 280.152 84.1557 277.806L84.7993 277.962L122.494 286.662L57.6809 350.235ZM63.2646 373.029L57.2983 356.335C58.2724 355.67 58.916 354.497 58.916 353.129C58.916 353.109 58.916 353.089 58.916 353.07L91.2353 346.541L241.404 316.2C241.456 316.415 241.508 316.65 241.595 316.865L184.958 352.425L143.385 378.523L142.811 378.425L142.88 378.836L101.672 404.699L83.4947 416.116C82.5554 414.63 81.0246 413.652 79.2852 413.652C78.7981 413.652 78.3285 413.75 77.8936 413.887L63.282 372.99L63.2646 373.029ZM242.117 317.94C242.395 318.39 242.743 318.781 243.126 319.113L205.797 384.876C205.101 384.485 204.336 384.251 203.501 384.251C201.118 384.251 199.135 386.069 198.543 388.532L145.089 378.855L149.177 376.275L205.675 340.813L242.117 317.94ZM83.4599 422.84L154.309 468.116C153.961 468.781 153.752 469.543 153.752 470.384C153.752 471.889 154.413 473.199 155.422 474.02L141.419 501.388L83.0076 423.486C83.1816 423.29 83.3381 423.075 83.4773 422.84H83.4599ZM154.987 467.139L83.9991 421.785C84.2775 421.081 84.434 420.299 84.434 419.458C84.434 418.618 84.2775 417.875 84.0165 417.171L143.072 380.106L156.987 465.966C156.222 466.142 155.544 466.552 154.987 467.139ZM144.133 379.891L198.369 389.705C198.369 389.803 198.335 389.9 198.335 390.018C198.335 391.855 199.1 393.458 200.283 394.533L178.452 433.006L159.51 466.376C159.075 466.122 158.588 465.985 158.066 465.927L144.133 379.911V379.891ZM204.144 395.726C205.414 395.55 206.545 394.846 207.345 393.81L266.817 440.786C266.557 441.373 266.4 442.018 266.4 442.702C266.4 442.8 266.417 442.898 266.435 442.995L209.798 456.719C209.171 454.549 207.432 452.965 205.345 452.77L204.162 395.726H204.144ZM472.092 469.504L515.91 458.283L523.842 485.3L429.162 543.908C429.04 543.732 428.901 543.575 428.762 543.438L452.61 499.707L466.717 473.844C467.187 474.078 467.709 474.196 468.248 474.196C470.388 474.196 472.11 472.241 472.11 469.856C472.11 469.739 472.092 469.621 472.075 469.504H472.092ZM534.522 537.007L429.789 545.315C429.771 545.198 429.736 545.081 429.702 544.983L524.207 486.473L537.566 531.944C535.827 532.823 534.609 534.759 534.539 537.007H534.522ZM534.731 538.844L434.12 585.625L427.771 549.596C428.901 549.108 429.719 547.954 429.841 546.547L470.475 543.321L534.592 538.238C534.626 538.453 534.679 538.649 534.731 538.864V538.844ZM427.84 542.793C427.458 542.617 427.058 542.52 426.623 542.52C424.935 542.52 423.561 543.966 423.405 545.823L307.956 554.972C307.939 554.836 307.886 554.699 307.852 554.581L389.328 511.886L465.013 472.221C465.222 472.593 465.5 472.906 465.796 473.179L427.84 542.774V542.793ZM388.076 511.202L307.399 553.467C306.964 552.705 306.321 552.099 305.573 551.747L316.01 506.999L320.289 488.603C320.55 488.642 320.793 488.682 321.054 488.682C323.855 488.682 326.116 486.16 326.203 483.051L432.972 473.59L464.491 470.794C464.508 470.911 464.543 471.009 464.578 471.107L388.076 511.202ZM307.695 537.867L304.529 551.454C304.373 551.434 304.216 551.395 304.06 551.395C303.799 551.395 303.555 551.434 303.312 551.473L271.897 446.495C272.297 446.28 272.645 445.987 272.958 445.615L303.799 469.973L316.601 480.08C316.184 480.921 315.94 481.859 315.94 482.876C315.94 485.358 317.332 487.45 319.28 488.271L307.73 537.847L307.695 537.867ZM317.21 479.083L273.584 444.618C273.845 444.032 274.001 443.386 274.001 442.702C274.001 442.605 273.984 442.507 273.967 442.409L299.711 436.173L318.288 478.008C317.871 478.301 317.506 478.672 317.193 479.083H317.21ZM287.448 405.813L363.132 419.517V419.576L300.302 434.804L287.43 405.833L287.448 405.813ZM299.224 435.039L273.758 441.217C273.219 439.594 271.845 438.421 270.209 438.421C269.114 438.421 268.139 438.949 267.444 439.77L207.989 392.794C208.18 392.383 208.354 391.953 208.458 391.503L286.143 405.559L299.241 435.039H299.224ZM210.076 458.517C210.076 458.302 210.041 458.107 210.024 457.911L266.661 444.188C267.2 445.811 268.574 446.983 270.209 446.983C270.436 446.983 270.679 446.944 270.888 446.905L302.303 551.903C301.99 552.079 301.711 552.294 301.468 552.529L209.137 461.86C209.728 460.922 210.076 459.769 210.076 458.537V458.517ZM304.181 560.368C304.686 560.368 305.173 560.231 305.625 560.036L338.779 622.749L299.537 635.945C299.032 634.987 298.18 634.302 297.154 634.107L304.199 560.368H304.181ZM300.007 637.86C300.007 637.587 299.972 637.313 299.937 637.059L339.353 623.824L394.825 728.763L299.172 640.343C299.693 639.678 300.007 638.818 300.007 637.86ZM350.416 580.073L307.852 557.24C307.956 556.908 308.008 556.556 308.026 556.184L423.492 547.035C423.648 547.778 424.013 548.423 424.518 548.912L397.017 599.349C396.338 598.997 395.608 598.762 394.808 598.762C392.946 598.762 391.329 599.877 390.424 601.538L350.416 580.073ZM425.44 549.557C425.823 549.733 426.223 549.831 426.657 549.831C426.692 549.831 426.71 549.831 426.744 549.831L433.128 586.114L414.759 594.657L399.313 601.831C398.965 601.128 398.495 600.502 397.939 600.013L425.44 549.577V549.557ZM399.957 604.568C399.957 604.001 399.852 603.454 399.73 602.946L427.684 589.946L433.337 587.307L442.626 640.05L450.801 686.44C450.627 686.518 450.453 686.596 450.297 686.694L413.629 631.761L398.304 608.791C399.313 607.735 399.957 606.23 399.957 604.568ZM434.363 586.837L535.166 539.959C535.496 540.623 535.931 541.229 536.453 541.699L529.46 553.917L453.532 686.557C453.08 686.322 452.558 686.186 452.019 686.186C451.967 686.186 451.897 686.186 451.845 686.186L434.346 586.818L434.363 586.837ZM537.375 542.363C538.07 542.754 538.853 543.008 539.688 543.008C540.575 543.008 541.41 542.735 542.141 542.285L550.282 555.5L579.279 602.574C578.183 603.63 577.47 605.194 577.47 606.953C577.47 607.774 577.626 608.556 577.904 609.26L454.924 687.789C454.785 687.593 454.628 687.398 454.454 687.241L537.375 542.383V542.363ZM580.166 601.871L570.599 586.329L543.045 541.581C543.933 540.721 544.559 539.568 544.767 538.219L559.049 539.333L625.809 544.533L585.384 602.047C584.584 601.48 583.645 601.147 582.636 601.147C581.749 601.147 580.914 601.421 580.183 601.871H580.166ZM627.097 544.631L671.297 548.072C671.331 548.541 671.401 549.01 671.557 549.44L632.437 574.424L586.793 603.571C586.619 603.298 586.428 603.043 586.219 602.809L627.097 544.65V544.631ZM672.619 544.435C671.992 545.061 671.523 545.902 671.349 546.86L657.885 545.804L627.897 543.458L651.762 509.501L672.619 544.416V544.435ZM605.562 438.128C606.136 438.48 606.78 438.695 607.475 438.695C608.102 438.695 608.693 438.519 609.232 438.225L651.154 508.446L626.61 543.36L544.82 536.987C544.767 535.384 544.141 533.957 543.15 532.941L605.562 438.128ZM604.275 436.877C604.397 437.072 604.536 437.248 604.675 437.424L565.154 497.459L542.263 532.217C541.497 531.709 540.61 531.396 539.653 531.396C539.271 531.396 538.906 531.455 538.558 531.533L525.146 485.847L562.597 462.662L604.257 436.877H604.275ZM603.753 435.821L560.214 462.779L524.833 484.694L516.988 458.009L603.753 435.801V435.841V435.821ZM495.871 376.079L603.683 432.889C603.562 433.319 603.492 433.749 603.492 434.218C603.492 434.355 603.509 434.472 603.527 434.609L516.658 456.856L493.61 378.366C494.566 377.878 495.349 377.076 495.888 376.079H495.871ZM491.47 378.894C491.853 378.894 492.218 378.836 492.566 378.757L515.579 457.129L471.866 468.312C471.501 467.217 470.736 466.318 469.779 465.868L490.653 378.796C490.913 378.836 491.174 378.894 491.453 378.894H491.47ZM487.295 376.49C487.869 377.389 488.67 378.093 489.609 378.503L468.735 465.575C468.579 465.555 468.422 465.516 468.266 465.516C466.874 465.516 465.674 466.337 464.995 467.588L397.591 434.296L487.295 376.49ZM396.408 435.059L464.543 468.702C464.474 468.996 464.421 469.289 464.404 469.602L418.325 473.688L326.116 481.859C326.046 481.409 325.925 480.979 325.768 480.588L396.408 435.078V435.059ZM364.732 422.469C365.167 422.723 365.654 422.899 366.176 422.899C367.237 422.899 368.159 422.293 368.716 421.374L395.19 434.453L325.246 479.533C325.072 479.279 324.898 479.024 324.707 478.809L364.75 422.489L364.732 422.469ZM323.837 478.027C323.037 477.441 322.08 477.109 321.072 477.109C320.428 477.109 319.837 477.245 319.28 477.5L300.824 435.938L363.375 420.788C363.497 421.14 363.689 421.452 363.915 421.726L323.872 478.047L323.837 478.027ZM250.014 318.585L363.48 417.855C363.41 417.992 363.358 418.149 363.306 418.305L286.839 404.464L249.075 319.426C249.423 319.172 249.736 318.898 250.014 318.566V318.585ZM246.309 320.364C246.953 320.364 247.544 320.228 248.101 319.973L285.517 404.23L236.968 395.452L208.597 390.311C208.597 390.213 208.632 390.115 208.632 389.998C208.632 388.16 207.867 386.557 206.684 385.482L208.963 381.475L244.013 319.739C244.709 320.13 245.474 320.364 246.309 320.364ZM204.544 207.762C205.362 208.602 206.458 209.13 207.658 209.13C208.058 209.13 208.458 209.052 208.841 208.935L243.961 309.456C242.761 310.16 241.856 311.352 241.439 312.818L124.859 285.938L204.544 207.762ZM203.814 206.863L123.52 285.645L84.3818 276.614C84.3818 276.418 84.434 276.242 84.434 276.066C84.434 275.343 84.2948 274.678 84.0861 274.033L203.762 206.784C203.762 206.784 203.796 206.843 203.814 206.882V206.863ZM203.083 204.849C203.135 205.142 203.205 205.416 203.292 205.67L83.5991 272.919C82.6771 271.316 81.0942 270.241 79.2678 270.241C79.0069 270.241 78.7633 270.28 78.5198 270.319L65.7521 214.624L203.083 204.83V204.849ZM77.4761 270.632C76.7803 270.925 76.1715 271.355 75.6497 271.922L35.3287 234.857L20.0214 220.782C20.5085 219.941 20.8042 218.924 20.8564 217.849L64.6562 214.721L77.4761 270.632ZM51.8015 167.041C52.306 167.354 52.88 167.549 53.4888 167.549C53.5932 167.549 53.715 167.53 53.8193 167.51L64.3779 213.509L20.7868 216.618C20.5954 215.386 20.0736 214.272 19.3082 213.451L51.8015 167.041ZM18.4385 212.708C17.6383 212.141 16.7164 211.809 15.7075 211.809C14.2985 211.809 13.0113 212.454 12.0894 213.49L-35.5373 169.739C-35.0676 168.937 -34.8067 168.019 -34.7371 167.022L50.0447 164.383C50.1664 165.125 50.4795 165.79 50.9144 166.318L18.4211 212.727L18.4385 212.708ZM-39.2945 66.8524C-38.8249 66.7546 -38.39 66.5396 -38.0073 66.2268L50.6187 161.431C50.3056 161.939 50.1142 162.525 50.0447 163.151L-34.7545 165.79C-35.0676 163.151 -36.9463 161.098 -39.2945 160.825V66.8524ZM-39.2945 172.3C-38.0943 172.163 -37.0158 171.577 -36.2157 170.677L11.3936 214.448C10.8544 215.366 10.5413 216.442 10.5413 217.615C10.5413 219.237 11.1501 220.703 12.1068 221.759L-37.1028 292.038C-37.7464 291.588 -38.4944 291.295 -39.2945 291.197V172.3ZM-39.2945 302.672C-37.729 302.477 -36.3722 301.539 -35.5547 300.151L-20.2821 309.143L52.3756 351.956C52.2712 352.327 52.1842 352.718 52.1842 353.129C52.1842 353.871 52.3756 354.575 52.7234 355.142L-34.4066 443.015L-36.407 445.029C-37.1898 444.227 -38.1987 443.719 -39.3119 443.582V302.653L-39.2945 302.672ZM103.012 566.233L-36.3374 530.145C-36.3374 530.145 -36.32 529.95 -36.32 529.871C-36.32 527.897 -37.6246 526.255 -39.3119 525.962V455.057C-38.0073 454.901 -36.8419 454.217 -36.0243 453.161L64.3257 533.859L103.377 565.255C103.22 565.568 103.099 565.881 102.994 566.213L103.012 566.233ZM104.02 564.278L-35.3807 452.164C-34.9633 451.323 -34.6849 450.365 -34.6849 449.329C-34.6849 449.114 -34.7197 448.899 -34.7371 448.684L74.3973 421.335C75.093 423.622 76.9891 425.284 79.2678 425.284C79.4591 425.284 79.6331 425.245 79.8244 425.225L106.282 562.636C105.412 562.968 104.647 563.535 104.055 564.278H104.02ZM107.865 562.323C107.673 562.323 107.499 562.362 107.308 562.381L87.6346 460.179L80.8507 424.971C81.303 424.795 81.7378 424.58 82.1379 424.287L140.81 502.522L109.952 562.812C109.308 562.499 108.613 562.303 107.865 562.303V562.323ZM204.457 589.379L112.961 568.657C112.961 568.481 113.013 568.305 113.013 568.129C113.013 566.194 112.161 564.512 110.874 563.457L141.541 503.539L205.066 588.264C204.805 588.597 204.597 588.968 204.457 589.398V589.379ZM142.115 502.405L156.344 474.606C156.779 474.782 157.231 474.9 157.718 474.9C158.327 474.9 158.901 474.743 159.405 474.469L205.466 586.876L142.132 502.405H142.115ZM206.719 587.052L160.31 473.785C161.162 472.964 161.701 471.772 161.701 470.403C161.701 470.149 161.666 469.915 161.632 469.66L200.004 460.355C200.631 462.525 202.37 464.108 204.457 464.304L206.997 586.955C206.893 586.974 206.806 587.013 206.719 587.033V587.052ZM208.076 586.955L207.328 551.102L205.536 464.284C206.632 464.128 207.606 463.6 208.371 462.799L300.702 553.467C300.285 554.171 300.041 555.031 300.041 555.93C300.041 556.204 300.076 556.458 300.111 556.712L249.614 574.912L210.633 588.968C210.146 587.893 209.206 587.111 208.093 586.935L208.076 586.955ZM244.117 649.433C243.3 649.433 242.517 649.668 241.839 650.059L209.867 593.543C210.563 592.839 211.015 591.842 211.015 590.708C211.015 590.513 210.998 590.337 210.963 590.141L249.997 576.066L300.441 557.866C300.668 558.393 300.981 558.863 301.363 559.254L246.535 650.118C245.805 649.688 245.005 649.414 244.117 649.414V649.433ZM286.891 729.702L247.301 659.736C248.483 658.68 249.266 657.057 249.266 655.22C249.266 654.848 249.231 654.497 249.179 654.164L293.397 639.307C293.744 640.304 294.44 641.086 295.31 641.477L286.891 729.721V729.702ZM287.865 730.894L291.779 689.841L296.371 641.731C296.371 641.731 296.493 641.751 296.545 641.751C297.171 641.751 297.763 641.536 298.267 641.203L395.295 730.894H287.848H287.865ZM340.362 623.511L389.989 606.836C390.72 608.771 392.355 610.159 394.303 610.355L395.59 689.411L396.234 729.213L340.362 623.511ZM397.33 730.366L396.669 689.822L395.382 610.316C396.112 610.218 396.773 609.944 397.382 609.553L413.838 634.205L449.375 687.456C448.714 688.199 448.314 689.216 448.314 690.349C448.314 690.975 448.453 691.562 448.662 692.089L397.33 730.366ZM398.6 730.875L449.253 693.106C449.932 693.947 450.888 694.474 451.967 694.474C453.584 694.474 454.941 693.282 455.428 691.659L547.725 709.977L540.784 730.875H398.6ZM541.95 730.875L548.82 710.192L653.049 730.875H541.95ZM655.78 730.171L549.221 709.019L581.296 612.544C581.714 612.662 582.131 612.74 582.584 612.74C583.471 612.74 584.306 612.466 585.036 612.016L607.441 648.397L656.755 728.47C656.32 728.939 655.989 729.506 655.798 730.151L655.78 730.171ZM659.051 727.375C658.546 727.395 658.059 727.551 657.624 727.786L585.906 611.332C586.271 610.98 586.602 610.589 586.863 610.14L665.295 655.572L659.051 727.375ZM660.129 727.493L666.339 656.178L729.76 692.93C729.621 693.399 729.517 693.888 729.517 694.396C729.517 694.826 729.586 695.237 729.691 695.628L662.321 729.272C661.834 728.392 661.051 727.766 660.129 727.493ZM732.943 730.875H662.86C662.843 730.718 662.808 730.542 662.773 730.386L730.143 696.742C730.752 697.837 731.761 698.599 732.961 698.795V730.875H732.943ZM732.943 689.998C731.83 690.174 730.873 690.838 730.247 691.835L666.443 654.868L672.236 588.284C675.071 588.264 677.35 585.684 677.35 582.497C677.35 582.243 677.315 581.989 677.28 581.735L732.926 566.545V689.998H732.943ZM732.943 565.275L677.037 580.543C676.967 580.308 676.863 580.073 676.758 579.839L732.926 538.336V565.275H732.943ZM732.943 536.694L679.037 546.488C678.741 545.413 678.115 544.514 677.263 543.947L732.021 397.739C732.317 397.837 732.63 397.915 732.961 397.954V536.694H732.943Z" fill="#91928E"/>
</svg>
