<svg width="1558" height="1089" viewBox="0 0 1558 1089" fill="none" xmlns="http://www.w3.org/2000/svg">
<path d="M1021.25 789.619C1021.63 788.094 1021.56 786.393 1020.9 784.849C1019.46 781.525 1015.91 780.157 1012.95 781.779C1010.61 783.07 1009.37 785.865 1009.68 788.622L963.449 799.256L903.107 634.536C906.012 632.894 907.212 628.925 905.786 625.641C904.342 622.318 900.793 620.949 897.836 622.572C895.714 623.725 894.514 626.13 894.514 628.613L784.649 638.485C784.562 637.84 784.405 637.195 784.144 636.589C782.701 633.265 779.152 631.897 776.195 633.52C775.099 634.126 774.247 635.044 773.673 636.139L626.931 555.382C627.522 553.701 627.54 551.746 626.775 549.986C625.331 546.663 621.782 545.295 618.825 546.917C618.199 547.25 617.677 547.719 617.207 548.247L592.855 525.061L600.856 390.173C601.709 390.173 602.596 389.978 603.413 389.508C606.371 387.886 607.588 383.898 606.144 380.574C604.701 377.251 601.152 375.883 598.195 377.505C597.534 377.877 596.96 378.365 596.473 378.952L490.609 283.064C491.774 281.148 492.053 278.607 491.078 276.359C489.635 273.035 486.086 271.667 483.129 273.289C481.424 274.228 480.328 275.968 479.946 277.883L395.46 264.805L458.55 117.347C460.046 118.011 461.768 118.011 463.316 117.151C466.274 115.529 467.491 111.541 466.047 108.217C464.604 104.894 461.055 103.525 458.098 105.148C455.28 106.692 454.062 110.387 455.211 113.613L327.516 183.637L326.438 184.224L300.972 198.201L300.154 198.651L187.123 260.641C185.575 257.65 182.218 256.458 179.4 258.002C176.582 259.546 175.365 263.241 176.513 266.467L147.203 282.536L182.357 363.528C179.696 365.268 178.635 369.041 180.009 372.208C181.383 375.374 184.671 376.743 187.541 375.453L244.961 507.682L317.149 673.966L317.497 674.768L316.383 675.354L317.601 675.472L317.549 675.863L317.897 675.687L318.349 676.742L372.951 802.482L372.203 803.01L373.229 803.147L373.334 803.401L373.629 803.205L459.803 814.133C459.768 815.189 459.924 816.284 460.377 817.3C461.821 820.623 465.369 821.992 468.326 820.369C470.083 819.411 471.196 817.613 471.544 815.599L537.783 824.005C537.748 825.061 537.905 826.156 538.357 827.192C539.801 830.515 543.349 831.884 546.307 830.261C546.533 830.144 546.724 829.968 546.933 829.831L611.067 924.096C609.136 926.032 608.475 929.238 609.658 931.994C611.102 935.318 614.65 936.686 617.608 935.063C617.886 934.907 618.129 934.731 618.373 934.536L720.932 1076.97C719.088 1078.92 718.479 1082.05 719.645 1084.75C721.089 1088.07 724.637 1089.44 727.594 1087.82C730.412 1086.28 731.63 1082.58 730.482 1079.35L794.164 1044.44C795.712 1047.43 799.069 1048.62 801.887 1047.08C804.705 1045.54 805.923 1041.84 804.774 1038.61L934.73 967.339C936.279 970.33 939.636 971.522 942.454 969.978C945.272 968.434 946.489 964.739 945.341 961.513L1054.98 901.38C1056.53 904.371 1059.89 905.564 1062.7 904.02C1065.52 902.475 1066.74 898.78 1065.59 895.555L1156.36 845.783L1021.25 789.658V789.619ZM1154.1 845.861L1065.21 894.617C1063.76 891.821 1060.76 890.628 1058.06 891.723L1018.42 793.626C1019.58 792.903 1020.43 791.828 1020.96 790.557L1154.11 845.861H1154.1ZM595.447 386.42C595.621 386.811 595.812 387.163 596.038 387.495L527.433 454.724C526.094 453.238 524.215 452.574 522.372 452.886L510.874 397.719L594.994 384.856C595.099 385.384 595.238 385.892 595.447 386.4V386.42ZM186.48 268.383L251.519 322.905L190.133 365.346C189.054 363.665 187.349 362.687 185.558 362.609L182.636 270.631C183.297 270.552 183.958 270.357 184.584 270.025C185.332 269.614 185.958 269.067 186.462 268.402L186.48 268.383ZM465.178 807.682L457.037 752.182C459.664 750.423 460.725 746.689 459.35 743.542C459.246 743.307 459.107 743.111 458.985 742.896L522.198 698.286C522.598 698.911 523.102 699.419 523.641 699.83L468.239 808.347C467.282 807.838 466.239 807.604 465.16 807.701L465.178 807.682ZM1054.6 900.442L944.958 960.575C944.419 959.558 943.689 958.718 942.836 958.151L982.74 865.312C984.236 865.977 985.958 865.977 987.523 865.117C988.671 864.491 989.541 863.514 990.115 862.341L1054.55 895.653C1054.04 897.158 1054.04 898.859 1054.61 900.442H1054.6ZM899.941 635.201L898.445 807.956C897.697 808.014 896.949 808.229 896.219 808.62C895.992 808.738 895.784 808.914 895.575 809.07L867.413 767.978L899.332 635.123C899.541 635.162 899.732 635.201 899.941 635.22V635.201ZM455.245 739.964L447.539 687.475L521.067 694.278C521.067 695.275 521.223 696.292 521.641 697.249C521.676 697.308 521.711 697.367 521.745 697.425L458.481 742.095C457.628 741 456.498 740.277 455.263 739.984L455.245 739.964ZM485.008 285.898L479.911 401.472L430.841 408.979C430.736 408.451 430.597 407.943 430.388 407.435C429.884 406.262 429.101 405.343 428.162 404.698L437.711 384.074L453.854 349.198L483.407 285.41C483.912 285.664 484.451 285.84 484.99 285.918L485.008 285.898ZM349.277 263.749L374.169 312.251L341.153 389.391C340.719 389.196 340.266 389.039 339.814 388.981L346.772 264.395C347.607 264.395 348.459 264.179 349.277 263.749ZM776.073 929.746L768.367 893.502C768.628 893.404 768.907 893.307 769.168 893.17C771.272 892.017 772.473 889.651 772.49 887.188L774.49 887.031L833.893 882.222C833.98 882.887 834.137 883.552 834.398 884.177C835.094 885.8 836.311 886.934 837.685 887.501L800.443 1034.49C799.747 1034.33 799.034 1034.31 798.321 1034.45L776.056 929.746H776.073ZM935.339 959.578L844.782 884.764C845.826 882.868 846.035 880.443 845.096 878.293C844.869 877.765 844.574 877.296 844.243 876.866L867.743 850.377L894.984 819.666C896.392 821.034 898.323 821.581 900.167 821.093L932.869 940.146L937.688 957.701C937.548 957.76 937.392 957.799 937.253 957.877C936.505 958.288 935.861 958.855 935.357 959.539L935.339 959.578ZM770.542 791.71L683.586 819.177C683.586 819.177 683.551 819.02 683.516 818.942C683.255 818.356 682.925 817.847 682.542 817.378L728.186 733.493C729.786 734.412 731.752 734.529 733.491 733.571C733.648 733.493 733.769 733.376 733.908 733.278L770.524 791.71H770.542ZM798.634 719.985L837.72 875.009C837.529 875.087 837.337 875.146 837.146 875.243C835.041 876.397 833.841 878.762 833.824 881.225L774.647 886.015L772.403 886.191C772.316 885.526 772.159 884.862 771.899 884.236C770.994 882.144 769.237 880.834 767.324 880.541L771.62 793.47L771.672 792.395L771.968 792.297L771.69 791.867L772.299 779.551L778.891 646.187C779.239 646.187 779.604 646.129 779.952 646.05L798.599 720.004L798.634 719.985ZM761.931 883.004L683.986 823.106C684.142 822.129 684.125 821.112 683.899 820.115L770.803 792.668L766.454 880.502C765.619 880.502 764.767 880.717 763.967 881.167C763.149 881.616 762.471 882.262 761.949 883.004H761.931ZM679.428 815.365L668.8 766.883C669.061 766.785 669.322 766.707 669.565 766.57C672.331 765.045 673.549 761.429 672.505 758.242L725.698 730.776C726.133 731.656 726.724 732.379 727.42 732.946L681.864 816.655C681.15 816.01 680.315 815.58 679.428 815.365ZM565.249 656.666L531.173 689.606C530.13 688.433 528.773 687.768 527.329 687.67L523.85 466.121C524.25 466.082 524.65 465.984 525.05 465.847L583.149 631.545H583.131C580.174 633.168 578.956 637.175 580.4 640.499C580.557 640.87 580.748 641.202 580.957 641.515L565.267 656.666H565.249ZM262.234 487.215L335.239 400.769C336.092 401.551 337.1 402.059 338.179 402.215L328.073 583.239C327.22 583.239 326.351 583.454 325.533 583.904C325.359 584.002 325.203 584.139 325.029 584.256L285.838 523.693L262.234 487.215ZM419.691 413.28C420.143 414.316 420.804 415.137 421.587 415.763L330.821 583.982C330.23 583.65 329.603 583.396 328.96 583.298L339.066 402.274C339.918 402.274 340.788 402.059 341.606 401.609C343.276 400.69 344.371 398.99 344.772 397.093L419.134 409.839C419.047 410.993 419.221 412.166 419.691 413.28ZM393.738 469.308L422.352 416.291C423.152 416.74 424.039 416.994 424.961 417.014L432.737 558.314L378.848 574.345L333.743 587.755C333.674 587.501 333.604 587.247 333.5 587.012C333.048 585.976 332.387 585.155 331.604 584.53L393.772 469.347L393.738 469.308ZM468.117 547.777L433.606 558.041L425.848 416.936C426.179 416.877 426.509 416.799 426.84 416.682L427.17 417.6L471.318 540.564C468.883 541.913 467.648 544.904 468.135 547.777H468.117ZM430.475 611.468L334.039 590.668C334.109 590.023 334.074 589.358 333.969 588.694L359.087 581.226L432.771 559.311L434.981 599.563L435.363 606.6C434.754 606.698 434.146 606.874 433.572 607.187C431.971 608.067 430.893 609.65 430.458 611.449L430.475 611.468ZM468.604 549.498C469.039 550.495 469.666 551.277 470.396 551.902L438.999 607.343C438.164 606.835 437.224 606.581 436.285 606.561L433.676 559.077L468.361 548.755C468.431 549.009 468.5 549.263 468.604 549.498ZM430.98 409.937L479.859 402.469L473.788 539.899C473.231 539.899 472.692 540.036 472.136 540.232L428.701 419.242L427.657 416.349C429.866 415.118 431.101 412.557 430.962 409.957L430.98 409.937ZM475.754 552.899L524.372 688.296C523.694 688.667 523.137 689.176 522.65 689.762L488.087 658.894L441.103 616.942C442.251 615.026 442.512 612.504 441.556 610.276C441.121 609.279 440.495 608.497 439.764 607.871L471.161 552.43C472.553 553.271 474.188 553.447 475.754 552.899ZM590.037 685.559L642.743 677.837C642.847 678.365 642.986 678.893 643.195 679.421C644.378 682.138 646.987 683.526 649.527 683.057L665.13 754.235C664.869 754.333 664.608 754.411 664.365 754.548C663.164 755.212 662.26 756.268 661.703 757.519L532.634 696.428C532.878 695.627 532.982 694.786 532.947 693.946L590.037 685.579V685.559ZM543.297 817.535L528.286 700.788C528.738 700.67 529.173 700.514 529.608 700.279C530.808 699.615 531.712 698.559 532.269 697.308L627.122 742.212L661.338 758.418C660.92 759.826 660.938 761.39 661.425 762.856L548.881 820.956C547.733 818.629 545.541 817.359 543.297 817.515V817.535ZM279.594 385.911L333.082 395.08C332.995 396.233 333.169 397.406 333.639 398.521C333.9 399.107 334.23 399.596 334.596 400.065L261.694 486.393L189.176 374.338C190.167 373.4 190.828 372.129 191.107 370.761L279.594 385.931V385.911ZM496.54 507.585L520.475 465.339C521.241 465.789 522.076 466.043 522.928 466.102L526.407 687.651C525.99 687.69 525.572 687.788 525.155 687.944L476.536 552.547C479.476 550.925 480.694 546.937 479.25 543.633C478.815 542.636 478.189 541.854 477.458 541.229L496.523 507.585H496.54ZM613.189 655.16L643.126 673.712C642.725 674.69 642.517 675.765 642.569 676.84L588.837 684.718L532.774 692.929C532.669 692.401 532.53 691.873 532.321 691.346C532.165 690.974 531.973 690.642 531.765 690.329L565.91 657.33L581.531 642.238C583.27 644.193 585.984 644.819 588.332 643.548C589.324 643.001 590.106 642.16 590.681 641.183L613.207 655.16H613.189ZM653.458 680.124L725.472 724.774C724.828 726.338 724.741 728.156 725.315 729.857L672.123 757.324C670.888 754.802 668.4 753.531 665.965 753.981L650.362 682.803C650.623 682.705 650.884 682.627 651.127 682.49C652.119 681.942 652.901 681.102 653.475 680.124H653.458ZM763.845 667.887L776.073 645.425C776.682 645.777 777.326 646.011 778.004 646.129L775.291 700.944L770.855 790.537L734.622 732.711C736.692 730.796 737.422 727.472 736.187 724.638C735.735 723.602 735.074 722.8 734.309 722.174L763.845 667.906V667.887ZM672.349 820.447L549.577 823.556C549.525 822.989 549.403 822.441 549.229 821.894L631.958 779.179L661.773 763.775C663.008 766.297 665.495 767.567 667.93 767.118L678.472 815.208C677.497 815.15 676.489 815.326 675.532 815.853C673.827 816.792 672.731 818.532 672.349 820.447ZM447.366 686.419L437.572 619.679C437.972 619.561 438.39 619.405 438.773 619.19C439.451 618.819 440.025 618.31 440.512 617.704L505.881 676.097L507.638 677.661L522.041 690.525C521.554 691.346 521.206 692.245 521.084 693.222L447.348 686.4L447.366 686.419ZM446.444 686.341L319.793 674.631L430.997 616.453C432.163 618.799 434.406 620.07 436.685 619.835L446.444 686.341ZM318.627 674.142L327.777 596.552C328.768 596.611 329.777 596.435 330.717 595.907C332.317 595.027 333.395 593.444 333.83 591.646L430.267 612.446C430.162 613.482 430.267 614.537 430.632 615.554L318.627 674.162V674.142ZM384.24 331.917L421.674 404.854C420.404 405.812 419.569 407.259 419.238 408.862L344.876 396.116C344.963 394.963 344.789 393.79 344.319 392.675C343.78 391.424 342.945 390.466 341.954 389.821L374.69 313.326L384.24 331.936V331.917ZM591.602 638.114L639.734 638.602L646.657 670.174C646.396 670.272 646.135 670.35 645.891 670.487C644.9 671.034 644.117 671.875 643.543 672.852L591.081 640.323C591.359 639.619 591.55 638.876 591.602 638.114ZM640.655 638.602L674.784 638.954L727.09 722.409C726.62 722.839 726.22 723.347 725.907 723.914L653.893 679.264C654.606 677.505 654.658 675.433 653.858 673.576C652.675 670.858 650.066 669.47 647.526 669.939L640.655 638.622V638.602ZM640.429 637.605L623.243 559.233C623.504 559.135 623.765 559.057 624.009 558.92C624.165 558.842 624.287 558.725 624.426 558.627L674.14 637.957L640.429 637.625V637.605ZM841.703 874.95L867.1 769.19L894.862 809.676C892.931 811.611 892.287 814.817 893.47 817.554C893.696 818.082 893.992 818.551 894.323 818.981L843.599 876.182C843.043 875.634 842.399 875.224 841.703 874.95ZM944.228 838.667L979.313 856.809C978.774 858.47 978.791 860.347 979.539 862.067C980.078 863.299 980.913 864.276 981.905 864.922L942.001 957.76C940.905 957.271 939.705 957.154 938.505 957.447L902.411 826.038L900.985 820.838C901.124 820.78 901.28 820.741 901.42 820.662C902.568 820.037 903.437 819.059 904.011 817.887L944.228 838.667ZM934.33 966.401L804.374 1037.68C803.661 1036.31 802.565 1035.29 801.313 1034.78L838.555 887.794C839.79 888.087 841.129 887.95 842.347 887.286C843.095 886.875 843.739 886.308 844.243 885.624L934.8 960.438C933.826 962.198 933.617 964.407 934.33 966.42V966.401ZM683.446 970.056L620.391 931.74C620.86 930.548 621.017 929.238 620.825 927.928L654.815 918.545L760.922 889.241C761.009 889.534 761.079 889.827 761.201 890.101C762.384 892.818 764.958 894.186 767.48 893.737L797.451 1034.69C797.19 1034.78 796.912 1034.88 796.651 1035.02C795.642 1035.57 794.842 1036.43 794.268 1037.42L683.429 970.056H683.446ZM620.321 926.091C619.921 925.152 619.33 924.409 618.651 923.803L658.711 857.239L760.679 886.034C760.575 886.758 760.575 887.52 760.679 888.263L691.883 907.245L620.582 926.931C620.495 926.638 620.425 926.345 620.304 926.071L620.321 926.091ZM659.25 856.359L676.21 828.208C677.654 828.756 679.272 828.697 680.75 827.896C682.194 827.094 683.22 825.726 683.725 824.142L700.458 837.005L761.392 883.845C761.183 884.236 761.027 884.646 760.905 885.077L659.268 856.359H659.25ZM658.329 856.105L549.507 825.374C549.542 825.12 549.559 824.846 549.577 824.592L672.227 821.503C672.175 822.617 672.331 823.751 672.801 824.826C673.375 826.156 674.314 827.153 675.393 827.798L658.346 856.124L658.329 856.105ZM449.609 741.978L320.576 675.745L446.6 687.397L454.306 739.847C453.332 739.788 452.34 739.964 451.401 740.492C450.705 740.863 450.114 741.391 449.627 741.997L449.609 741.978ZM261.051 487.136L245.169 505.942L188.324 375.003C188.324 375.003 188.411 374.944 188.445 374.925L216.12 417.698L261.068 487.136H261.051ZM252.284 323.569L333.969 392.03C333.604 392.675 333.361 393.379 333.204 394.102L191.246 369.764C191.333 368.61 191.159 367.438 190.689 366.323C190.672 366.284 190.637 366.245 190.62 366.206L252.301 323.569H252.284ZM253.101 323.003L311.391 282.712C312.696 284.726 314.87 285.723 317.027 285.39L337.274 389.235C336.961 389.332 336.666 389.45 336.37 389.606C335.622 390.017 334.996 390.564 334.491 391.229L253.119 323.022L253.101 323.003ZM321.55 275.87C321.55 275.87 321.497 275.792 321.48 275.753L341.867 261.658C342.841 263.163 344.285 264.121 345.85 264.375L338.892 388.961C338.649 388.961 338.388 389 338.144 389.039L317.897 285.195C318.21 285.097 318.506 284.98 318.801 284.823C321.758 283.201 322.976 279.193 321.532 275.889L321.55 275.87ZM352.46 259.136L394.12 265.587L374.621 311.156L364.497 291.411L350.025 263.222C351.312 262.244 352.164 260.758 352.477 259.116L352.46 259.136ZM486.625 285.84L509.76 396.898L480.763 401.336L485.86 285.938C486.121 285.938 486.364 285.879 486.625 285.84ZM509.969 397.875L521.484 453.121C521.206 453.219 520.928 453.316 520.649 453.473C517.692 455.095 516.475 459.083 517.918 462.407C518.353 463.404 518.98 464.186 519.71 464.811L476.71 540.701C476.067 540.31 475.371 540.056 474.64 539.958L480.711 402.352L509.952 397.875H509.969ZM527.486 464.147L591.916 525.472L585.653 630.88C585.079 630.88 584.523 630.978 583.949 631.174L564.414 575.459L525.85 465.476H525.868C526.494 465.124 527.016 464.655 527.486 464.127V464.147ZM591.046 634.634C590.507 633.383 589.654 632.405 588.645 631.76L619.277 559.135C620.252 559.566 621.33 559.683 622.391 559.468L639.525 637.605L591.637 637.117C591.585 636.276 591.394 635.435 591.046 634.634ZM675.88 638.974L772.838 639.951C772.89 640.792 773.081 641.632 773.429 642.434C773.882 643.47 774.543 644.271 775.308 644.897L733.543 721.627C731.943 720.708 729.977 720.591 728.238 721.549C728.081 721.627 727.959 721.744 727.82 721.842L675.88 638.954V638.974ZM782.022 645.073L866.421 768.193L840.834 874.696C840.086 874.54 839.303 874.54 838.538 874.696L815.559 783.539L780.805 645.718C780.996 645.64 781.187 645.581 781.379 645.484C781.605 645.366 781.814 645.19 782.022 645.034V645.073ZM904.69 813.801L962.892 800.429L982.218 853.173C981.105 853.798 980.252 854.756 979.696 855.909L951.377 841.267L904.377 816.968C904.707 815.971 904.812 814.896 904.69 813.801ZM990.22 856.203C989.68 854.971 988.845 853.994 987.854 853.348L1013.35 794.017C1014.68 794.604 1016.15 794.643 1017.56 794.056L1057.21 892.153C1056.2 892.779 1055.4 893.678 1054.86 894.753L990.428 861.442C990.967 859.78 990.95 857.903 990.202 856.183L990.22 856.203ZM619.016 933.871C619.364 933.5 619.678 933.089 619.938 932.639L712.374 988.823L793.833 1038.32C793.207 1039.92 793.12 1041.76 793.746 1043.5L730.064 1078.42C728.516 1075.43 725.159 1074.23 722.341 1075.78C722.063 1075.93 721.819 1076.11 721.576 1076.31L619.016 933.871ZM547.594 829.205C548.377 828.423 548.968 827.446 549.281 826.351L657.789 857.004L617.903 923.236C616.251 922.181 614.181 922.024 612.337 923.021C612.111 923.139 611.919 923.315 611.711 923.451L547.576 829.186L547.594 829.205ZM471.596 814.602C471.631 813.547 471.475 812.452 471.022 811.435C470.553 810.341 469.839 809.5 469.005 808.855L524.407 700.338C525.329 700.827 526.337 701.081 527.364 701.003L542.375 817.75C541.923 817.867 541.488 818.023 541.053 818.258C539.297 819.216 538.183 821.014 537.835 823.028L471.596 814.622V814.602ZM374.812 802.326L448.948 749.993C450.462 752.749 453.488 753.883 456.167 752.69L464.273 807.877C463.873 807.995 463.456 808.151 463.073 808.366C461.316 809.324 460.203 811.123 459.855 813.136L374.812 802.345V802.326ZM391.041 789.677L373.682 801.935L319.027 676.058L449.07 742.818C447.992 744.636 447.748 746.982 448.548 749.093L391.059 789.677H391.041ZM245.587 506.92L261.59 487.977L324.281 584.862C322.263 586.797 321.55 590.062 322.767 592.877C323.602 594.812 325.168 596.044 326.89 596.455L317.827 673.302L245.587 506.92ZM148.368 283.005L176.86 267.366C177.904 269.38 179.765 270.572 181.731 270.65L184.653 362.628C184.131 362.687 183.627 362.844 183.123 363.059L148.351 282.966L148.368 283.005ZM300.311 199.687L314.487 272.429C314.174 272.527 313.879 272.644 313.583 272.801C310.626 274.423 309.408 278.431 310.852 281.735C310.869 281.774 310.904 281.813 310.921 281.852L252.336 322.357L186.984 267.581C187.976 265.822 188.202 263.593 187.471 261.56L300.311 199.687ZM326.403 185.377L316.505 272.156C316.122 272.136 315.757 272.155 315.375 272.214L301.146 199.218L326.403 185.358V185.377ZM327.133 186.902L344.528 251.531C344.371 251.59 344.215 251.649 344.058 251.727C341.101 253.349 339.884 257.337 341.327 260.661C341.345 260.7 341.38 260.739 341.397 260.778L321.01 274.873C320.123 273.485 318.819 272.586 317.392 272.253L327.133 186.863V186.902ZM455.593 114.512C455.837 115.001 456.15 115.431 456.48 115.822L357.87 242.578L350.216 252.411C348.842 251.258 347.085 250.808 345.38 251.238L327.481 184.791L455.593 114.512ZM394.52 264.629L352.582 258.139C352.651 257.025 352.477 255.871 352.025 254.796C351.729 254.131 351.347 253.564 350.894 253.056L398.139 192.337L457.159 116.467C457.35 116.623 457.524 116.799 457.733 116.936L394.52 264.629ZM479.807 278.861C479.737 279.975 479.911 281.129 480.363 282.204C480.868 283.377 481.651 284.295 482.572 284.941L476.484 298.078L436.929 383.487L427.309 404.248C425.779 403.525 424.004 403.486 422.404 404.346L375.125 312.231L395.025 265.743L479.789 278.88L479.807 278.861ZM595.899 379.714C595.151 380.926 594.768 382.393 594.838 383.898L510.647 396.761L487.495 285.625C487.773 285.527 488.052 285.429 488.33 285.273C488.991 284.901 489.565 284.413 490.052 283.826L595.916 379.714H595.899ZM591.968 524.221L528.042 463.365C529.295 461.429 529.59 458.829 528.599 456.522C528.425 456.132 528.234 455.78 528.007 455.447L596.612 388.218C597.517 389.235 598.682 389.899 599.935 390.095L591.968 524.221ZM616.599 548.989C615.346 550.925 615.05 553.525 616.042 555.832C616.581 557.083 617.434 558.06 618.442 558.705L587.81 631.33C587.393 631.154 586.958 630.998 586.523 630.939L592.733 526.293L616.581 549.009L616.599 548.989ZM773.255 637.019C773.047 637.625 772.907 638.27 772.855 638.935L675.236 637.957L625.157 558.041C625.696 557.532 626.166 556.946 626.514 556.281L773.255 637.038V637.019ZM894.549 629.59C894.636 630.235 894.792 630.88 895.053 631.486C895.766 633.129 897.001 634.282 898.428 634.849L888.53 676.078L866.7 766.961L782.718 644.447C783.988 643.157 784.701 641.359 784.684 639.462L894.549 629.59ZM962.527 799.452L904.498 812.784C904.411 812.413 904.29 812.041 904.133 811.67C903.176 809.48 901.298 808.151 899.297 807.975L900.028 723.738L900.793 635.22C901.28 635.181 901.767 635.064 902.237 634.888L962.527 799.452ZM1009.81 789.599C1009.89 789.971 1010.01 790.342 1010.17 790.713C1010.71 791.945 1011.55 792.922 1012.54 793.568L987.036 852.899C985.784 852.352 984.375 852.273 983.036 852.762L963.78 800.175L1009.82 789.599H1009.81Z" fill="#F2B243" fill-opacity="0.95"/>
<path d="M676.663 774.312L739.614 829.714C738.257 832.001 738.657 835.09 740.606 836.81C742.554 838.53 745.32 838.218 746.972 836.185L823.004 903.101C821.647 905.388 822.048 908.477 823.996 910.197C825.944 911.918 828.71 911.605 830.362 909.572L920.484 988.882C919.127 991.169 919.527 994.258 921.476 995.978C923.424 997.699 926.19 997.386 927.842 995.353L972.007 1034.22C970.65 1036.5 971.051 1039.59 972.999 1041.31C975.051 1043.11 978.009 1042.7 979.609 1040.41C980.913 1038.54 980.896 1036.01 979.765 1034.16L1080.12 942.942C1080.27 943.137 1080.43 943.333 1080.62 943.489C1082.67 945.288 1085.63 944.877 1087.23 942.59C1088.55 940.674 1088.52 938.074 1087.3 936.217L1150.81 875.165C1150.95 875.322 1151.07 875.478 1151.22 875.615C1153.28 877.413 1156.23 877.003 1157.83 874.716C1158.32 874.012 1158.62 873.191 1158.74 872.37L1211.25 878.176C1211.22 879.779 1211.83 881.401 1213.05 882.457C1215.1 884.256 1218.06 883.845 1219.66 881.558C1220.14 880.854 1220.44 880.033 1220.56 879.212L1288.87 886.758L1289.06 886.973L1289.18 886.797L1290 886.895L1289.5 886.347L1350.26 799.139L1350.76 798.416L1351 798.611V798.299L1351.98 798.435L1351.19 797.771L1351.58 797.223L1431.92 681.904L1495.81 590.199C1497.85 591.724 1500.6 591.274 1502.13 589.085C1503.66 586.895 1503.38 583.787 1501.57 581.93L1540.71 525.765L1520.39 507.878C1521.75 505.591 1521.35 502.502 1519.4 500.782C1517.45 499.061 1514.69 499.374 1513.03 501.407L1434.65 432.419L1434.08 431.91L1416.42 416.369L1415.68 415.704L1327.12 337.762C1328.48 335.475 1328.08 332.386 1326.13 330.666C1324.08 328.867 1321.12 329.278 1319.52 331.565C1317.92 333.852 1318.28 337.195 1320.32 338.994C1321.4 339.952 1322.72 340.264 1323.99 340.03L1351.14 465.867L1283.82 460.296C1283.82 458.732 1283.22 457.187 1282.03 456.132C1279.98 454.333 1277.02 454.744 1275.42 457.031C1274.34 458.595 1274.17 460.608 1274.8 462.309L1178.74 516.87C1178.45 516.343 1178.08 515.834 1177.63 515.424C1175.58 513.625 1172.62 514.036 1171.02 516.323C1169.42 518.61 1169.79 521.953 1171.82 523.752C1172.39 524.26 1173.04 524.573 1173.7 524.729L1160.06 630.626L1137.8 644.057C1137.52 643.568 1137.17 643.099 1136.75 642.727C1134.7 640.929 1131.74 641.339 1130.14 643.626C1129.29 644.858 1129.01 646.363 1129.22 647.771L1003.75 683.018C1003.47 682.06 1002.95 681.18 1002.19 680.516C1000.13 678.717 997.177 679.128 995.577 681.415C995.281 681.845 995.073 682.314 994.916 682.803L911.317 654.75C911.683 652.834 911.108 650.762 909.63 649.452C907.577 647.654 904.62 648.064 903.02 650.351C901.437 652.639 901.785 655.923 903.785 657.741L832.832 774.058L798.6 757.246C799.243 755.173 798.704 752.769 797.069 751.342C795.016 749.543 792.059 749.954 790.459 752.241C789.711 753.316 789.415 754.606 789.485 755.857L676.645 774.214L676.663 774.312ZM789.606 756.757C789.815 757.832 790.32 758.829 791.12 759.611L745.998 828.189C744.085 826.84 741.58 827.212 740.049 829.088L678.402 774.84L789.606 756.757ZM1179 521.816L1242.23 547.387L1225.22 587.951C1223.83 587.345 1222.28 587.54 1221.03 588.42L1177.8 523.615C1178.03 523.4 1178.22 523.165 1178.41 522.892C1178.66 522.54 1178.83 522.168 1178.99 521.777L1179 521.816ZM1513.61 509.129C1514.04 509.52 1514.53 509.774 1515.04 509.97L1499.24 580.639C1497.85 580.366 1496.39 580.815 1495.29 581.91L1454.01 537.651L1512.39 507.526C1512.69 508.132 1513.09 508.679 1513.61 509.129ZM1214.85 873.171L1187.93 778.886C1188.41 778.671 1188.87 778.358 1189.28 777.967L1231.66 824.24C1231.54 824.377 1231.4 824.514 1231.28 824.67C1229.76 826.86 1230.02 829.948 1231.8 831.806L1217.32 873.25C1216.51 872.976 1215.65 872.956 1214.85 873.171ZM748.155 831.884L802.931 818.063C803.209 819.06 803.731 819.998 804.531 820.682C805.61 821.64 806.949 821.953 808.201 821.718L825.44 900.99C824.692 901.263 823.996 901.772 823.439 902.475L747.407 835.559C748.068 834.445 748.329 833.135 748.155 831.864V831.884ZM906.621 659.012L911.787 767.782L883.938 794.369C883.799 794.213 883.66 794.037 883.503 793.9C882.999 793.47 882.459 793.157 881.885 792.981L906.134 658.972C906.29 658.992 906.447 659.012 906.621 659.012ZM1232.18 823.712L1189.77 777.381C1189.77 777.381 1189.84 777.303 1189.88 777.264C1190.35 776.599 1190.62 775.837 1190.76 775.074L1248.67 783.461L1234.98 822.676C1233.99 822.676 1233 823.028 1232.18 823.712ZM1280.03 465.535L1293.53 520.409L1300.91 550.417L1305.27 568.167C1304.47 568.499 1303.72 569.066 1303.15 569.868C1302.91 570.22 1302.73 570.591 1302.58 570.982L1265.7 556.066L1278.75 465.652C1279.18 465.691 1279.62 465.652 1280.05 465.554L1280.03 465.535ZM1388.91 474.664L1375.96 572.409C1375.6 572.37 1375.23 572.409 1374.87 572.487L1360.66 506.646L1387.06 473.726C1387.62 474.214 1388.25 474.527 1388.91 474.684V474.664ZM926.068 986.908C925.529 986.673 924.972 986.556 924.415 986.556L917.214 865.84C918.379 865.645 919.475 865 920.258 863.866C920.571 863.436 920.78 862.947 920.936 862.439L966.215 877.198L967.746 877.687C967.398 879.603 967.972 881.656 969.433 882.926C969.607 883.083 969.816 883.2 970.007 883.337L958.718 909.963L926.085 986.888L926.068 986.908ZM829.806 901.869C829.701 901.772 829.597 901.733 829.493 901.654L835.807 888.967L878.633 802.873C879.989 803.577 881.572 803.518 882.859 802.736L899.437 831.571L913.735 856.437C913.422 856.711 913.126 857.004 912.865 857.376C911.822 858.861 911.63 860.777 912.152 862.439L831.058 903.531C830.762 902.905 830.345 902.358 829.823 901.889L829.806 901.869ZM1020.24 765.73C1020.35 765.828 1020.42 765.945 1020.52 766.043C1021.74 767.118 1023.27 767.391 1024.64 766.961L1047.64 840.388C1047.27 840.681 1046.94 840.994 1046.67 841.404C1046.63 841.463 1046.61 841.521 1046.58 841.561L983.297 804.144L1020.24 765.71V765.73ZM997.404 689.645C997.665 689.782 997.925 689.879 998.204 689.958L983.697 794.428L982.357 804.085L982.079 804.378L982.305 804.515L982.183 805.356L972.703 873.562C971.19 873.426 969.642 874.129 968.615 875.576C968.302 876.006 968.094 876.495 967.937 877.003L966.232 876.436L921.128 861.735C921.476 859.819 920.902 857.767 919.441 856.496C919.319 856.379 919.162 856.301 919.04 856.203L972.094 743.463L997.404 689.684V689.645ZM975.225 874.637C974.669 874.149 974.043 873.836 973.399 873.66L982.949 804.867L1046.18 842.245C1045.85 842.968 1045.69 843.75 1045.67 844.532L976.513 876.436C976.217 875.752 975.782 875.126 975.225 874.637ZM1048.25 839.958L1025.29 766.688C1025.91 766.375 1026.47 765.925 1026.94 765.319L1064.08 796.461C1062.79 798.729 1063.21 801.759 1065.12 803.44C1065.3 803.596 1065.49 803.714 1065.66 803.831L1050.3 839.391C1049.59 839.391 1048.87 839.586 1048.23 839.938L1048.25 839.958ZM1152.15 723.113C1152.36 722.898 1152.56 722.683 1152.74 722.429C1154.34 720.122 1153.97 716.799 1151.94 715L1221.27 597.51C1221.57 597.686 1221.86 597.843 1222.16 597.94L1186.88 768.799C1185.75 768.603 1184.59 768.877 1183.61 769.581L1162.08 737.755L1152.16 723.113H1152.15ZM1397.92 686.732L1358.67 726.338C1358.57 726.221 1358.47 726.084 1358.34 725.967C1357.77 725.459 1357.14 725.146 1356.48 724.99L1375.29 582.966C1376.14 583.044 1377.01 582.829 1377.77 582.379L1421.57 662.863L1397.93 686.713L1397.92 686.732ZM1311.48 573.836L1370.94 577.785C1370.95 579.33 1371.56 580.835 1372.73 581.871C1373.3 582.379 1373.93 582.692 1374.59 582.848L1355.79 724.872C1355.26 724.833 1354.74 724.911 1354.24 725.048L1308.7 577.961C1309.4 577.629 1310.04 577.121 1310.54 576.397C1311.08 575.635 1311.38 574.736 1311.48 573.836ZM1353.58 725.302C1352.88 725.635 1352.24 726.143 1351.73 726.866C1351.61 727.042 1351.52 727.218 1351.44 727.394L1318.49 708.647L1279.13 686.224L1305.92 578.274C1306.63 578.43 1307.34 578.411 1308.04 578.196L1322.39 624.566L1353.56 725.283L1353.58 725.302ZM1251.87 665.345L1304.12 578.352L1304.51 577.707C1304.75 577.863 1304.98 577.981 1305.24 578.079L1278.48 685.872L1253.28 671.523C1254.06 669.392 1253.56 666.851 1251.87 665.345ZM1271.28 723.934C1270.88 723.582 1270.43 723.328 1269.98 723.152L1271.32 717.776L1278.95 687.025L1332.77 717.678L1351.12 728.137C1350.95 728.626 1350.83 729.134 1350.78 729.642L1273.06 727.824C1272.99 726.358 1272.4 724.931 1271.28 723.953V723.934ZM1252.97 672.227L1278.31 686.654L1269.3 722.937C1268.55 722.781 1267.8 722.8 1267.07 723.035L1250.91 674.279C1251.58 673.947 1252.18 673.439 1252.65 672.755C1252.78 672.579 1252.86 672.403 1252.95 672.227H1252.97ZM1303.93 577.277L1302.7 579.33L1251.28 664.915C1250.88 664.661 1250.48 664.466 1250.06 664.368L1265.58 556.848L1302.32 571.706C1301.83 573.7 1302.4 575.909 1303.93 577.277ZM1250.25 674.573L1266.41 723.328C1265.75 723.66 1265.14 724.169 1264.67 724.853C1263.59 726.397 1263.42 728.391 1264.03 730.092L1221.48 753.844L1190.19 771.321C1189.91 770.773 1189.53 770.285 1189.08 769.874L1246.62 674.084C1247.75 674.807 1249.05 674.964 1250.25 674.573ZM1181.61 772.631C1181.46 773.276 1181.42 773.96 1181.49 774.605L1072.58 797.927C1072.32 796.852 1071.78 795.874 1070.95 795.132C1070.77 794.975 1070.58 794.858 1070.41 794.741L1092.97 742.525C1094.87 743.366 1097.08 742.779 1098.4 740.883C1098.64 740.531 1098.83 740.14 1098.99 739.749L1138.65 755.525L1181.61 772.611V772.631ZM1150.58 868.03L1072.01 802.13C1072.6 801.074 1072.84 799.882 1072.72 798.709L1101.6 792.532L1181.63 775.387C1181.89 776.462 1182.43 777.44 1183.27 778.183C1183.56 778.437 1183.89 778.652 1184.22 778.808L1155.43 866.388C1153.73 865.84 1151.83 866.427 1150.6 868.01L1150.58 868.03ZM1493.74 585.937C1493.74 587.052 1494.09 588.146 1494.72 589.065L1422.1 662.335L1378.35 581.969C1378.7 581.676 1379.03 581.363 1379.32 580.952C1379.86 580.19 1380.16 579.291 1380.26 578.391L1423.02 581.226L1493.74 585.918V585.937ZM1246.98 664.72C1246.32 665.052 1245.71 665.56 1245.24 666.245C1243.64 668.532 1244.01 671.855 1246.03 673.654L1188.48 769.444C1188.19 769.249 1187.88 769.092 1187.56 768.994L1222.84 598.136C1223.52 598.253 1224.2 598.214 1224.86 597.999L1237.17 635.142L1246.98 664.739V664.72ZM1144.67 721.08C1144.96 721.94 1145.45 722.741 1146.15 723.347C1147.76 724.775 1149.96 724.794 1151.59 723.602L1161.45 738.185L1183.04 770.07C1182.83 770.285 1182.62 770.5 1182.45 770.754C1182.2 771.106 1182.01 771.497 1181.86 771.888L1139.66 755.115L1099.23 739.045C1099.44 738.205 1099.42 737.345 1099.27 736.524L1125.17 727.707L1144.67 721.08ZM1091.79 741.821C1091.96 741.978 1092.15 742.095 1092.33 742.212L1069.77 794.428C1067.96 793.626 1065.83 794.154 1064.51 795.855L1027.37 764.713C1028.05 763.501 1028.26 762.074 1028 760.745L1090.31 739.554C1090.6 740.414 1091.09 741.215 1091.79 741.821ZM1021.55 757.07C1020.85 757.402 1020.23 757.91 1019.72 758.633C1018.35 760.608 1018.43 763.306 1019.76 765.182L983.192 803.225L992.933 733.044L998.9 690.114C999.439 690.153 999.978 690.095 1000.5 689.938L1006.66 709.604L1021.53 757.089L1021.55 757.07ZM1053.28 840.524C1052.61 839.938 1051.87 839.625 1051.1 839.488L1066.34 804.222C1068.15 805.023 1070.27 804.496 1071.59 802.795L1092.41 820.252L1150.16 868.675C1149.94 869.066 1149.76 869.477 1149.64 869.887L1055.05 844.688C1055.05 843.124 1054.44 841.58 1053.26 840.544L1053.28 840.524ZM1190.85 774.292C1190.88 773.51 1190.76 772.748 1190.5 772.025L1203.55 764.733L1205.13 763.853L1264.33 730.796C1264.62 731.343 1264.99 731.851 1265.46 732.262C1265.73 732.496 1266.01 732.692 1266.33 732.848L1248.93 782.698L1190.85 774.273V774.292ZM1266.99 733.142C1268.71 733.748 1270.64 733.181 1271.89 731.578L1349.42 797.282L1249.64 782.816L1266.99 733.142ZM1272.31 730.932C1272.73 730.209 1272.97 729.408 1273.04 728.587L1350.76 730.405C1350.83 731.871 1351.42 733.298 1352.53 734.275C1353.19 734.862 1353.94 735.175 1354.73 735.311L1350.39 797.086L1272.31 730.913V730.932ZM1360.07 507.35L1374.16 572.663C1373.29 572.976 1372.5 573.582 1371.89 574.442C1371.35 575.205 1371.06 576.104 1370.95 577.003L1311.5 573.054C1311.48 571.764 1311.05 570.493 1310.21 569.496L1349.92 519.998L1360.07 507.37V507.35ZM1144.44 720.298L1099.04 735.742C1098.75 734.881 1098.26 734.08 1097.56 733.474C1097.39 733.317 1097.2 733.2 1097.02 733.083L1107.03 709.917L1144.35 718.48C1144.28 719.086 1144.32 719.692 1144.44 720.278V720.298ZM1096.4 732.731C1094.5 731.89 1092.29 732.477 1090.97 734.373C1090.07 735.663 1089.8 737.286 1090.1 738.772L1027.79 759.963C1027.62 759.474 1027.39 759.005 1027.1 758.575L1079.85 703.681L1106.33 709.761L1096.4 732.731ZM1080.48 703.016L1130.63 650.84C1130.73 650.938 1130.8 651.055 1130.91 651.153C1131.08 651.309 1131.27 651.427 1131.45 651.544L1106.61 709.038L1080.46 703.036L1080.48 703.016ZM914.274 855.949L883.416 802.247C883.729 801.974 884.025 801.68 884.286 801.309C885.608 799.413 885.573 796.813 884.373 794.956L911.804 768.76L915.909 855.343C915.335 855.421 914.779 855.636 914.257 855.949H914.274ZM876.076 799.589C876.354 800.586 876.876 801.524 877.676 802.208C877.78 802.306 877.885 802.345 877.989 802.423L876.128 806.177L828.866 901.205C827.997 900.755 827.04 900.618 826.118 900.794L808.88 821.523C809.732 821.21 810.532 820.623 811.124 819.763C811.959 818.571 812.254 817.124 812.063 815.736L841.895 808.21L876.093 799.589H876.076ZM831.284 904.215L912.378 863.123C912.674 863.749 913.092 864.296 913.613 864.765C914.466 865.508 915.475 865.86 916.483 865.86L923.685 986.575C922.641 986.751 921.65 987.318 920.884 988.257L830.762 908.946C831.615 907.499 831.771 905.76 831.284 904.215ZM928.747 989.938C928.451 989.058 927.964 988.257 927.251 987.631C927.077 987.475 926.868 987.357 926.677 987.22L970.616 883.689C972.494 884.51 974.704 883.923 976.008 882.047C976.147 881.851 976.252 881.636 976.356 881.441L1054.2 923.823L1079.12 937.39C1078.78 938.367 1078.71 939.423 1078.9 940.42L1024.45 958.366L928.747 989.918V989.938ZM1079.44 936.667L1027.13 908.184L976.669 880.698C976.861 880.131 976.982 879.564 977 878.977L1060.18 875.615L1081.4 934.575C1080.79 934.907 1080.22 935.396 1079.78 936.041C1079.65 936.237 1079.54 936.452 1079.44 936.647V936.667ZM976.982 878.176C976.947 877.824 976.878 877.472 976.791 877.12L1030.85 852.195L1045.69 845.353C1045.85 846.663 1046.44 847.914 1047.45 848.813C1048.47 849.712 1049.71 850.064 1050.91 849.908L1059.89 874.853L976.982 878.195V878.176ZM1051.61 849.712C1052.54 849.419 1053.41 848.813 1054.06 847.894C1054.58 847.152 1054.88 846.291 1054.98 845.431L1149.47 870.61C1149.43 870.825 1149.42 871.021 1149.4 871.236L1060.63 874.813L1051.61 849.732V849.712ZM1237.85 823.732C1237.21 823.165 1236.46 822.833 1235.69 822.696L1249.37 783.519L1348.64 797.908L1239 825.218C1238.7 824.651 1238.32 824.142 1237.85 823.732ZM1467.46 617.548L1495.17 589.573C1495.17 589.573 1495.22 589.632 1495.26 589.652L1431.99 680.457L1422.46 662.941L1467.46 617.529V617.548ZM1494.79 582.438C1494.79 582.438 1494.74 582.497 1494.72 582.516C1494.18 583.279 1493.88 584.178 1493.78 585.077L1380.3 577.551C1380.3 576.945 1380.19 576.358 1380.02 575.811L1453.32 537.983L1494.81 582.457L1494.79 582.438ZM1379.72 575.068C1379.43 574.462 1379.03 573.915 1378.5 573.465C1378.3 573.289 1378.09 573.133 1377.86 572.996L1408.81 496.364C1410.42 497.028 1412.25 496.657 1413.55 495.347L1452.76 537.377L1379.74 575.068H1379.72ZM1407.5 495.601C1407.71 495.777 1407.92 495.933 1408.14 496.07L1377.2 572.703C1377.01 572.624 1376.82 572.546 1376.63 572.507L1389.57 474.762C1390.82 474.86 1392.09 474.39 1393.05 473.413L1406.75 488.114C1406.75 488.114 1406.7 488.172 1406.68 488.192C1405.08 490.499 1405.45 493.822 1407.48 495.621L1407.5 495.601ZM1386.52 473.1L1371.16 492.239L1360.41 505.63L1352.01 466.727L1385.22 469.464C1385.22 470.793 1385.65 472.084 1386.51 473.081L1386.52 473.1ZM1278 465.437L1264.97 555.714L1243.17 546.898L1277.42 465.222C1277.61 465.3 1277.81 465.378 1278 465.437ZM1264.85 556.516L1249.31 664.172C1248.74 664.114 1248.17 664.173 1247.61 664.368L1225.48 597.628C1226.14 597.295 1226.75 596.787 1227.22 596.103C1228.82 593.796 1228.46 590.473 1226.42 588.674C1226.23 588.518 1226.04 588.381 1225.83 588.264L1242.86 547.641L1264.85 556.535V556.516ZM1220.61 597.002L1174.59 675.003L1151.28 714.511C1150.88 714.257 1150.44 714.081 1150.01 713.964L1160.67 631.193L1219.57 595.673C1219.85 596.161 1220.2 596.631 1220.61 597.002ZM1144.48 717.659L1107.34 709.135L1132.09 651.837C1132.89 652.189 1133.73 652.287 1134.54 652.15L1147.57 714.062C1146.7 714.374 1145.9 714.961 1145.29 715.841C1144.91 716.408 1144.63 717.014 1144.48 717.659ZM1026.57 757.969C1026.47 757.871 1026.4 757.754 1026.3 757.656C1025.08 756.581 1023.55 756.307 1022.17 756.737L1001.13 689.586C1001.82 689.254 1002.45 688.746 1002.95 688.022C1003.34 687.455 1003.61 686.849 1003.77 686.204L1078.98 703.466L1026.59 757.988L1026.57 757.969ZM996.343 688.922C996.464 689.039 996.621 689.117 996.743 689.215L949.568 789.443L918.362 855.734C917.788 855.46 917.197 855.303 916.588 855.303L912.448 768.095L995.89 688.452C996.029 688.609 996.169 688.785 996.325 688.922H996.343ZM875.919 798.787L835.963 808.855L811.889 814.935C811.628 813.957 811.106 813.038 810.341 812.354L833.058 775.113L876.145 796.285C875.884 797.106 875.815 797.947 875.919 798.787ZM802.757 817.241L747.981 831.063C747.737 830.144 747.25 829.284 746.555 828.619L791.676 760.041C792.685 760.745 793.833 760.999 794.929 760.784L805.957 811.455C805.105 811.768 804.305 812.354 803.714 813.214C802.879 814.407 802.583 815.853 802.774 817.241H802.757ZM979.296 1033.49C979.139 1033.3 978.983 1033.1 978.791 1032.95C976.843 1031.23 974.077 1031.54 972.425 1033.57L928.26 994.708C928.99 993.476 929.199 992.049 928.955 990.681L999.3 967.495L1079.12 941.182C1079.26 941.573 1079.44 941.964 1079.66 942.316L979.313 1033.53L979.296 1033.49ZM1086.81 935.572C1086.67 935.415 1086.55 935.259 1086.39 935.122C1085.13 934.008 1083.49 933.734 1082.06 934.243L1060.93 875.556L1149.43 871.979C1149.52 872.878 1149.83 873.758 1150.32 874.501L1086.81 935.552V935.572ZM1158.79 871.529C1158.83 869.926 1158.22 868.304 1157 867.248C1156.7 866.994 1156.37 866.779 1156.04 866.622L1184.83 779.043C1185.61 779.297 1186.43 779.297 1187.21 779.082L1214.14 873.367C1213.41 873.699 1212.73 874.227 1212.19 874.989C1211.71 875.693 1211.41 876.514 1211.29 877.335L1158.77 871.529H1158.79ZM1220.61 878.352C1220.65 876.749 1220.04 875.146 1218.82 874.071C1218.54 873.836 1218.26 873.641 1217.95 873.484L1232.34 832.275C1234.23 833.702 1236.75 833.389 1238.32 831.532L1288.02 885.82L1220.6 878.371L1220.61 878.352ZM1238.79 830.906C1239.73 829.401 1239.87 827.544 1239.31 825.941L1349.8 798.416L1288.97 885.722L1277.34 873.015L1238.79 830.926V830.906ZM1351.12 796.52L1355.4 735.331C1356.81 735.331 1358.19 734.666 1359.13 733.317C1360.48 731.382 1360.41 728.704 1359.13 726.847L1421.9 663.488L1431.51 681.122L1351.11 796.5L1351.12 796.52ZM1501.02 581.402C1500.67 581.128 1500.28 580.933 1499.9 580.776L1515.7 510.106C1517.23 510.4 1518.84 509.833 1519.96 508.464L1539.72 525.863L1501.02 581.402ZM1512.58 501.994C1511.73 503.44 1511.57 505.2 1512.08 506.744L1453.44 537.006L1414.04 494.76C1414.04 494.76 1414.09 494.702 1414.11 494.682C1415.71 492.376 1415.35 489.052 1413.31 487.254C1413.1 487.078 1412.89 486.921 1412.67 486.785L1434.34 433.103L1512.6 501.974L1512.58 501.994ZM1433.77 432.634L1412.02 486.491C1411.75 486.374 1411.45 486.296 1411.15 486.237L1416.25 417.209L1433.77 432.634ZM1410.44 486.178C1409.29 486.178 1408.14 486.628 1407.26 487.527L1393.55 472.826C1393.55 472.826 1393.6 472.768 1393.62 472.748C1395.22 470.441 1394.86 467.118 1392.82 465.32C1392.72 465.222 1392.59 465.163 1392.49 465.085L1415.47 418.285L1410.46 486.198L1410.44 486.178ZM1415.49 416.564L1391.86 464.674C1390.61 464.029 1389.17 464.049 1387.95 464.674L1383.48 455.643L1325.78 339.209C1326.09 338.974 1326.39 338.7 1326.65 338.368L1415.49 416.545V416.564ZM1324.63 339.873C1324.81 339.815 1324.98 339.717 1325.15 339.619L1359.68 409.312L1387.32 465.105C1386.91 465.417 1386.52 465.769 1386.19 466.238C1385.67 466.981 1385.38 467.841 1385.27 468.721L1351.84 465.965L1324.63 339.893V339.873ZM1351.28 466.688L1359.84 506.373L1309.69 568.91C1308.58 567.933 1307.2 567.639 1305.92 567.933L1301.53 550.084L1283.48 476.619L1280.69 465.32C1281.49 464.987 1282.24 464.42 1282.82 463.619C1283.34 462.876 1283.63 462.016 1283.74 461.136L1351.28 466.708V466.688ZM1275.08 463.052C1275.37 463.58 1275.74 464.088 1276.19 464.499C1276.38 464.655 1276.57 464.792 1276.78 464.909L1242.51 546.644L1179.23 521.054C1179.51 519.92 1179.42 518.708 1179.02 517.633L1275.08 463.072V463.052ZM1174.36 524.905C1175.35 524.983 1176.34 524.69 1177.21 524.064L1220.44 588.85C1220.21 589.065 1220 589.3 1219.83 589.573C1218.72 591.157 1218.58 593.249 1219.26 594.969L1160.83 630.216L1174.39 524.905H1174.36ZM1159.9 631.662L1149.33 713.827C1148.98 713.807 1148.62 713.827 1148.27 713.886L1135.24 651.974C1136.11 651.661 1136.91 651.075 1137.52 650.195C1138.63 648.611 1138.77 646.52 1138.09 644.799L1159.9 631.643V631.662ZM1129.34 648.611C1129.52 649.198 1129.78 649.745 1130.13 650.234L1079.61 702.801L1003.89 685.422C1003.94 684.894 1003.94 684.386 1003.86 683.878L1129.32 648.631L1129.34 648.611ZM994.655 683.643C994.377 685.109 994.655 686.634 995.455 687.866L912.43 767.118L908.899 692.714L907.299 658.953C908.482 658.777 909.613 658.112 910.395 656.978C910.691 656.548 910.9 656.079 911.074 655.59L994.673 683.643H994.655ZM904.325 658.269C904.672 658.484 905.02 658.679 905.403 658.797L892.966 727.472L881.137 792.805C879.554 792.59 877.902 793.255 876.841 794.78C876.667 795.034 876.528 795.288 876.389 795.562L833.424 774.468L904.307 658.269H904.325ZM832.38 774.82L809.732 811.944C808.758 811.318 807.662 811.103 806.618 811.299L795.59 760.627C796.443 760.315 797.243 759.728 797.834 758.868C798.008 758.614 798.147 758.36 798.286 758.086L832.38 774.84V774.82Z" fill="#F2B243"/>
<path d="M775.534 798.416C775.534 800.664 777.03 802.502 778.961 802.814V836.106H850.14C850.401 838.081 851.914 839.625 853.741 839.625C855.567 839.625 857.08 838.1 857.341 836.106H1115.6L1115.57 837.787L1116.31 836.36L1116.66 836.615V836.106H1225.2L1225.33 837.299L1226 836.106H1226.32L1226.27 835.637L1266.57 764.381C1267.26 764.772 1268.03 765.006 1268.85 765.006C1271.7 765.006 1274 762.406 1274 759.22C1274 757.382 1273.21 755.76 1272.03 754.704L1304 698.188C1304.42 698.383 1304.87 698.501 1305.34 698.501C1307.22 698.501 1308.73 696.8 1308.73 694.689C1308.73 694.63 1308.73 694.591 1308.73 694.552L1400.23 673.83C1400.89 676.176 1402.82 677.896 1405.12 677.896C1407.97 677.896 1410.27 675.296 1410.27 672.109C1410.27 671.875 1410.23 671.64 1410.2 671.425L1549.55 635.357C1550.07 636.823 1551.34 637.859 1552.82 637.859C1554.76 637.859 1556.35 636.081 1556.35 633.891C1556.35 631.917 1555.04 630.274 1553.36 629.981V559.077C1555.95 558.764 1557.97 556.34 1557.97 553.349C1557.97 550.358 1555.95 547.934 1553.36 547.621V406.692C1555.95 406.379 1557.97 403.955 1557.97 400.964C1557.97 397.973 1555.95 395.549 1553.36 395.236V276.339C1555.95 276.026 1557.97 273.602 1557.97 270.611C1557.97 267.62 1555.95 265.196 1553.36 264.883V170.852C1554.82 170.559 1555.91 169.152 1555.91 167.431C1555.91 165.496 1554.52 163.932 1552.8 163.932C1551.08 163.932 1549.69 165.496 1549.69 167.431C1549.69 168.155 1549.88 168.819 1550.21 169.367L1461.58 264.57C1460.99 264.062 1460.28 263.749 1459.48 263.749C1457.55 263.749 1456 265.509 1456 267.659C1456 269.262 1456.87 270.65 1458.1 271.237L1447.51 317.451L1309.95 307.637C1309.81 304.881 1307.81 302.691 1305.34 302.691C1302.87 302.691 1300.7 305.037 1300.7 307.911C1300.7 309.905 1301.71 311.605 1303.17 312.485L1268.05 413.006C1267.61 412.87 1267.16 412.772 1266.69 412.772C1263.84 412.772 1261.54 415.372 1261.54 418.558C1261.54 419.673 1261.84 420.728 1262.32 421.608L1148.86 520.878C1148.32 520.331 1147.61 519.998 1146.82 519.998C1145.14 519.998 1143.76 521.543 1143.76 523.439C1143.76 523.713 1143.8 523.986 1143.85 524.24L1116.64 537.671L1026.24 479.414C1026.52 478.691 1026.7 477.909 1026.7 477.088C1026.7 473.882 1024.38 471.302 1021.55 471.302C1018.71 471.302 1016.4 473.902 1016.4 477.088C1016.4 477.753 1016.52 478.378 1016.69 478.965L908.899 535.774C908.186 534.543 906.951 533.722 905.542 533.722C903.333 533.722 901.541 535.735 901.541 538.218C901.541 539.547 902.063 540.74 902.898 541.561L861.168 611.449L783.083 500.351C784.04 499.296 784.631 497.83 784.631 496.207C784.631 493.001 782.318 490.421 779.483 490.421C776.647 490.421 774.334 493.021 774.334 496.207C774.334 499.198 776.352 501.642 778.943 501.935V793.978C777.013 794.271 775.517 796.128 775.517 798.377L775.534 798.416ZM860.542 612.563L839.494 647.81C838.973 647.517 838.381 647.341 837.737 647.341C837.372 647.341 837.042 647.419 836.711 647.517L781.97 501.309C782.057 501.251 782.144 501.212 782.231 501.153L860.542 612.563ZM833.754 651.837C833.754 654.261 835.459 656.216 837.598 656.314L839.738 680.848C838.555 681.121 837.546 681.864 836.816 682.861L781.918 642.317L833.771 651.72C833.771 651.72 833.771 651.798 833.771 651.837H833.754ZM925.25 710.992C925.25 711.735 925.389 712.439 925.615 713.084L847.565 758.301L841.808 692.186C843.582 691.776 845.008 690.329 845.6 688.452L925.32 710.21C925.285 710.465 925.25 710.719 925.25 710.973V710.992ZM840.816 680.73L838.677 656.197C839.581 655.962 840.364 655.356 840.921 654.554L848.122 659.148L925.685 708.666C925.633 708.783 925.616 708.92 925.563 709.038L845.843 687.279C845.878 687.025 845.913 686.771 845.913 686.517C845.913 683.331 843.634 680.75 840.799 680.73H840.816ZM1057.33 794.369C1057.33 794.369 1057.33 794.447 1057.33 794.486L1012.33 803.42L964.841 812.843L932.695 716.153C933.443 715.723 934.087 715.117 934.574 714.355L1057.55 792.883C1057.4 793.353 1057.29 793.841 1057.29 794.369H1057.33ZM1123.38 708.607C1123.38 707.923 1123.25 707.298 1123.06 706.692L1186.61 672.598L1205.62 662.393C1205.84 662.784 1206.14 663.136 1206.47 663.43L1173.16 726.436L1123.25 709.663C1123.31 709.311 1123.34 708.959 1123.34 708.607H1123.38ZM1219.83 741.919C1219.83 740.023 1218.59 738.459 1216.98 738.166L1209.93 664.29C1210.21 664.212 1210.49 664.094 1210.73 663.957L1265.56 754.821C1264.93 755.408 1264.43 756.131 1264.12 756.991L1219.81 742.114C1219.81 742.114 1219.81 741.997 1219.81 741.919H1219.83ZM1313.27 562.576C1313.27 559.624 1311.31 557.22 1308.79 556.848L1309.97 499.804C1310.63 499.745 1311.27 499.55 1311.83 499.218L1338.69 546.526L1352.62 571.08C1352.22 571.471 1351.91 571.96 1351.68 572.507L1313.22 563.182C1313.24 562.987 1313.27 562.772 1313.27 562.576ZM1438.92 523.498C1438.92 521.289 1437.8 519.373 1436.17 518.395L1456.75 460.823C1456.99 460.882 1457.22 460.921 1457.48 460.921C1458.28 460.921 1458.99 460.589 1459.56 460.08L1519.8 520.819L1548.69 549.947C1548.4 550.417 1548.17 550.925 1548 551.492L1438.86 524.143C1438.88 523.928 1438.92 523.713 1438.92 523.498ZM1438.92 380.086C1438.92 378.913 1438.6 377.818 1438.06 376.919L1438.55 376.469L1493.71 325.759C1494.65 326.795 1495.92 327.44 1497.33 327.44C1498.34 327.44 1499.28 327.108 1500.06 326.541L1549.27 396.8C1548.61 397.524 1548.14 398.442 1547.89 399.459L1498.96 390.896L1438.9 380.379C1438.9 380.379 1438.92 380.184 1438.92 380.105V380.086ZM1548.07 403.075L1490.46 437.032L1460.15 454.9C1459.55 453.981 1458.59 453.395 1457.49 453.395C1457.3 453.395 1457.11 453.414 1456.92 453.453L1443.68 410.426L1435.96 385.325C1437.32 384.602 1438.34 383.233 1438.74 381.572L1547.74 400.671C1547.74 400.671 1547.72 400.866 1547.72 400.945C1547.72 401.707 1547.86 402.411 1548.09 403.075H1548.07ZM1271.87 418.617C1271.87 418.421 1271.84 418.246 1271.82 418.07L1389.2 390.994L1454.62 455.174C1454.5 455.408 1454.4 455.643 1454.31 455.897L1316.61 428.079L1271.8 419.027C1271.8 418.891 1271.84 418.754 1271.84 418.617H1271.87ZM1390.54 390.681L1428.24 381.982L1428.88 381.826C1429.54 384.172 1431.47 385.872 1433.77 385.872C1434.17 385.872 1434.55 385.814 1434.93 385.716L1442.6 410.66L1455.89 453.844C1455.7 453.962 1455.53 454.098 1455.35 454.255L1390.54 390.681ZM1435.16 517.946C1434.71 517.809 1434.25 517.711 1433.77 517.711C1432.03 517.711 1430.5 518.688 1429.56 520.174L1411.38 508.758L1370.17 482.894L1370.24 482.484L1369.67 482.581L1328.09 456.483L1271.46 420.924C1271.54 420.709 1271.58 420.494 1271.65 420.259L1421.82 450.599L1454.14 457.129C1454.14 457.129 1454.14 457.168 1454.14 457.187C1454.14 458.556 1454.8 459.729 1455.75 460.393L1449.79 477.088L1435.18 517.985L1435.16 517.946ZM1307.36 444.832L1363.86 480.294L1367.95 482.875L1314.49 492.551C1313.9 490.088 1311.92 488.27 1309.53 488.27C1308.7 488.27 1307.93 488.505 1307.24 488.896L1269.91 423.133C1270.29 422.8 1270.62 422.409 1270.92 421.96L1307.36 444.832ZM1430.04 527.505L1371.63 605.408L1357.63 578.039C1358.64 577.218 1359.3 575.909 1359.3 574.403C1359.3 573.582 1359.09 572.8 1358.74 572.136L1429.59 526.86C1429.73 527.075 1429.89 527.29 1430.06 527.505H1430.04ZM1356.06 570.005L1369.98 484.145L1429.04 521.21C1428.77 521.914 1428.62 522.677 1428.62 523.498C1428.62 524.319 1428.77 525.101 1429.05 525.824L1358.07 571.178C1357.53 570.591 1356.83 570.181 1356.06 570.005ZM1354.97 569.946C1354.46 569.985 1353.98 570.142 1353.53 570.396L1334.58 537.026L1312.75 498.553C1313.93 497.497 1314.7 495.875 1314.7 494.037C1314.7 493.939 1314.68 493.822 1314.67 493.724L1368.9 483.911L1354.97 569.927V569.946ZM1307.71 556.809C1305.62 557.005 1303.9 558.588 1303.25 560.758L1246.62 547.035C1246.62 546.937 1246.65 546.839 1246.65 546.741C1246.65 546.038 1246.5 545.392 1246.23 544.826L1305.71 497.849C1306.51 498.885 1307.64 499.589 1308.91 499.765L1307.72 556.809H1307.71ZM1040.91 573.875C1040.91 576.28 1042.65 578.215 1044.77 578.215C1045.31 578.215 1045.83 578.078 1046.3 577.863L1060.41 603.727L1084.26 647.458C1084.12 647.595 1083.98 647.771 1083.86 647.927L989.176 589.319L997.108 562.302L1040.93 573.524C1040.93 573.641 1040.89 573.758 1040.89 573.875H1040.91ZM975.486 635.963L988.845 590.492L1083.35 649.002C1083.32 649.12 1083.28 649.217 1083.26 649.335L978.53 641.026C978.461 638.759 977.243 636.843 975.503 635.963H975.486ZM978.426 642.238L1042.54 647.321L1083.18 650.547C1083.3 651.954 1084.12 653.108 1085.25 653.596L1078.9 689.625L978.287 642.844C978.339 642.649 978.391 642.434 978.426 642.219V642.238ZM1047.22 577.199C1047.52 576.925 1047.8 576.593 1048 576.241L1123.69 615.906L1205.17 658.601C1205.13 658.738 1205.08 658.855 1205.06 658.992L1089.61 649.843C1089.46 647.986 1088.08 646.539 1086.39 646.539C1085.96 646.539 1085.56 646.637 1085.18 646.813L1047.22 577.218V577.199ZM1048.46 575.127C1048.49 575.029 1048.53 574.912 1048.54 574.814L1080.06 577.609L1186.83 587.071C1186.9 590.199 1189.18 592.701 1191.98 592.701C1192.24 592.701 1192.5 592.662 1192.75 592.623L1197.03 611.019L1207.46 655.766C1206.71 656.118 1206.07 656.724 1205.64 657.487L1124.96 615.222L1048.46 575.127ZM1193.79 592.31C1195.74 591.489 1197.13 589.378 1197.13 586.915C1197.13 585.898 1196.87 584.94 1196.47 584.119L1209.27 574.012L1240.11 549.654C1240.41 550.006 1240.77 550.299 1241.17 550.534L1209.76 655.512C1209.51 655.454 1209.27 655.434 1209.01 655.434C1208.85 655.434 1208.7 655.473 1208.54 655.493L1205.37 641.906L1193.82 592.33L1193.79 592.31ZM1194.75 582.027L1213.32 540.192L1239.07 546.429C1239.07 546.526 1239.05 546.624 1239.05 546.722C1239.05 547.426 1239.21 548.071 1239.47 548.638L1195.84 583.103C1195.53 582.692 1195.16 582.321 1194.75 582.027ZM1212.73 538.804L1149.9 523.576C1149.9 523.576 1149.9 523.537 1149.9 523.517L1225.59 509.813L1212.72 538.785L1212.73 538.804ZM1226.91 509.598L1304.59 495.542C1304.7 495.992 1304.85 496.422 1305.06 496.833L1245.61 543.809C1244.91 542.988 1243.94 542.46 1242.84 542.46C1241.21 542.46 1239.83 543.633 1239.29 545.256L1213.83 539.078L1226.93 509.598H1226.91ZM1303.92 565.88L1211.58 656.548C1211.32 656.294 1211.05 656.079 1210.75 655.923L1242.16 550.925C1242.39 550.964 1242.62 551.003 1242.84 551.003C1244.48 551.003 1245.85 549.83 1246.39 548.208L1303.03 561.931C1303.01 562.126 1302.98 562.342 1302.98 562.537C1302.98 563.769 1303.32 564.922 1303.92 565.86V565.88ZM1215.9 738.146C1214.87 738.322 1214.02 739.026 1213.52 739.984L1174.26 726.788L1207.41 664.075C1207.86 664.29 1208.35 664.407 1208.85 664.407L1215.9 738.146ZM1213.86 744.402L1118.21 832.822L1173.68 727.883L1213.1 741.117C1213.05 741.372 1213.03 741.645 1213.03 741.919C1213.03 742.877 1213.34 743.737 1213.86 744.402ZM1122.61 705.577C1121.71 703.916 1120.09 702.801 1118.23 702.801C1117.43 702.801 1116.7 703.016 1116.02 703.388L1088.52 652.951C1089.02 652.463 1089.37 651.817 1089.54 651.075L1205.01 660.224C1205.03 660.595 1205.1 660.947 1205.18 661.279L1162.62 684.112L1122.61 705.577ZM1115.1 704.033C1114.52 704.522 1114.07 705.147 1113.72 705.851L1098.28 698.677L1079.91 690.134L1086.29 653.851C1086.29 653.851 1086.34 653.851 1086.38 653.851C1086.81 653.851 1087.21 653.753 1087.59 653.577L1115.1 704.013V704.033ZM1114.73 712.85L1099.41 735.82L1062.74 790.753C1062.58 790.655 1062.41 790.577 1062.23 790.498L1070.41 744.109L1079.7 691.365L1085.35 694.004L1113.3 707.004C1113.17 707.532 1113.08 708.06 1113.08 708.627C1113.08 710.308 1113.72 711.794 1114.73 712.85ZM1061.17 790.264C1061.17 790.264 1061.07 790.264 1061 790.264C1060.46 790.264 1059.95 790.401 1059.49 790.635L983.557 657.995L976.565 645.777C977.086 645.308 977.539 644.702 977.852 644.037L1078.65 690.916L1061.15 790.283L1061.17 790.264ZM1058.58 791.28C1058.41 791.456 1058.25 791.632 1058.11 791.828L935.13 713.299C935.409 712.595 935.565 711.813 935.565 710.992C935.565 709.233 934.852 707.689 933.756 706.613L962.753 659.539L970.894 646.324C971.625 646.774 972.459 647.047 973.347 647.047C974.182 647.047 974.964 646.813 975.66 646.402L1058.58 791.261V791.28ZM930.416 705.206C929.408 705.206 928.468 705.538 927.668 706.105L887.243 648.592L954.004 643.392L968.285 642.278C968.493 643.626 969.12 644.799 970.007 645.64L942.454 690.388L932.886 705.929C932.156 705.48 931.321 705.206 930.434 705.206H930.416ZM926.816 706.868C926.607 707.102 926.416 707.356 926.242 707.63L880.598 678.482L841.477 653.499C841.634 653.069 841.721 652.619 841.738 652.13L885.938 648.69L926.816 706.848V706.868ZM861.255 613.58L885.121 647.536L855.132 649.882L841.669 650.938C841.495 649.98 841.025 649.139 840.399 648.514L861.255 613.599V613.58ZM969.885 637.019C968.911 638.035 968.267 639.462 968.215 641.065L886.425 647.439L861.881 612.524L903.803 542.304C904.324 542.597 904.916 542.773 905.559 542.773C906.255 542.773 906.899 542.558 907.473 542.206L969.885 637.019ZM950.42 566.74L987.871 589.925L974.46 635.611C974.112 635.533 973.747 635.474 973.364 635.474C972.407 635.474 971.52 635.787 970.755 636.296L947.863 601.537L908.343 541.502C908.499 541.346 908.621 541.15 908.743 540.955L950.403 566.74H950.42ZM909.299 539.86L996.064 562.068L988.219 588.752L952.838 566.838L909.299 539.88V539.841V539.86ZM1019.46 482.425L996.412 560.914L909.543 538.668C909.543 538.531 909.578 538.413 909.578 538.277C909.578 537.807 909.491 537.377 909.386 536.947L1017.2 480.138C1017.74 481.135 1018.52 481.936 1019.48 482.425H1019.46ZM1022.38 482.855L1043.26 569.927C1042.3 570.396 1041.55 571.275 1041.17 572.37L997.456 561.188L1020.47 482.816C1020.82 482.894 1021.18 482.953 1021.56 482.953C1021.84 482.953 1022.1 482.914 1022.36 482.855H1022.38ZM1115.46 538.355L1048.06 571.647C1047.38 570.415 1046.16 569.575 1044.79 569.575C1044.63 569.575 1044.47 569.614 1044.32 569.633L1023.44 482.562C1024.38 482.151 1025.18 481.448 1025.76 480.548L1115.46 538.355ZM1187.27 584.627C1187.11 585.038 1186.99 585.448 1186.92 585.898L1094.71 577.727L1048.63 573.641C1048.63 573.328 1048.56 573.035 1048.49 572.742L1116.63 539.098L1187.27 584.608V584.627ZM1188.36 582.848C1188.15 583.064 1187.98 583.318 1187.82 583.572L1117.88 538.492L1144.35 525.413C1144.91 526.332 1145.83 526.938 1146.89 526.938C1147.42 526.938 1147.9 526.782 1148.34 526.508L1188.38 582.829L1188.36 582.848ZM1149.17 525.765C1149.4 525.492 1149.57 525.179 1149.71 524.827L1212.26 539.977L1193.81 581.539C1193.25 581.304 1192.64 581.148 1192.02 581.148C1190.99 581.148 1190.05 581.5 1189.25 582.066L1149.21 525.746L1149.17 525.765ZM1263.98 423.524L1226.21 508.562L1149.75 522.403C1149.69 522.246 1149.64 522.09 1149.57 521.953L1263.04 422.683C1263.32 423.015 1263.63 423.289 1263.98 423.543V423.524ZM1269.04 423.817L1304.09 485.553L1306.37 489.56C1305.19 490.616 1304.42 492.239 1304.42 494.076C1304.42 494.174 1304.44 494.291 1304.45 494.389L1276.08 499.53L1227.54 508.308L1264.95 424.052C1265.51 424.286 1266.12 424.443 1266.74 424.443C1267.58 424.443 1268.34 424.208 1269.04 423.817ZM1388.21 390.017L1271.63 416.897C1271.21 415.43 1270.31 414.238 1269.11 413.534L1304.23 313.013C1304.61 313.13 1304.99 313.208 1305.41 313.208C1306.61 313.208 1307.69 312.681 1308.53 311.84L1388.21 390.017ZM1309.29 310.843L1428.97 378.092C1428.76 378.717 1428.62 379.402 1428.62 380.125C1428.62 380.32 1428.65 380.496 1428.67 380.672L1389.53 389.704L1309.24 310.921C1309.24 310.921 1309.27 310.863 1309.29 310.824V310.843ZM1447.32 318.721L1434.55 374.417C1434.31 374.377 1434.06 374.338 1433.8 374.338C1431.98 374.338 1430.38 375.414 1429.47 377.017L1309.78 309.768C1309.86 309.494 1309.93 309.22 1309.99 308.947L1447.32 318.741V318.721ZM1448.41 318.8L1492.21 321.927C1492.25 323.003 1492.54 324.019 1493.05 324.86L1477.74 338.935L1437.42 376C1436.92 375.433 1436.29 375.003 1435.59 374.71L1448.41 318.8ZM1493.76 317.529C1493 318.369 1492.47 319.464 1492.28 320.696L1448.69 317.587L1459.25 271.589C1459.35 271.589 1459.46 271.628 1459.58 271.628C1460.19 271.628 1460.76 271.432 1461.27 271.119L1493.76 317.529ZM1462.12 270.377C1462.56 269.849 1462.87 269.184 1462.99 268.441L1547.77 271.08C1547.84 272.077 1548.12 273.016 1548.57 273.798L1500.96 317.568C1500.02 316.532 1498.75 315.887 1497.34 315.887C1496.34 315.887 1495.4 316.219 1494.61 316.786L1462.12 270.377ZM1552.35 264.883C1549.98 265.157 1548.12 267.21 1547.81 269.849L1463.01 267.21C1462.94 266.584 1462.75 265.978 1462.43 265.489L1551.06 170.285C1551.44 170.598 1551.88 170.813 1552.35 170.911V264.883ZM1552.35 395.256C1551.55 395.354 1550.8 395.627 1550.16 396.096L1500.95 325.837C1501.9 324.782 1502.51 323.315 1502.51 321.693C1502.51 320.52 1502.2 319.425 1501.66 318.526L1549.27 274.756C1550.09 275.655 1551.16 276.222 1552.35 276.378V395.275V395.256ZM1552.35 547.641C1551.23 547.777 1550.24 548.286 1549.44 549.087L1547.44 547.074L1460.31 459.22C1460.64 458.634 1460.85 457.95 1460.85 457.207C1460.85 456.796 1460.78 456.405 1460.66 456.034L1533.32 413.221L1548.59 404.229C1549.42 405.617 1550.78 406.555 1552.33 406.751V547.68L1552.35 547.641ZM1409.64 669.314L1448.69 637.918L1549.04 557.22C1549.88 558.275 1551.02 558.96 1552.33 559.116V630.02C1550.64 630.314 1549.34 631.936 1549.34 633.93C1549.34 634.028 1549.35 634.126 1549.35 634.204L1410.01 670.272C1409.9 669.939 1409.78 669.607 1409.62 669.314H1409.64ZM1406.79 666.675L1433.25 529.265C1433.44 529.284 1433.61 529.323 1433.8 529.323C1436.08 529.323 1437.98 527.661 1438.67 525.374L1547.81 552.723C1547.79 552.938 1547.75 553.153 1547.75 553.368C1547.75 554.405 1548.02 555.363 1548.45 556.203L1409.05 668.297C1408.46 667.535 1407.69 666.987 1406.82 666.655L1406.79 666.675ZM1403.1 666.851L1372.24 606.561L1430.91 528.326C1431.3 528.619 1431.73 528.834 1432.2 529.01L1425.42 564.218L1405.74 666.421C1405.55 666.401 1405.38 666.362 1405.19 666.362C1404.44 666.362 1403.74 666.538 1403.1 666.87V666.851ZM1307.99 692.264L1371.51 607.539L1402.18 667.457C1400.89 668.512 1400.04 670.213 1400.04 672.129C1400.04 672.305 1400.07 672.481 1400.09 672.657L1308.59 693.379C1308.46 692.968 1308.25 692.577 1307.99 692.245V692.264ZM1307.59 690.896L1353.65 578.489C1354.17 578.763 1354.73 578.919 1355.33 578.919C1355.82 578.919 1356.27 578.802 1356.71 578.626L1370.94 606.425L1307.6 690.896H1307.59ZM1306.04 690.994L1308.58 568.343C1310.66 568.148 1312.39 566.564 1313.03 564.394L1351.4 573.699C1351.37 573.934 1351.33 574.188 1351.33 574.442C1351.33 575.791 1351.87 577.003 1352.73 577.824L1306.32 691.091C1306.23 691.072 1306.12 691.033 1306.04 691.013V690.994ZM1302.42 693.007L1263.44 678.952L1212.94 660.751C1212.98 660.497 1213.01 660.243 1213.01 659.969C1213.01 659.051 1212.77 658.21 1212.35 657.506L1304.68 566.838C1305.45 567.639 1306.42 568.167 1307.52 568.324L1305.72 655.141L1304.98 690.994C1303.86 691.17 1302.92 691.952 1302.44 693.027L1302.42 693.007ZM1266.5 754.157L1211.67 663.293C1212.05 662.902 1212.37 662.433 1212.59 661.905L1263.04 680.105L1302.07 694.18C1302.05 694.356 1302.02 694.552 1302.02 694.747C1302.02 695.881 1302.47 696.878 1303.17 697.582L1271.2 754.098C1270.5 753.707 1269.73 753.472 1268.92 753.472C1268.05 753.472 1267.23 753.746 1266.5 754.176V754.157ZM1217.71 745.496C1218.59 745.105 1219.29 744.323 1219.62 743.326L1263.84 758.184C1263.79 758.536 1263.75 758.888 1263.75 759.239C1263.75 761.077 1264.53 762.7 1265.72 763.755L1226.13 833.721L1217.71 745.477V745.496ZM1117.71 834.914L1214.73 745.223C1215.24 745.555 1215.83 745.77 1216.45 745.77C1216.52 745.77 1216.58 745.77 1216.63 745.751L1221.22 793.861L1225.13 834.914H1117.69H1117.71ZM1116.77 833.233L1117.41 793.431L1118.7 714.374C1120.64 714.179 1122.28 712.81 1123.01 710.856L1172.64 727.531L1116.77 833.233ZM1064.34 796.128C1064.56 795.601 1064.69 795.014 1064.69 794.389C1064.69 793.255 1064.29 792.238 1063.63 791.495L1099.16 738.244L1115.62 713.592C1116.21 714.003 1116.89 714.257 1117.62 714.355L1116.33 793.861L1115.67 834.406L1064.34 796.128ZM972.199 834.914L965.258 814.016L1057.55 795.698C1058.04 797.341 1059.4 798.513 1061.02 798.513C1062.09 798.513 1063.07 797.986 1063.73 797.145L1114.38 834.914H972.199ZM859.933 834.914L964.162 814.231L971.033 834.914H859.933ZM856.263 832.529L905.577 752.456L927.981 716.075C928.712 716.525 929.547 716.798 930.434 716.798C930.886 716.798 931.304 716.72 931.721 716.603L963.797 813.078L857.237 834.23C857.046 833.584 856.715 832.998 856.28 832.548L856.263 832.529ZM847.705 759.63L926.137 714.198C926.398 714.648 926.729 715.039 927.094 715.391L855.376 831.845C854.941 831.61 854.471 831.454 853.949 831.434L847.705 759.63ZM850.679 833.33L783.309 799.686C783.414 799.295 783.483 798.885 783.483 798.455C783.483 797.927 783.396 797.438 783.24 796.989L846.661 760.236L852.871 831.551C851.949 831.805 851.166 832.451 850.679 833.33ZM780.057 802.853C781.239 802.677 782.266 801.896 782.875 800.801L850.244 834.445C850.209 834.601 850.175 834.757 850.157 834.933H780.074V802.853H780.057ZM780.057 670.604L835.702 685.794C835.667 686.048 835.633 686.302 835.633 686.556C835.633 689.743 837.911 692.323 840.747 692.343L846.539 758.927L782.735 795.894C782.109 794.916 781.152 794.232 780.039 794.056V670.604H780.057ZM780.057 642.414L836.224 683.917C836.12 684.152 836.033 684.367 835.946 684.621L780.039 669.353V642.414H780.057ZM780.057 502.013C780.387 501.974 780.7 501.896 780.996 501.798L835.754 648.005C834.902 648.572 834.276 649.472 833.98 650.547L780.074 640.753V502.013H780.057Z" fill="#91928E"/>
<path d="M780.039 794.017V501.974C782.631 501.661 784.649 499.237 784.649 496.246C784.649 493.04 782.335 490.46 779.5 490.46C776.665 490.46 774.351 493.06 774.351 496.246C774.351 497.869 774.943 499.335 775.899 500.391L697.815 611.488L656.085 541.6C656.902 540.779 657.441 539.586 657.441 538.257C657.441 535.774 655.65 533.761 653.441 533.761C652.032 533.761 650.797 534.582 650.083 535.813L542.288 479.004C542.48 478.417 542.584 477.792 542.584 477.127C542.584 473.921 540.271 471.341 537.435 471.341C534.6 471.341 532.286 473.941 532.286 477.127C532.286 477.968 532.443 478.75 532.739 479.454L442.338 537.71L415.133 524.28C415.185 524.025 415.22 523.752 415.22 523.478C415.22 521.582 413.846 520.037 412.159 520.037C411.376 520.037 410.663 520.37 410.123 520.917L296.658 421.647C297.145 420.767 297.441 419.712 297.441 418.597C297.441 415.391 295.127 412.811 292.292 412.811C291.822 412.811 291.37 412.909 290.935 413.045L255.815 312.524C257.276 311.645 258.285 309.944 258.285 307.95C258.285 305.076 256.198 302.73 253.641 302.73C251.084 302.73 249.153 304.92 249.031 307.676L111.474 317.49L100.88 271.276C102.115 270.67 102.985 269.301 102.985 267.698C102.985 265.548 101.42 263.789 99.5062 263.789C98.7061 263.789 97.9929 264.101 97.4015 264.61L8.74064 169.367C9.07114 168.819 9.26248 168.155 9.26248 167.431C9.26248 165.496 7.87091 163.932 6.14883 163.932C4.42676 163.932 3.03518 165.496 3.03518 167.431C3.03518 169.152 4.14844 170.579 5.5922 170.852V264.825C3.00039 265.137 0.982605 267.561 0.982605 270.552C0.982605 273.543 3.00039 275.968 5.5922 276.28V395.178C3.00039 395.49 0.982605 397.914 0.982605 400.906C0.982605 403.896 3.00039 406.321 5.5922 406.633V547.562C3.00039 547.875 0.982605 550.299 0.982605 553.29C0.982605 556.281 3.00039 558.705 5.5922 559.018V629.923C3.90492 630.216 2.60031 631.838 2.60031 633.832C2.60031 636.022 4.18323 637.801 6.13144 637.801C7.60999 637.801 8.8798 636.765 9.40164 635.299L148.751 671.366C148.733 671.601 148.681 671.816 148.681 672.051C148.681 675.257 150.995 677.837 153.83 677.837C156.143 677.837 158.074 676.117 158.718 673.771L250.214 694.493C250.214 694.493 250.214 694.591 250.214 694.63C250.214 696.741 251.727 698.442 253.606 698.442C254.076 698.442 254.528 698.325 254.945 698.129L286.917 754.645C285.734 755.701 284.951 757.324 284.951 759.161C284.951 762.367 287.265 764.948 290.1 764.948C290.918 764.948 291.7 764.713 292.379 764.322L332.682 835.578L332.63 836.048H332.943L333.622 837.24L333.743 836.048H442.286V836.556L442.634 836.302L443.382 837.729L443.347 836.048H701.607C701.867 838.022 703.381 839.566 705.207 839.566C707.034 839.566 708.547 838.042 708.808 836.048H779.987V802.756C781.918 802.462 783.414 800.605 783.414 798.357C783.414 796.109 781.918 794.271 779.987 793.959L780.039 794.017ZM776.752 501.133C776.752 501.133 776.926 501.231 777.013 501.29L722.271 647.497C721.941 647.399 721.593 647.321 721.245 647.321C720.619 647.321 720.028 647.497 719.488 647.79L698.441 612.543L776.752 501.133ZM725.229 651.7L777.082 642.297L722.185 682.842C721.454 681.845 720.428 681.102 719.262 680.828L721.402 656.294C723.541 656.196 725.246 654.242 725.246 651.817C725.246 651.778 725.246 651.739 725.246 651.7H725.229ZM633.68 710.21L713.4 688.452C714.009 690.329 715.418 691.776 717.192 692.186L711.435 758.301L633.384 713.084C633.611 712.439 633.75 711.735 633.75 710.992C633.75 710.738 633.715 710.484 633.68 710.23V710.21ZM713.07 686.497C713.07 686.752 713.104 687.006 713.139 687.26L633.419 709.018C633.385 708.901 633.35 708.764 633.298 708.646L710.861 659.129L718.062 654.535C718.619 655.336 719.384 655.923 720.306 656.177L718.166 680.711C715.331 680.73 713.052 683.311 713.052 686.497H713.07ZM501.428 792.864L624.409 714.335C624.896 715.098 625.539 715.704 626.287 716.134L594.142 812.823L546.655 803.401L501.654 794.467C501.654 794.467 501.654 794.389 501.654 794.349C501.654 793.822 501.55 793.333 501.394 792.864H501.428ZM435.728 709.663L385.823 726.436L352.512 663.43C352.843 663.136 353.138 662.784 353.365 662.393L372.377 672.598L435.92 706.692C435.728 707.298 435.607 707.943 435.607 708.607C435.607 708.979 435.641 709.331 435.694 709.663H435.728ZM339.205 742.095L294.901 756.972C294.588 756.112 294.083 755.388 293.457 754.802L348.285 663.938C348.546 664.075 348.807 664.192 349.085 664.27L342.041 738.146C340.423 738.439 339.188 740.003 339.188 741.899C339.188 741.958 339.188 742.017 339.188 742.095H339.205ZM245.796 563.163L207.336 572.487C207.11 571.94 206.779 571.471 206.397 571.06L220.347 546.507L247.205 499.198C247.779 499.511 248.405 499.726 249.066 499.785L250.249 556.829C247.709 557.2 245.761 559.605 245.761 562.557C245.761 562.772 245.796 562.967 245.813 563.163H245.796ZM120.171 524.123L11.0367 551.472C10.8628 550.925 10.6367 550.397 10.341 549.928L39.2336 520.8L99.4714 460.061C100.045 460.589 100.759 460.902 101.559 460.902C101.802 460.902 102.046 460.862 102.289 460.804L122.867 518.376C121.232 519.353 120.119 521.249 120.119 523.478C120.119 523.693 120.154 523.908 120.171 524.123ZM120.136 380.34L60.0724 390.857L11.1411 399.42C10.8976 398.403 10.4279 397.484 9.76693 396.761L58.9766 326.502C59.7767 327.069 60.6986 327.401 61.7075 327.401C63.1165 327.401 64.4037 326.756 65.3256 325.72L120.484 376.43L120.971 376.88C120.432 377.799 120.119 378.874 120.119 380.047C120.119 380.144 120.136 380.242 120.136 380.32V380.34ZM11.3325 400.925C11.3325 400.925 11.3151 400.73 11.3151 400.651L120.31 381.552C120.71 383.214 121.737 384.582 123.093 385.305L115.37 410.406L102.133 453.434C101.941 453.395 101.768 453.375 101.559 453.375C100.463 453.375 99.5062 453.981 98.8974 454.88L68.5958 437.013L10.9324 403.056C11.1585 402.391 11.2977 401.687 11.2977 400.925H11.3325ZM287.195 419.008L242.386 428.059L104.69 455.877C104.603 455.623 104.516 455.389 104.377 455.154L169.798 390.975L287.178 418.05C287.178 418.226 287.125 418.421 287.125 418.597C287.125 418.734 287.16 418.871 287.16 419.008H287.195ZM103.681 454.235C103.507 454.079 103.333 453.942 103.142 453.825L116.431 410.641L124.102 385.696C124.485 385.794 124.868 385.853 125.268 385.853C127.564 385.853 129.495 384.152 130.156 381.806L130.799 381.962L168.494 390.662L103.681 454.235ZM109.265 477.029L103.298 460.335C104.272 459.67 104.916 458.497 104.916 457.129C104.916 457.109 104.916 457.089 104.916 457.07L137.235 450.541L287.404 420.2C287.456 420.415 287.508 420.65 287.595 420.865L230.958 456.425L189.385 482.523L188.811 482.425L188.88 482.836L147.672 508.699L129.495 520.116C128.555 518.63 127.025 517.652 125.285 517.652C124.798 517.652 124.328 517.75 123.894 517.887L109.282 476.99L109.265 477.029ZM288.117 421.94C288.395 422.39 288.743 422.781 289.126 423.113L251.797 488.876C251.101 488.485 250.336 488.251 249.501 488.251C247.118 488.251 245.135 490.069 244.543 492.532L191.089 482.855L195.177 480.275L251.675 444.813L288.117 421.94ZM129.46 526.84L200.309 572.116C199.961 572.781 199.752 573.543 199.752 574.384C199.752 575.889 200.413 577.199 201.422 578.02L187.419 605.388L129.008 527.486C129.182 527.29 129.338 527.075 129.477 526.84H129.46ZM200.987 571.139L129.999 525.785C130.277 525.081 130.434 524.299 130.434 523.458C130.434 522.618 130.277 521.875 130.017 521.171L189.072 484.106L202.987 569.966C202.222 570.142 201.544 570.552 200.987 571.139ZM190.133 483.891L244.369 493.705C244.369 493.803 244.335 493.9 244.335 494.018C244.335 495.855 245.1 497.458 246.283 498.533L224.452 537.006L205.51 570.376C205.075 570.122 204.588 569.985 204.066 569.927L190.133 483.911V483.891ZM250.144 499.726C251.414 499.55 252.545 498.846 253.345 497.81L312.817 544.786C312.557 545.373 312.4 546.018 312.4 546.702C312.4 546.8 312.417 546.898 312.435 546.995L255.798 560.719C255.171 558.549 253.432 556.965 251.345 556.77L250.162 499.726H250.144ZM518.092 573.504L561.91 562.283L569.842 589.3L475.162 647.908C475.04 647.732 474.901 647.575 474.762 647.438L498.61 603.707L512.717 577.844C513.187 578.078 513.709 578.196 514.248 578.196C516.388 578.196 518.11 576.241 518.11 573.856C518.11 573.739 518.092 573.621 518.075 573.504H518.092ZM580.522 641.007L475.789 649.315C475.771 649.198 475.736 649.081 475.702 648.983L570.207 590.473L583.566 635.944C581.827 636.823 580.609 638.759 580.539 641.007H580.522ZM580.731 642.844L480.12 689.625L473.771 653.596C474.901 653.108 475.719 651.954 475.841 650.547L516.475 647.321L580.592 642.238C580.626 642.453 580.679 642.649 580.731 642.864V642.844ZM473.84 646.793C473.458 646.617 473.058 646.52 472.623 646.52C470.935 646.52 469.561 647.966 469.405 649.823L353.956 658.972C353.939 658.836 353.886 658.699 353.852 658.581L435.328 615.886L511.013 576.221C511.222 576.593 511.5 576.906 511.796 577.179L473.84 646.774V646.793ZM434.076 615.202L353.399 657.467C352.964 656.705 352.321 656.099 351.573 655.747L362.01 610.999L366.289 592.603C366.55 592.642 366.793 592.682 367.054 592.682C369.855 592.682 372.116 590.16 372.203 587.051L478.972 577.59L510.491 574.794C510.508 574.911 510.543 575.009 510.578 575.107L434.076 615.202ZM353.695 641.867L350.529 655.454C350.373 655.434 350.216 655.395 350.06 655.395C349.799 655.395 349.555 655.434 349.312 655.473L317.897 550.495C318.297 550.28 318.645 549.987 318.958 549.615L349.799 573.973L362.601 584.08C362.184 584.921 361.94 585.859 361.94 586.876C361.94 589.358 363.332 591.45 365.28 592.271L353.73 641.847L353.695 641.867ZM363.21 583.083L319.584 548.618C319.845 548.032 320.001 547.386 320.001 546.702C320.001 546.605 319.984 546.507 319.967 546.409L345.711 540.173L364.288 582.008C363.871 582.301 363.506 582.672 363.193 583.083H363.21ZM333.448 509.813L409.132 523.517V523.576L346.302 538.804L333.43 509.833L333.448 509.813ZM345.224 539.039L319.758 545.217C319.219 543.594 317.845 542.421 316.209 542.421C315.114 542.421 314.139 542.949 313.444 543.77L253.989 496.794C254.18 496.383 254.354 495.953 254.458 495.503L332.143 509.559L345.241 539.039H345.224ZM256.076 562.517C256.076 562.302 256.041 562.107 256.024 561.911L312.661 548.188C313.2 549.811 314.574 550.983 316.209 550.983C316.436 550.983 316.679 550.944 316.888 550.905L348.303 655.903C347.99 656.079 347.711 656.294 347.468 656.529L255.137 565.86C255.728 564.922 256.076 563.769 256.076 562.537V562.517ZM350.181 664.368C350.686 664.368 351.173 664.231 351.625 664.036L384.779 726.749L345.537 739.945C345.032 738.987 344.18 738.302 343.154 738.107L350.199 664.368H350.181ZM346.007 741.86C346.007 741.587 345.972 741.313 345.937 741.059L385.353 727.824L440.825 832.763L345.172 744.343C345.693 743.678 346.007 742.818 346.007 741.86ZM396.416 684.073L353.852 661.24C353.956 660.908 354.008 660.556 354.026 660.184L469.492 651.035C469.648 651.778 470.013 652.423 470.518 652.912L443.017 703.349C442.338 702.997 441.608 702.762 440.808 702.762C438.946 702.762 437.329 703.877 436.424 705.538L396.416 684.073ZM471.44 653.557C471.823 653.733 472.223 653.831 472.657 653.831C472.692 653.831 472.71 653.831 472.744 653.831L479.128 690.114L460.759 698.657L445.313 705.831C444.965 705.128 444.495 704.502 443.939 704.013L471.44 653.577V653.557ZM445.957 708.568C445.957 708.001 445.852 707.454 445.73 706.946L473.684 693.946L479.337 691.307L488.626 744.05L496.801 790.44C496.627 790.518 496.453 790.596 496.297 790.694L459.629 735.761L444.304 712.791C445.313 711.735 445.957 710.23 445.957 708.568ZM480.363 690.837L581.166 643.959C581.496 644.623 581.931 645.229 582.453 645.699L575.46 657.917L499.532 790.557C499.08 790.322 498.558 790.186 498.019 790.186C497.967 790.186 497.897 790.186 497.845 790.186L480.346 690.818L480.363 690.837ZM583.375 646.363C584.07 646.754 584.853 647.008 585.688 647.008C586.575 647.008 587.41 646.735 588.141 646.285L596.282 659.5L625.279 706.574C624.183 707.63 623.47 709.194 623.47 710.953C623.47 711.774 623.626 712.556 623.904 713.26L500.924 791.789C500.785 791.593 500.628 791.398 500.454 791.241L583.375 646.383V646.363ZM626.166 705.871L616.599 690.329L589.045 645.581C589.933 644.721 590.559 643.568 590.767 642.219L605.049 643.333L671.809 648.533L631.384 706.047C630.584 705.48 629.645 705.147 628.636 705.147C627.749 705.147 626.914 705.421 626.183 705.871H626.166ZM673.097 648.631L717.297 652.072C717.331 652.541 717.401 653.01 717.557 653.44L678.437 678.424L632.793 707.571C632.619 707.298 632.428 707.043 632.219 706.809L673.097 648.65V648.631ZM718.619 648.435C717.992 649.061 717.523 649.902 717.349 650.86L703.885 649.804L673.897 647.458L697.762 613.501L718.619 648.416V648.435ZM651.562 542.128C652.136 542.48 652.78 542.695 653.475 542.695C654.102 542.695 654.693 542.519 655.232 542.225L697.154 612.446L672.61 647.36L590.82 640.987C590.767 639.384 590.141 637.957 589.15 636.941L651.562 542.128ZM650.275 540.877C650.397 541.072 650.536 541.248 650.675 541.424L611.154 601.459L588.263 636.217C587.497 635.709 586.61 635.396 585.653 635.396C585.271 635.396 584.906 635.455 584.558 635.533L571.146 589.847L608.597 566.662L650.257 540.877H650.275ZM649.753 539.821L606.214 566.779L570.833 588.694L562.988 562.009L649.753 539.801V539.841V539.821ZM541.871 480.079L649.683 536.889C649.562 537.319 649.492 537.749 649.492 538.218C649.492 538.355 649.509 538.472 649.527 538.609L562.658 560.856L539.61 482.366C540.566 481.878 541.349 481.076 541.888 480.079H541.871ZM537.47 482.894C537.853 482.894 538.218 482.836 538.566 482.757L561.579 561.129L517.866 572.312C517.501 571.217 516.736 570.318 515.779 569.868L536.653 482.796C536.913 482.836 537.174 482.894 537.453 482.894H537.47ZM533.295 480.49C533.869 481.389 534.67 482.093 535.609 482.503L514.735 569.575C514.579 569.555 514.422 569.516 514.266 569.516C512.874 569.516 511.674 570.337 510.995 571.588L443.591 538.296L533.295 480.49ZM442.408 539.059L510.543 572.702C510.474 572.996 510.421 573.289 510.404 573.602L464.325 577.688L372.116 585.859C372.046 585.409 371.925 584.979 371.768 584.588L442.408 539.078V539.059ZM410.732 526.469C411.167 526.723 411.654 526.899 412.176 526.899C413.237 526.899 414.159 526.293 414.716 525.374L441.19 538.453L371.246 583.533C371.072 583.279 370.898 583.024 370.707 582.809L410.75 526.489L410.732 526.469ZM369.837 582.027C369.037 581.441 368.08 581.109 367.072 581.109C366.428 581.109 365.837 581.245 365.28 581.5L346.824 539.938L409.375 524.788C409.497 525.14 409.689 525.452 409.915 525.726L369.872 582.047L369.837 582.027ZM296.014 422.585L409.48 521.855C409.41 521.992 409.358 522.149 409.306 522.305L332.839 508.464L295.075 423.426C295.423 423.172 295.736 422.898 296.014 422.566V422.585ZM292.309 424.364C292.953 424.364 293.544 424.228 294.101 423.973L331.517 508.23L282.968 499.452L254.597 494.311C254.597 494.213 254.632 494.115 254.632 493.998C254.632 492.16 253.867 490.557 252.684 489.482L254.963 485.475L290.013 423.739C290.709 424.13 291.474 424.364 292.309 424.364ZM250.544 311.762C251.362 312.602 252.458 313.13 253.658 313.13C254.058 313.13 254.458 313.052 254.841 312.935L289.961 413.456C288.761 414.16 287.856 415.352 287.439 416.818L170.859 389.938L250.544 311.762ZM249.814 310.863L169.52 389.645L130.382 380.614C130.382 380.418 130.434 380.242 130.434 380.066C130.434 379.343 130.295 378.678 130.086 378.033L249.762 310.784C249.762 310.784 249.796 310.843 249.814 310.882V310.863ZM249.083 308.849C249.135 309.142 249.205 309.416 249.292 309.67L129.599 376.919C128.677 375.316 127.094 374.241 125.268 374.241C125.007 374.241 124.763 374.28 124.52 374.319L111.752 318.624L249.083 308.83V308.849ZM123.476 374.632C122.78 374.925 122.172 375.355 121.65 375.922L81.3287 338.857L66.0214 324.782C66.5085 323.941 66.8042 322.924 66.8564 321.849L110.656 318.721L123.476 374.632ZM97.8015 271.041C98.306 271.354 98.88 271.549 99.4888 271.549C99.5932 271.549 99.715 271.53 99.8193 271.51L110.378 317.509L66.7868 320.618C66.5954 319.386 66.0736 318.272 65.3082 317.451L97.8015 271.041ZM64.4385 316.708C63.6383 316.141 62.7164 315.809 61.7075 315.809C60.2985 315.809 59.0113 316.454 58.0894 317.49L10.4627 273.739C10.9324 272.937 11.1933 272.019 11.2629 271.022L96.0447 268.383C96.1664 269.125 96.4795 269.79 96.9144 270.318L64.4211 316.727L64.4385 316.708ZM6.70546 170.852C7.17512 170.755 7.60999 170.54 7.99267 170.227L96.6187 265.431C96.3056 265.939 96.1142 266.525 96.0447 267.151L11.2455 269.79C10.9324 267.151 9.05375 265.098 6.70546 264.825V170.852ZM6.70546 276.3C7.9057 276.163 8.98417 275.577 9.78433 274.677L57.3936 318.448C56.8544 319.366 56.5413 320.442 56.5413 321.615C56.5413 323.237 57.1501 324.703 58.1068 325.759L8.8972 396.038C8.25359 395.588 7.50562 395.295 6.70546 395.197V276.3ZM6.70546 406.672C8.27099 406.477 9.62777 405.539 10.4453 404.151L25.7179 413.143L98.3756 455.956C98.2712 456.327 98.1842 456.718 98.1842 457.129C98.1842 457.871 98.3756 458.575 98.7234 459.142L11.5934 547.015L9.59298 549.029C8.81022 548.227 7.80133 547.719 6.68807 547.582V406.653L6.70546 406.672ZM149.012 670.233L9.66256 634.145C9.66256 634.145 9.67996 633.95 9.67996 633.871C9.67996 631.897 8.37535 630.255 6.68807 629.962V559.057C7.99267 558.901 9.15812 558.217 9.97567 557.161L110.326 637.859L149.377 669.255C149.22 669.568 149.099 669.881 148.994 670.213L149.012 670.233ZM150.02 668.278L10.6193 556.164C11.0367 555.323 11.3151 554.365 11.3151 553.329C11.3151 553.114 11.2803 552.899 11.2629 552.684L120.397 525.335C121.093 527.622 122.989 529.284 125.268 529.284C125.459 529.284 125.633 529.245 125.824 529.225L152.282 666.636C151.412 666.968 150.647 667.535 150.055 668.278H150.02ZM153.865 666.323C153.673 666.323 153.499 666.362 153.308 666.381L133.635 564.179L126.851 528.971C127.303 528.795 127.738 528.58 128.138 528.287L186.81 606.522L155.952 666.812C155.308 666.499 154.613 666.303 153.865 666.303V666.323ZM250.457 693.379L158.961 672.657C158.961 672.481 159.013 672.305 159.013 672.129C159.013 670.194 158.161 668.512 156.874 667.457L187.541 607.539L251.066 692.264C250.805 692.597 250.597 692.968 250.457 693.398V693.379ZM188.115 606.405L202.344 578.606C202.779 578.782 203.231 578.9 203.718 578.9C204.327 578.9 204.901 578.743 205.405 578.469L251.466 690.876L188.132 606.405H188.115ZM252.719 691.052L206.31 577.785C207.162 576.964 207.701 575.772 207.701 574.403C207.701 574.149 207.666 573.915 207.632 573.66L246.004 564.355C246.631 566.525 248.37 568.108 250.457 568.304L252.997 690.955C252.893 690.974 252.806 691.013 252.719 691.033V691.052ZM254.076 690.955L253.328 655.102L251.536 568.284C252.632 568.128 253.606 567.6 254.371 566.799L346.702 657.467C346.285 658.171 346.041 659.031 346.041 659.93C346.041 660.204 346.076 660.458 346.111 660.712L295.614 678.912L256.633 692.968C256.146 691.893 255.206 691.111 254.093 690.935L254.076 690.955ZM290.117 753.433C289.3 753.433 288.517 753.668 287.839 754.059L255.867 697.543C256.563 696.839 257.015 695.842 257.015 694.708C257.015 694.513 256.998 694.337 256.963 694.141L295.997 680.066L346.441 661.866C346.668 662.393 346.981 662.863 347.363 663.254L292.535 754.118C291.805 753.688 291.005 753.414 290.117 753.414V753.433ZM332.891 833.702L293.301 763.736C294.483 762.68 295.266 761.057 295.266 759.22C295.266 758.848 295.231 758.497 295.179 758.164L339.397 743.307C339.744 744.304 340.44 745.086 341.31 745.477L332.891 833.721V833.702ZM333.865 834.894L337.779 793.841L342.371 745.731C342.371 745.731 342.493 745.751 342.545 745.751C343.171 745.751 343.763 745.536 344.267 745.203L441.295 834.894H333.848H333.865ZM386.362 727.511L435.989 710.836C436.72 712.771 438.355 714.159 440.303 714.355L441.59 793.411L442.234 833.213L386.362 727.511ZM443.33 834.366L442.669 793.822L441.382 714.316C442.112 714.218 442.773 713.944 443.382 713.553L459.838 738.205L495.375 791.456C494.714 792.199 494.314 793.216 494.314 794.349C494.314 794.975 494.453 795.562 494.662 796.089L443.33 834.366ZM444.6 834.875L495.253 797.106C495.932 797.947 496.888 798.474 497.967 798.474C499.584 798.474 500.941 797.282 501.428 795.659L593.725 813.977L586.784 834.875H444.6ZM587.95 834.875L594.82 814.192L699.049 834.875H587.95ZM701.78 834.171L595.221 813.019L627.296 716.544C627.714 716.662 628.131 716.74 628.584 716.74C629.471 716.74 630.306 716.466 631.036 716.016L653.441 752.397L702.755 832.47C702.32 832.939 701.989 833.506 701.798 834.151L701.78 834.171ZM705.051 831.375C704.546 831.395 704.059 831.551 703.624 831.786L631.906 715.332C632.271 714.98 632.602 714.589 632.863 714.14L711.295 759.572L705.051 831.375ZM706.129 831.493L712.339 760.178L775.76 796.93C775.621 797.399 775.517 797.888 775.517 798.396C775.517 798.826 775.586 799.237 775.691 799.628L708.321 833.272C707.834 832.392 707.051 831.766 706.129 831.493ZM778.943 834.875H708.86C708.843 834.718 708.808 834.542 708.773 834.386L776.143 800.742C776.752 801.837 777.761 802.599 778.961 802.795V834.875H778.943ZM778.943 793.998C777.83 794.174 776.873 794.838 776.247 795.835L712.443 758.868L718.236 692.284C721.071 692.264 723.35 689.684 723.35 686.497C723.35 686.243 723.315 685.989 723.28 685.735L778.926 670.545V793.998H778.943ZM778.943 669.275L723.037 684.543C722.967 684.308 722.863 684.073 722.758 683.839L778.926 642.336V669.275H778.943ZM778.943 640.694L725.037 650.488C724.741 649.413 724.115 648.514 723.263 647.947L778.021 501.739C778.317 501.837 778.63 501.915 778.961 501.954V640.694H778.943Z" fill="#91928E"/>
<path d="M1470.81 0H1307L1558 276V129.5V0H1470.81Z" fill="#F2B243"/>
<path d="M1196.81 0H1033L1558 627V427.659L1196.81 0Z" fill="#F2B243"/>
</svg>
